SplineFontDB: 3.2
FontName: Phonk-RegularDEMO
FullName: Phonk Regular DEMO
FamilyName: Phonk Regular DEMO
Weight: Demi
Copyright: Copyright (c) 2021 by Slava Antipov. All rights reserved.
Version: 1.00 September 22, 2021, initial release
ItalicAngle: 0
UnderlinePosition: -200
UnderlineWidth: 50
Ascent: 800
Descent: 200
InvalidEm: 0
sfntRevision: 0x00010000
LayerCount: 2
Layer: 0 1 "Back" 1
Layer: 1 1 "Fore" 0
XUID: [1021 389 -581025091 490]
StyleMap: 0x0000
FSType: 0
OS2Version: 3
OS2_WeightWidthSlopeOnly: 0
OS2_UseTypoMetrics: 0
CreationTime: 1613076053
ModificationTime: 1744654765
PfmFamily: 81
TTFWeight: 600
TTFWidth: 9
LineGap: 0
VLineGap: 0
Panose: 0 0 10 0 0 0 0 0 0 0
OS2TypoAscent: 800
OS2TypoAOffset: 0
OS2TypoDescent: -200
OS2TypoDOffset: 0
OS2TypoLinegap: 275
OS2WinAscent: 990
OS2WinAOffset: 0
OS2WinDescent: 285
OS2WinDOffset: 0
HheadAscent: 990
HheadAOffset: 0
HheadDescent: -285
HheadDOffset: 0
OS2SubXSize: 650
OS2SubYSize: 600
OS2SubXOff: 0
OS2SubYOff: 75
OS2SupXSize: 650
OS2SupYSize: 600
OS2SupXOff: 0
OS2SupYOff: 350
OS2StrikeYSize: 50
OS2StrikeYPos: 300
OS2CapHeight: 700
OS2XHeight: 600
OS2Vendor: 'UKWN'
OS2CodePages: 00000097.00000000
OS2UnicodeRanges: a00002ef.4000003b.00000000.00000000
Lookup: 1 0 0 "'aalt' Access All Alternates lookup 0" { "'aalt' Access All Alternates lookup 0 subtable"  } ['aalt' ('DFLT' <'dflt' > 'cyrl' <'BGR ' 'dflt' > 'latn' <'AZE ' 'CRT ' 'KAZ ' 'MOL ' 'ROM ' 'TAT ' 'TRK ' 'dflt' > ) ]
Lookup: 3 0 0 "'aalt' Access All Alternates lookup 1" { "'aalt' Access All Alternates lookup 1 subtable"  } ['aalt' ('DFLT' <'dflt' > 'cyrl' <'BGR ' 'dflt' > 'latn' <'AZE ' 'CRT ' 'KAZ ' 'MOL ' 'ROM ' 'TAT ' 'TRK ' 'dflt' > ) ]
Lookup: 4 0 0 "'dlig' Discretionary Ligatures lookup 2" { "'dlig' Discretionary Ligatures lookup 2 subtable"  } ['dlig' ('DFLT' <'dflt' > 'cyrl' <'BGR ' 'dflt' > 'latn' <'AZE ' 'CRT ' 'KAZ ' 'MOL ' 'ROM ' 'TAT ' 'TRK ' 'dflt' > ) ]

StartChar: .notdef
Encoding: 65536 -1 0
Width: 820
GlyphClass: 2
Flags: W
LayerCount: 2
Fore
SplineSet
540 220 m 1,0,-1
 425 220 l 1,1,-1
 425 336 l 1,2,-1
 367 220 l 1,3,-1
 223 220 l 1,4,-1
 280 336 l 1,5,-1
 425 336 l 1,6,-1
 425 364 l 1,7,-1
 223 364 l 1,8,-1
 280 480 l 1,9,-1
 540 480 l 1,10,-1
 540 336 l 1,11,-1
 597 336 l 1,12,-1
 540 220 l 1,0,-1
134 626 m 256,14,15
 50 542 50 542 50 350 c 256,16,17
 50 158 50 158 134 74 c 256,18,19
 218 -10 218 -10 410 -10 c 256,20,21
 602 -10 602 -10 686 74 c 256,22,23
 770 158 770 158 770 350 c 256,24,25
 770 542 770 542 686 626 c 256,26,27
 602 710 602 710 410 710 c 256,28,13
 218 710 218 710 134 626 c 256,14,15
EndSplineSet
Validated: 5
EndChar

StartChar: exclam
Encoding: 33 33 4
Width: 1450
GlyphClass: 2
Flags: W
LayerCount: 2
Fore
SplineSet
542 532 m 2,1,-1
 476 532 l 1,2,-1
 476 501 l 1,3,-1
 542 501 l 2,4,5
 563 501 563 501 563 516 c 0,6,0
 563 532 563 532 542 532 c 2,1,-1
231 252 m 1,7,-1
 231 171 l 1,8,-1
 278 171 l 2,9,10
 330 171 330 171 330 212 c 0,11,12
 330 252 330 252 278 252 c 2,13,-1
 231 252 l 1,7,-1
1161 100 m 256,15,16
 1092 100 1092 100 1056 129 c 0,17,18
 1021 158 1021 158 1021 212 c 0,19,20
 1021 265 1021 265 1056 294 c 0,21,22
 1092 324 1092 324 1161 324 c 256,23,24
 1230 324 1230 324 1266 294 c 0,25,26
 1301 265 1301 265 1301 212 c 0,27,28
 1301 158 1301 158 1266 129 c 0,29,14
 1230 100 1230 100 1161 100 c 256,15,16
998 103 m 1,30,-1
 917 103 l 1,31,-1
 917 202 l 1,32,-1
 843 109 l 1,33,-1
 768 202 l 1,34,-1
 768 103 l 1,35,-1
 687 103 l 1,36,-1
 687 320 l 1,37,-1
 768 320 l 1,38,-1
 843 227 l 1,39,-1
 917 320 l 1,40,-1
 998 320 l 1,41,-1
 998 103 l 1,30,-1
667 600 m 1,42,-1
 897 600 l 1,43,-1
 897 538 l 1,44,-1
 748 538 l 1,45,-1
 748 519 l 1,46,-1
 894 519 l 1,47,-1
 894 463 l 1,48,-1
 748 463 l 1,49,-1
 748 445 l 1,50,-1
 897 445 l 1,51,-1
 897 383 l 1,52,-1
 667 383 l 1,53,-1
 667 600 l 1,42,-1
664 258 m 1,54,-1
 515 258 l 1,55,-1
 515 240 l 1,56,-1
 661 240 l 1,57,-1
 661 184 l 1,58,-1
 515 184 l 1,59,-1
 515 165 l 1,60,-1
 664 165 l 1,61,-1
 664 103 l 1,62,-1
 434 103 l 1,63,-1
 434 320 l 1,64,-1
 664 320 l 1,65,-1
 664 258 l 1,54,-1
150 103 m 1,66,-1
 150 320 l 1,67,-1
 278 320 l 2,68,69
 411 320 411 320 411 212 c 0,70,71
 411 103 411 103 278 103 c 2,72,-1
 150 103 l 1,66,-1
150 600 m 1,73,-1
 374 600 l 1,74,-1
 374 532 l 1,75,-1
 231 532 l 1,76,-1
 231 510 l 1,77,-1
 371 510 l 1,78,-1
 371 442 l 1,79,-1
 231 442 l 1,80,-1
 231 383 l 1,81,-1
 150 383 l 1,82,-1
 150 600 l 1,73,-1
395 600 m 1,83,-1
 539 600 l 2,84,85
 590 600 590 600 618 578 c 0,86,87
 644 556 644 556 644 516 c 0,88,89
 644 465 644 465 602 445 c 1,90,-1
 644 383 l 1,91,-1
 560 383 l 1,92,-1
 527 432 l 1,93,-1
 476 432 l 1,94,-1
 476 383 l 1,95,-1
 395 383 l 1,96,-1
 395 600 l 1,83,-1
920 600 m 1,97,-1
 1150 600 l 1,98,-1
 1150 538 l 1,99,-1
 1001 538 l 1,100,-1
 1001 519 l 1,101,-1
 1147 519 l 1,102,-1
 1147 463 l 1,103,-1
 1001 463 l 1,104,-1
 1001 445 l 1,105,-1
 1150 445 l 1,106,-1
 1150 383 l 1,107,-1
 920 383 l 1,108,-1
 920 600 l 1,97,-1
50 0 m 1,109,-1
 1400 0 l 1,110,-1
 1400 700 l 1,111,-1
 50 700 l 1,112,-1
 50 0 l 1,109,-1
1102 212 m 0,114,115
 1102 168 1102 168 1161 168 c 256,116,117
 1220 168 1220 168 1220 212 c 0,118,119
 1220 255 1220 255 1161 255 c 256,120,113
 1102 255 1102 255 1102 212 c 0,114,115
EndSplineSet
Validated: 9
EndChar

StartChar: quotedbl
Encoding: 34 34 5
Width: 1450
GlyphClass: 2
Flags: W
LayerCount: 2
Fore
SplineSet
542 532 m 2,1,-1
 476 532 l 1,2,-1
 476 501 l 1,3,-1
 542 501 l 2,4,5
 563 501 563 501 563 516 c 0,6,0
 563 532 563 532 542 532 c 2,1,-1
231 252 m 1,7,-1
 231 171 l 1,8,-1
 278 171 l 2,9,10
 330 171 330 171 330 212 c 0,11,12
 330 252 330 252 278 252 c 2,13,-1
 231 252 l 1,7,-1
1161 100 m 256,15,16
 1092 100 1092 100 1056 129 c 0,17,18
 1021 158 1021 158 1021 212 c 0,19,20
 1021 265 1021 265 1056 294 c 0,21,22
 1092 324 1092 324 1161 324 c 256,23,24
 1230 324 1230 324 1266 294 c 0,25,26
 1301 265 1301 265 1301 212 c 0,27,28
 1301 158 1301 158 1266 129 c 0,29,14
 1230 100 1230 100 1161 100 c 256,15,16
998 103 m 1,30,-1
 917 103 l 1,31,-1
 917 202 l 1,32,-1
 843 109 l 1,33,-1
 768 202 l 1,34,-1
 768 103 l 1,35,-1
 687 103 l 1,36,-1
 687 320 l 1,37,-1
 768 320 l 1,38,-1
 843 227 l 1,39,-1
 917 320 l 1,40,-1
 998 320 l 1,41,-1
 998 103 l 1,30,-1
667 600 m 1,42,-1
 897 600 l 1,43,-1
 897 538 l 1,44,-1
 748 538 l 1,45,-1
 748 519 l 1,46,-1
 894 519 l 1,47,-1
 894 463 l 1,48,-1
 748 463 l 1,49,-1
 748 445 l 1,50,-1
 897 445 l 1,51,-1
 897 383 l 1,52,-1
 667 383 l 1,53,-1
 667 600 l 1,42,-1
664 258 m 1,54,-1
 515 258 l 1,55,-1
 515 240 l 1,56,-1
 661 240 l 1,57,-1
 661 184 l 1,58,-1
 515 184 l 1,59,-1
 515 165 l 1,60,-1
 664 165 l 1,61,-1
 664 103 l 1,62,-1
 434 103 l 1,63,-1
 434 320 l 1,64,-1
 664 320 l 1,65,-1
 664 258 l 1,54,-1
150 103 m 1,66,-1
 150 320 l 1,67,-1
 278 320 l 2,68,69
 411 320 411 320 411 212 c 0,70,71
 411 103 411 103 278 103 c 2,72,-1
 150 103 l 1,66,-1
150 600 m 1,73,-1
 374 600 l 1,74,-1
 374 532 l 1,75,-1
 231 532 l 1,76,-1
 231 510 l 1,77,-1
 371 510 l 1,78,-1
 371 442 l 1,79,-1
 231 442 l 1,80,-1
 231 383 l 1,81,-1
 150 383 l 1,82,-1
 150 600 l 1,73,-1
395 600 m 1,83,-1
 539 600 l 2,84,85
 590 600 590 600 618 578 c 0,86,87
 644 556 644 556 644 516 c 0,88,89
 644 465 644 465 602 445 c 1,90,-1
 644 383 l 1,91,-1
 560 383 l 1,92,-1
 527 432 l 1,93,-1
 476 432 l 1,94,-1
 476 383 l 1,95,-1
 395 383 l 1,96,-1
 395 600 l 1,83,-1
920 600 m 1,97,-1
 1150 600 l 1,98,-1
 1150 538 l 1,99,-1
 1001 538 l 1,100,-1
 1001 519 l 1,101,-1
 1147 519 l 1,102,-1
 1147 463 l 1,103,-1
 1001 463 l 1,104,-1
 1001 445 l 1,105,-1
 1150 445 l 1,106,-1
 1150 383 l 1,107,-1
 920 383 l 1,108,-1
 920 600 l 1,97,-1
50 0 m 1,109,-1
 1400 0 l 1,110,-1
 1400 700 l 1,111,-1
 50 700 l 1,112,-1
 50 0 l 1,109,-1
1102 212 m 0,114,115
 1102 168 1102 168 1161 168 c 256,116,117
 1220 168 1220 168 1220 212 c 0,118,119
 1220 255 1220 255 1161 255 c 256,120,113
 1102 255 1102 255 1102 212 c 0,114,115
EndSplineSet
Validated: 9
EndChar

StartChar: numbersign
Encoding: 35 35 6
Width: 1450
GlyphClass: 2
Flags: W
LayerCount: 2
Fore
SplineSet
542 532 m 2,1,-1
 476 532 l 1,2,-1
 476 501 l 1,3,-1
 542 501 l 2,4,5
 563 501 563 501 563 516 c 0,6,0
 563 532 563 532 542 532 c 2,1,-1
231 252 m 1,7,-1
 231 171 l 1,8,-1
 278 171 l 2,9,10
 330 171 330 171 330 212 c 0,11,12
 330 252 330 252 278 252 c 2,13,-1
 231 252 l 1,7,-1
1161 100 m 256,15,16
 1092 100 1092 100 1056 129 c 0,17,18
 1021 158 1021 158 1021 212 c 0,19,20
 1021 265 1021 265 1056 294 c 0,21,22
 1092 324 1092 324 1161 324 c 256,23,24
 1230 324 1230 324 1266 294 c 0,25,26
 1301 265 1301 265 1301 212 c 0,27,28
 1301 158 1301 158 1266 129 c 0,29,14
 1230 100 1230 100 1161 100 c 256,15,16
998 103 m 1,30,-1
 917 103 l 1,31,-1
 917 202 l 1,32,-1
 843 109 l 1,33,-1
 768 202 l 1,34,-1
 768 103 l 1,35,-1
 687 103 l 1,36,-1
 687 320 l 1,37,-1
 768 320 l 1,38,-1
 843 227 l 1,39,-1
 917 320 l 1,40,-1
 998 320 l 1,41,-1
 998 103 l 1,30,-1
667 600 m 1,42,-1
 897 600 l 1,43,-1
 897 538 l 1,44,-1
 748 538 l 1,45,-1
 748 519 l 1,46,-1
 894 519 l 1,47,-1
 894 463 l 1,48,-1
 748 463 l 1,49,-1
 748 445 l 1,50,-1
 897 445 l 1,51,-1
 897 383 l 1,52,-1
 667 383 l 1,53,-1
 667 600 l 1,42,-1
664 258 m 1,54,-1
 515 258 l 1,55,-1
 515 240 l 1,56,-1
 661 240 l 1,57,-1
 661 184 l 1,58,-1
 515 184 l 1,59,-1
 515 165 l 1,60,-1
 664 165 l 1,61,-1
 664 103 l 1,62,-1
 434 103 l 1,63,-1
 434 320 l 1,64,-1
 664 320 l 1,65,-1
 664 258 l 1,54,-1
150 103 m 1,66,-1
 150 320 l 1,67,-1
 278 320 l 2,68,69
 411 320 411 320 411 212 c 0,70,71
 411 103 411 103 278 103 c 2,72,-1
 150 103 l 1,66,-1
150 600 m 1,73,-1
 374 600 l 1,74,-1
 374 532 l 1,75,-1
 231 532 l 1,76,-1
 231 510 l 1,77,-1
 371 510 l 1,78,-1
 371 442 l 1,79,-1
 231 442 l 1,80,-1
 231 383 l 1,81,-1
 150 383 l 1,82,-1
 150 600 l 1,73,-1
395 600 m 1,83,-1
 539 600 l 2,84,85
 590 600 590 600 618 578 c 0,86,87
 644 556 644 556 644 516 c 0,88,89
 644 465 644 465 602 445 c 1,90,-1
 644 383 l 1,91,-1
 560 383 l 1,92,-1
 527 432 l 1,93,-1
 476 432 l 1,94,-1
 476 383 l 1,95,-1
 395 383 l 1,96,-1
 395 600 l 1,83,-1
920 600 m 1,97,-1
 1150 600 l 1,98,-1
 1150 538 l 1,99,-1
 1001 538 l 1,100,-1
 1001 519 l 1,101,-1
 1147 519 l 1,102,-1
 1147 463 l 1,103,-1
 1001 463 l 1,104,-1
 1001 445 l 1,105,-1
 1150 445 l 1,106,-1
 1150 383 l 1,107,-1
 920 383 l 1,108,-1
 920 600 l 1,97,-1
50 0 m 1,109,-1
 1400 0 l 1,110,-1
 1400 700 l 1,111,-1
 50 700 l 1,112,-1
 50 0 l 1,109,-1
1102 212 m 0,114,115
 1102 168 1102 168 1161 168 c 256,116,117
 1220 168 1220 168 1220 212 c 0,118,119
 1220 255 1220 255 1161 255 c 256,120,113
 1102 255 1102 255 1102 212 c 0,114,115
EndSplineSet
Validated: 9
EndChar

StartChar: dollar
Encoding: 36 36 7
Width: 1450
GlyphClass: 2
Flags: W
LayerCount: 2
Fore
SplineSet
542 532 m 2,1,-1
 476 532 l 1,2,-1
 476 501 l 1,3,-1
 542 501 l 2,4,5
 563 501 563 501 563 516 c 0,6,0
 563 532 563 532 542 532 c 2,1,-1
231 252 m 1,7,-1
 231 171 l 1,8,-1
 278 171 l 2,9,10
 330 171 330 171 330 212 c 0,11,12
 330 252 330 252 278 252 c 2,13,-1
 231 252 l 1,7,-1
1161 100 m 256,15,16
 1092 100 1092 100 1056 129 c 0,17,18
 1021 158 1021 158 1021 212 c 0,19,20
 1021 265 1021 265 1056 294 c 0,21,22
 1092 324 1092 324 1161 324 c 256,23,24
 1230 324 1230 324 1266 294 c 0,25,26
 1301 265 1301 265 1301 212 c 0,27,28
 1301 158 1301 158 1266 129 c 0,29,14
 1230 100 1230 100 1161 100 c 256,15,16
998 103 m 1,30,-1
 917 103 l 1,31,-1
 917 202 l 1,32,-1
 843 109 l 1,33,-1
 768 202 l 1,34,-1
 768 103 l 1,35,-1
 687 103 l 1,36,-1
 687 320 l 1,37,-1
 768 320 l 1,38,-1
 843 227 l 1,39,-1
 917 320 l 1,40,-1
 998 320 l 1,41,-1
 998 103 l 1,30,-1
667 600 m 1,42,-1
 897 600 l 1,43,-1
 897 538 l 1,44,-1
 748 538 l 1,45,-1
 748 519 l 1,46,-1
 894 519 l 1,47,-1
 894 463 l 1,48,-1
 748 463 l 1,49,-1
 748 445 l 1,50,-1
 897 445 l 1,51,-1
 897 383 l 1,52,-1
 667 383 l 1,53,-1
 667 600 l 1,42,-1
664 258 m 1,54,-1
 515 258 l 1,55,-1
 515 240 l 1,56,-1
 661 240 l 1,57,-1
 661 184 l 1,58,-1
 515 184 l 1,59,-1
 515 165 l 1,60,-1
 664 165 l 1,61,-1
 664 103 l 1,62,-1
 434 103 l 1,63,-1
 434 320 l 1,64,-1
 664 320 l 1,65,-1
 664 258 l 1,54,-1
150 103 m 1,66,-1
 150 320 l 1,67,-1
 278 320 l 2,68,69
 411 320 411 320 411 212 c 0,70,71
 411 103 411 103 278 103 c 2,72,-1
 150 103 l 1,66,-1
150 600 m 1,73,-1
 374 600 l 1,74,-1
 374 532 l 1,75,-1
 231 532 l 1,76,-1
 231 510 l 1,77,-1
 371 510 l 1,78,-1
 371 442 l 1,79,-1
 231 442 l 1,80,-1
 231 383 l 1,81,-1
 150 383 l 1,82,-1
 150 600 l 1,73,-1
395 600 m 1,83,-1
 539 600 l 2,84,85
 590 600 590 600 618 578 c 0,86,87
 644 556 644 556 644 516 c 0,88,89
 644 465 644 465 602 445 c 1,90,-1
 644 383 l 1,91,-1
 560 383 l 1,92,-1
 527 432 l 1,93,-1
 476 432 l 1,94,-1
 476 383 l 1,95,-1
 395 383 l 1,96,-1
 395 600 l 1,83,-1
920 600 m 1,97,-1
 1150 600 l 1,98,-1
 1150 538 l 1,99,-1
 1001 538 l 1,100,-1
 1001 519 l 1,101,-1
 1147 519 l 1,102,-1
 1147 463 l 1,103,-1
 1001 463 l 1,104,-1
 1001 445 l 1,105,-1
 1150 445 l 1,106,-1
 1150 383 l 1,107,-1
 920 383 l 1,108,-1
 920 600 l 1,97,-1
50 0 m 1,109,-1
 1400 0 l 1,110,-1
 1400 700 l 1,111,-1
 50 700 l 1,112,-1
 50 0 l 1,109,-1
1102 212 m 0,114,115
 1102 168 1102 168 1161 168 c 256,116,117
 1220 168 1220 168 1220 212 c 0,118,119
 1220 255 1220 255 1161 255 c 256,120,113
 1102 255 1102 255 1102 212 c 0,114,115
EndSplineSet
Validated: 9
EndChar

StartChar: percent
Encoding: 37 37 8
Width: 1450
GlyphClass: 2
Flags: W
LayerCount: 2
Fore
SplineSet
542 532 m 2,1,-1
 476 532 l 1,2,-1
 476 501 l 1,3,-1
 542 501 l 2,4,5
 563 501 563 501 563 516 c 0,6,0
 563 532 563 532 542 532 c 2,1,-1
231 252 m 1,7,-1
 231 171 l 1,8,-1
 278 171 l 2,9,10
 330 171 330 171 330 212 c 0,11,12
 330 252 330 252 278 252 c 2,13,-1
 231 252 l 1,7,-1
1161 100 m 256,15,16
 1092 100 1092 100 1056 129 c 0,17,18
 1021 158 1021 158 1021 212 c 0,19,20
 1021 265 1021 265 1056 294 c 0,21,22
 1092 324 1092 324 1161 324 c 256,23,24
 1230 324 1230 324 1266 294 c 0,25,26
 1301 265 1301 265 1301 212 c 0,27,28
 1301 158 1301 158 1266 129 c 0,29,14
 1230 100 1230 100 1161 100 c 256,15,16
998 103 m 1,30,-1
 917 103 l 1,31,-1
 917 202 l 1,32,-1
 843 109 l 1,33,-1
 768 202 l 1,34,-1
 768 103 l 1,35,-1
 687 103 l 1,36,-1
 687 320 l 1,37,-1
 768 320 l 1,38,-1
 843 227 l 1,39,-1
 917 320 l 1,40,-1
 998 320 l 1,41,-1
 998 103 l 1,30,-1
667 600 m 1,42,-1
 897 600 l 1,43,-1
 897 538 l 1,44,-1
 748 538 l 1,45,-1
 748 519 l 1,46,-1
 894 519 l 1,47,-1
 894 463 l 1,48,-1
 748 463 l 1,49,-1
 748 445 l 1,50,-1
 897 445 l 1,51,-1
 897 383 l 1,52,-1
 667 383 l 1,53,-1
 667 600 l 1,42,-1
664 258 m 1,54,-1
 515 258 l 1,55,-1
 515 240 l 1,56,-1
 661 240 l 1,57,-1
 661 184 l 1,58,-1
 515 184 l 1,59,-1
 515 165 l 1,60,-1
 664 165 l 1,61,-1
 664 103 l 1,62,-1
 434 103 l 1,63,-1
 434 320 l 1,64,-1
 664 320 l 1,65,-1
 664 258 l 1,54,-1
150 103 m 1,66,-1
 150 320 l 1,67,-1
 278 320 l 2,68,69
 411 320 411 320 411 212 c 0,70,71
 411 103 411 103 278 103 c 2,72,-1
 150 103 l 1,66,-1
150 600 m 1,73,-1
 374 600 l 1,74,-1
 374 532 l 1,75,-1
 231 532 l 1,76,-1
 231 510 l 1,77,-1
 371 510 l 1,78,-1
 371 442 l 1,79,-1
 231 442 l 1,80,-1
 231 383 l 1,81,-1
 150 383 l 1,82,-1
 150 600 l 1,73,-1
395 600 m 1,83,-1
 539 600 l 2,84,85
 590 600 590 600 618 578 c 0,86,87
 644 556 644 556 644 516 c 0,88,89
 644 465 644 465 602 445 c 1,90,-1
 644 383 l 1,91,-1
 560 383 l 1,92,-1
 527 432 l 1,93,-1
 476 432 l 1,94,-1
 476 383 l 1,95,-1
 395 383 l 1,96,-1
 395 600 l 1,83,-1
920 600 m 1,97,-1
 1150 600 l 1,98,-1
 1150 538 l 1,99,-1
 1001 538 l 1,100,-1
 1001 519 l 1,101,-1
 1147 519 l 1,102,-1
 1147 463 l 1,103,-1
 1001 463 l 1,104,-1
 1001 445 l 1,105,-1
 1150 445 l 1,106,-1
 1150 383 l 1,107,-1
 920 383 l 1,108,-1
 920 600 l 1,97,-1
50 0 m 1,109,-1
 1400 0 l 1,110,-1
 1400 700 l 1,111,-1
 50 700 l 1,112,-1
 50 0 l 1,109,-1
1102 212 m 0,114,115
 1102 168 1102 168 1161 168 c 256,116,117
 1220 168 1220 168 1220 212 c 0,118,119
 1220 255 1220 255 1161 255 c 256,120,113
 1102 255 1102 255 1102 212 c 0,114,115
EndSplineSet
Validated: 9
EndChar

StartChar: ampersand
Encoding: 38 38 9
Width: 1450
GlyphClass: 2
Flags: W
LayerCount: 2
Fore
SplineSet
542 532 m 2,1,-1
 476 532 l 1,2,-1
 476 501 l 1,3,-1
 542 501 l 2,4,5
 563 501 563 501 563 516 c 0,6,0
 563 532 563 532 542 532 c 2,1,-1
231 252 m 1,7,-1
 231 171 l 1,8,-1
 278 171 l 2,9,10
 330 171 330 171 330 212 c 0,11,12
 330 252 330 252 278 252 c 2,13,-1
 231 252 l 1,7,-1
1161 100 m 256,15,16
 1092 100 1092 100 1056 129 c 0,17,18
 1021 158 1021 158 1021 212 c 0,19,20
 1021 265 1021 265 1056 294 c 0,21,22
 1092 324 1092 324 1161 324 c 256,23,24
 1230 324 1230 324 1266 294 c 0,25,26
 1301 265 1301 265 1301 212 c 0,27,28
 1301 158 1301 158 1266 129 c 0,29,14
 1230 100 1230 100 1161 100 c 256,15,16
998 103 m 1,30,-1
 917 103 l 1,31,-1
 917 202 l 1,32,-1
 843 109 l 1,33,-1
 768 202 l 1,34,-1
 768 103 l 1,35,-1
 687 103 l 1,36,-1
 687 320 l 1,37,-1
 768 320 l 1,38,-1
 843 227 l 1,39,-1
 917 320 l 1,40,-1
 998 320 l 1,41,-1
 998 103 l 1,30,-1
667 600 m 1,42,-1
 897 600 l 1,43,-1
 897 538 l 1,44,-1
 748 538 l 1,45,-1
 748 519 l 1,46,-1
 894 519 l 1,47,-1
 894 463 l 1,48,-1
 748 463 l 1,49,-1
 748 445 l 1,50,-1
 897 445 l 1,51,-1
 897 383 l 1,52,-1
 667 383 l 1,53,-1
 667 600 l 1,42,-1
664 258 m 1,54,-1
 515 258 l 1,55,-1
 515 240 l 1,56,-1
 661 240 l 1,57,-1
 661 184 l 1,58,-1
 515 184 l 1,59,-1
 515 165 l 1,60,-1
 664 165 l 1,61,-1
 664 103 l 1,62,-1
 434 103 l 1,63,-1
 434 320 l 1,64,-1
 664 320 l 1,65,-1
 664 258 l 1,54,-1
150 103 m 1,66,-1
 150 320 l 1,67,-1
 278 320 l 2,68,69
 411 320 411 320 411 212 c 0,70,71
 411 103 411 103 278 103 c 2,72,-1
 150 103 l 1,66,-1
150 600 m 1,73,-1
 374 600 l 1,74,-1
 374 532 l 1,75,-1
 231 532 l 1,76,-1
 231 510 l 1,77,-1
 371 510 l 1,78,-1
 371 442 l 1,79,-1
 231 442 l 1,80,-1
 231 383 l 1,81,-1
 150 383 l 1,82,-1
 150 600 l 1,73,-1
395 600 m 1,83,-1
 539 600 l 2,84,85
 590 600 590 600 618 578 c 0,86,87
 644 556 644 556 644 516 c 0,88,89
 644 465 644 465 602 445 c 1,90,-1
 644 383 l 1,91,-1
 560 383 l 1,92,-1
 527 432 l 1,93,-1
 476 432 l 1,94,-1
 476 383 l 1,95,-1
 395 383 l 1,96,-1
 395 600 l 1,83,-1
920 600 m 1,97,-1
 1150 600 l 1,98,-1
 1150 538 l 1,99,-1
 1001 538 l 1,100,-1
 1001 519 l 1,101,-1
 1147 519 l 1,102,-1
 1147 463 l 1,103,-1
 1001 463 l 1,104,-1
 1001 445 l 1,105,-1
 1150 445 l 1,106,-1
 1150 383 l 1,107,-1
 920 383 l 1,108,-1
 920 600 l 1,97,-1
50 0 m 1,109,-1
 1400 0 l 1,110,-1
 1400 700 l 1,111,-1
 50 700 l 1,112,-1
 50 0 l 1,109,-1
1102 212 m 0,114,115
 1102 168 1102 168 1161 168 c 256,116,117
 1220 168 1220 168 1220 212 c 0,118,119
 1220 255 1220 255 1161 255 c 256,120,113
 1102 255 1102 255 1102 212 c 0,114,115
EndSplineSet
Validated: 9
EndChar

StartChar: quotesingle
Encoding: 39 39 10
Width: 1450
GlyphClass: 2
Flags: W
LayerCount: 2
Fore
SplineSet
542 532 m 2,1,-1
 476 532 l 1,2,-1
 476 501 l 1,3,-1
 542 501 l 2,4,5
 563 501 563 501 563 516 c 0,6,0
 563 532 563 532 542 532 c 2,1,-1
231 252 m 1,7,-1
 231 171 l 1,8,-1
 278 171 l 2,9,10
 330 171 330 171 330 212 c 0,11,12
 330 252 330 252 278 252 c 2,13,-1
 231 252 l 1,7,-1
1161 100 m 256,15,16
 1092 100 1092 100 1056 129 c 0,17,18
 1021 158 1021 158 1021 212 c 0,19,20
 1021 265 1021 265 1056 294 c 0,21,22
 1092 324 1092 324 1161 324 c 256,23,24
 1230 324 1230 324 1266 294 c 0,25,26
 1301 265 1301 265 1301 212 c 0,27,28
 1301 158 1301 158 1266 129 c 0,29,14
 1230 100 1230 100 1161 100 c 256,15,16
998 103 m 1,30,-1
 917 103 l 1,31,-1
 917 202 l 1,32,-1
 843 109 l 1,33,-1
 768 202 l 1,34,-1
 768 103 l 1,35,-1
 687 103 l 1,36,-1
 687 320 l 1,37,-1
 768 320 l 1,38,-1
 843 227 l 1,39,-1
 917 320 l 1,40,-1
 998 320 l 1,41,-1
 998 103 l 1,30,-1
667 600 m 1,42,-1
 897 600 l 1,43,-1
 897 538 l 1,44,-1
 748 538 l 1,45,-1
 748 519 l 1,46,-1
 894 519 l 1,47,-1
 894 463 l 1,48,-1
 748 463 l 1,49,-1
 748 445 l 1,50,-1
 897 445 l 1,51,-1
 897 383 l 1,52,-1
 667 383 l 1,53,-1
 667 600 l 1,42,-1
664 258 m 1,54,-1
 515 258 l 1,55,-1
 515 240 l 1,56,-1
 661 240 l 1,57,-1
 661 184 l 1,58,-1
 515 184 l 1,59,-1
 515 165 l 1,60,-1
 664 165 l 1,61,-1
 664 103 l 1,62,-1
 434 103 l 1,63,-1
 434 320 l 1,64,-1
 664 320 l 1,65,-1
 664 258 l 1,54,-1
150 103 m 1,66,-1
 150 320 l 1,67,-1
 278 320 l 2,68,69
 411 320 411 320 411 212 c 0,70,71
 411 103 411 103 278 103 c 2,72,-1
 150 103 l 1,66,-1
150 600 m 1,73,-1
 374 600 l 1,74,-1
 374 532 l 1,75,-1
 231 532 l 1,76,-1
 231 510 l 1,77,-1
 371 510 l 1,78,-1
 371 442 l 1,79,-1
 231 442 l 1,80,-1
 231 383 l 1,81,-1
 150 383 l 1,82,-1
 150 600 l 1,73,-1
395 600 m 1,83,-1
 539 600 l 2,84,85
 590 600 590 600 618 578 c 0,86,87
 644 556 644 556 644 516 c 0,88,89
 644 465 644 465 602 445 c 1,90,-1
 644 383 l 1,91,-1
 560 383 l 1,92,-1
 527 432 l 1,93,-1
 476 432 l 1,94,-1
 476 383 l 1,95,-1
 395 383 l 1,96,-1
 395 600 l 1,83,-1
920 600 m 1,97,-1
 1150 600 l 1,98,-1
 1150 538 l 1,99,-1
 1001 538 l 1,100,-1
 1001 519 l 1,101,-1
 1147 519 l 1,102,-1
 1147 463 l 1,103,-1
 1001 463 l 1,104,-1
 1001 445 l 1,105,-1
 1150 445 l 1,106,-1
 1150 383 l 1,107,-1
 920 383 l 1,108,-1
 920 600 l 1,97,-1
50 0 m 1,109,-1
 1400 0 l 1,110,-1
 1400 700 l 1,111,-1
 50 700 l 1,112,-1
 50 0 l 1,109,-1
1102 212 m 0,114,115
 1102 168 1102 168 1161 168 c 256,116,117
 1220 168 1220 168 1220 212 c 0,118,119
 1220 255 1220 255 1161 255 c 256,120,113
 1102 255 1102 255 1102 212 c 0,114,115
EndSplineSet
Validated: 9
EndChar

StartChar: parenleft
Encoding: 40 40 11
Width: 1450
GlyphClass: 2
Flags: W
LayerCount: 2
Fore
SplineSet
542 532 m 2,1,-1
 476 532 l 1,2,-1
 476 501 l 1,3,-1
 542 501 l 2,4,5
 563 501 563 501 563 516 c 0,6,0
 563 532 563 532 542 532 c 2,1,-1
231 252 m 1,7,-1
 231 171 l 1,8,-1
 278 171 l 2,9,10
 330 171 330 171 330 212 c 0,11,12
 330 252 330 252 278 252 c 2,13,-1
 231 252 l 1,7,-1
1161 100 m 256,15,16
 1092 100 1092 100 1056 129 c 0,17,18
 1021 158 1021 158 1021 212 c 0,19,20
 1021 265 1021 265 1056 294 c 0,21,22
 1092 324 1092 324 1161 324 c 256,23,24
 1230 324 1230 324 1266 294 c 0,25,26
 1301 265 1301 265 1301 212 c 0,27,28
 1301 158 1301 158 1266 129 c 0,29,14
 1230 100 1230 100 1161 100 c 256,15,16
998 103 m 1,30,-1
 917 103 l 1,31,-1
 917 202 l 1,32,-1
 843 109 l 1,33,-1
 768 202 l 1,34,-1
 768 103 l 1,35,-1
 687 103 l 1,36,-1
 687 320 l 1,37,-1
 768 320 l 1,38,-1
 843 227 l 1,39,-1
 917 320 l 1,40,-1
 998 320 l 1,41,-1
 998 103 l 1,30,-1
667 600 m 1,42,-1
 897 600 l 1,43,-1
 897 538 l 1,44,-1
 748 538 l 1,45,-1
 748 519 l 1,46,-1
 894 519 l 1,47,-1
 894 463 l 1,48,-1
 748 463 l 1,49,-1
 748 445 l 1,50,-1
 897 445 l 1,51,-1
 897 383 l 1,52,-1
 667 383 l 1,53,-1
 667 600 l 1,42,-1
664 258 m 1,54,-1
 515 258 l 1,55,-1
 515 240 l 1,56,-1
 661 240 l 1,57,-1
 661 184 l 1,58,-1
 515 184 l 1,59,-1
 515 165 l 1,60,-1
 664 165 l 1,61,-1
 664 103 l 1,62,-1
 434 103 l 1,63,-1
 434 320 l 1,64,-1
 664 320 l 1,65,-1
 664 258 l 1,54,-1
150 103 m 1,66,-1
 150 320 l 1,67,-1
 278 320 l 2,68,69
 411 320 411 320 411 212 c 0,70,71
 411 103 411 103 278 103 c 2,72,-1
 150 103 l 1,66,-1
150 600 m 1,73,-1
 374 600 l 1,74,-1
 374 532 l 1,75,-1
 231 532 l 1,76,-1
 231 510 l 1,77,-1
 371 510 l 1,78,-1
 371 442 l 1,79,-1
 231 442 l 1,80,-1
 231 383 l 1,81,-1
 150 383 l 1,82,-1
 150 600 l 1,73,-1
395 600 m 1,83,-1
 539 600 l 2,84,85
 590 600 590 600 618 578 c 0,86,87
 644 556 644 556 644 516 c 0,88,89
 644 465 644 465 602 445 c 1,90,-1
 644 383 l 1,91,-1
 560 383 l 1,92,-1
 527 432 l 1,93,-1
 476 432 l 1,94,-1
 476 383 l 1,95,-1
 395 383 l 1,96,-1
 395 600 l 1,83,-1
920 600 m 1,97,-1
 1150 600 l 1,98,-1
 1150 538 l 1,99,-1
 1001 538 l 1,100,-1
 1001 519 l 1,101,-1
 1147 519 l 1,102,-1
 1147 463 l 1,103,-1
 1001 463 l 1,104,-1
 1001 445 l 1,105,-1
 1150 445 l 1,106,-1
 1150 383 l 1,107,-1
 920 383 l 1,108,-1
 920 600 l 1,97,-1
50 0 m 1,109,-1
 1400 0 l 1,110,-1
 1400 700 l 1,111,-1
 50 700 l 1,112,-1
 50 0 l 1,109,-1
1102 212 m 0,114,115
 1102 168 1102 168 1161 168 c 256,116,117
 1220 168 1220 168 1220 212 c 0,118,119
 1220 255 1220 255 1161 255 c 256,120,113
 1102 255 1102 255 1102 212 c 0,114,115
EndSplineSet
Validated: 9
EndChar

StartChar: parenright
Encoding: 41 41 12
Width: 1450
GlyphClass: 2
Flags: W
LayerCount: 2
Fore
SplineSet
542 532 m 2,1,-1
 476 532 l 1,2,-1
 476 501 l 1,3,-1
 542 501 l 2,4,5
 563 501 563 501 563 516 c 0,6,0
 563 532 563 532 542 532 c 2,1,-1
231 252 m 1,7,-1
 231 171 l 1,8,-1
 278 171 l 2,9,10
 330 171 330 171 330 212 c 0,11,12
 330 252 330 252 278 252 c 2,13,-1
 231 252 l 1,7,-1
1161 100 m 256,15,16
 1092 100 1092 100 1056 129 c 0,17,18
 1021 158 1021 158 1021 212 c 0,19,20
 1021 265 1021 265 1056 294 c 0,21,22
 1092 324 1092 324 1161 324 c 256,23,24
 1230 324 1230 324 1266 294 c 0,25,26
 1301 265 1301 265 1301 212 c 0,27,28
 1301 158 1301 158 1266 129 c 0,29,14
 1230 100 1230 100 1161 100 c 256,15,16
998 103 m 1,30,-1
 917 103 l 1,31,-1
 917 202 l 1,32,-1
 843 109 l 1,33,-1
 768 202 l 1,34,-1
 768 103 l 1,35,-1
 687 103 l 1,36,-1
 687 320 l 1,37,-1
 768 320 l 1,38,-1
 843 227 l 1,39,-1
 917 320 l 1,40,-1
 998 320 l 1,41,-1
 998 103 l 1,30,-1
667 600 m 1,42,-1
 897 600 l 1,43,-1
 897 538 l 1,44,-1
 748 538 l 1,45,-1
 748 519 l 1,46,-1
 894 519 l 1,47,-1
 894 463 l 1,48,-1
 748 463 l 1,49,-1
 748 445 l 1,50,-1
 897 445 l 1,51,-1
 897 383 l 1,52,-1
 667 383 l 1,53,-1
 667 600 l 1,42,-1
664 258 m 1,54,-1
 515 258 l 1,55,-1
 515 240 l 1,56,-1
 661 240 l 1,57,-1
 661 184 l 1,58,-1
 515 184 l 1,59,-1
 515 165 l 1,60,-1
 664 165 l 1,61,-1
 664 103 l 1,62,-1
 434 103 l 1,63,-1
 434 320 l 1,64,-1
 664 320 l 1,65,-1
 664 258 l 1,54,-1
150 103 m 1,66,-1
 150 320 l 1,67,-1
 278 320 l 2,68,69
 411 320 411 320 411 212 c 0,70,71
 411 103 411 103 278 103 c 2,72,-1
 150 103 l 1,66,-1
150 600 m 1,73,-1
 374 600 l 1,74,-1
 374 532 l 1,75,-1
 231 532 l 1,76,-1
 231 510 l 1,77,-1
 371 510 l 1,78,-1
 371 442 l 1,79,-1
 231 442 l 1,80,-1
 231 383 l 1,81,-1
 150 383 l 1,82,-1
 150 600 l 1,73,-1
395 600 m 1,83,-1
 539 600 l 2,84,85
 590 600 590 600 618 578 c 0,86,87
 644 556 644 556 644 516 c 0,88,89
 644 465 644 465 602 445 c 1,90,-1
 644 383 l 1,91,-1
 560 383 l 1,92,-1
 527 432 l 1,93,-1
 476 432 l 1,94,-1
 476 383 l 1,95,-1
 395 383 l 1,96,-1
 395 600 l 1,83,-1
920 600 m 1,97,-1
 1150 600 l 1,98,-1
 1150 538 l 1,99,-1
 1001 538 l 1,100,-1
 1001 519 l 1,101,-1
 1147 519 l 1,102,-1
 1147 463 l 1,103,-1
 1001 463 l 1,104,-1
 1001 445 l 1,105,-1
 1150 445 l 1,106,-1
 1150 383 l 1,107,-1
 920 383 l 1,108,-1
 920 600 l 1,97,-1
50 0 m 1,109,-1
 1400 0 l 1,110,-1
 1400 700 l 1,111,-1
 50 700 l 1,112,-1
 50 0 l 1,109,-1
1102 212 m 0,114,115
 1102 168 1102 168 1161 168 c 256,116,117
 1220 168 1220 168 1220 212 c 0,118,119
 1220 255 1220 255 1161 255 c 256,120,113
 1102 255 1102 255 1102 212 c 0,114,115
EndSplineSet
Validated: 9
EndChar

StartChar: asterisk
Encoding: 42 42 13
Width: 1450
GlyphClass: 2
Flags: W
LayerCount: 2
Fore
SplineSet
542 532 m 2,1,-1
 476 532 l 1,2,-1
 476 501 l 1,3,-1
 542 501 l 2,4,5
 563 501 563 501 563 516 c 0,6,0
 563 532 563 532 542 532 c 2,1,-1
231 252 m 1,7,-1
 231 171 l 1,8,-1
 278 171 l 2,9,10
 330 171 330 171 330 212 c 0,11,12
 330 252 330 252 278 252 c 2,13,-1
 231 252 l 1,7,-1
1161 100 m 256,15,16
 1092 100 1092 100 1056 129 c 0,17,18
 1021 158 1021 158 1021 212 c 0,19,20
 1021 265 1021 265 1056 294 c 0,21,22
 1092 324 1092 324 1161 324 c 256,23,24
 1230 324 1230 324 1266 294 c 0,25,26
 1301 265 1301 265 1301 212 c 0,27,28
 1301 158 1301 158 1266 129 c 0,29,14
 1230 100 1230 100 1161 100 c 256,15,16
998 103 m 1,30,-1
 917 103 l 1,31,-1
 917 202 l 1,32,-1
 843 109 l 1,33,-1
 768 202 l 1,34,-1
 768 103 l 1,35,-1
 687 103 l 1,36,-1
 687 320 l 1,37,-1
 768 320 l 1,38,-1
 843 227 l 1,39,-1
 917 320 l 1,40,-1
 998 320 l 1,41,-1
 998 103 l 1,30,-1
667 600 m 1,42,-1
 897 600 l 1,43,-1
 897 538 l 1,44,-1
 748 538 l 1,45,-1
 748 519 l 1,46,-1
 894 519 l 1,47,-1
 894 463 l 1,48,-1
 748 463 l 1,49,-1
 748 445 l 1,50,-1
 897 445 l 1,51,-1
 897 383 l 1,52,-1
 667 383 l 1,53,-1
 667 600 l 1,42,-1
664 258 m 1,54,-1
 515 258 l 1,55,-1
 515 240 l 1,56,-1
 661 240 l 1,57,-1
 661 184 l 1,58,-1
 515 184 l 1,59,-1
 515 165 l 1,60,-1
 664 165 l 1,61,-1
 664 103 l 1,62,-1
 434 103 l 1,63,-1
 434 320 l 1,64,-1
 664 320 l 1,65,-1
 664 258 l 1,54,-1
150 103 m 1,66,-1
 150 320 l 1,67,-1
 278 320 l 2,68,69
 411 320 411 320 411 212 c 0,70,71
 411 103 411 103 278 103 c 2,72,-1
 150 103 l 1,66,-1
150 600 m 1,73,-1
 374 600 l 1,74,-1
 374 532 l 1,75,-1
 231 532 l 1,76,-1
 231 510 l 1,77,-1
 371 510 l 1,78,-1
 371 442 l 1,79,-1
 231 442 l 1,80,-1
 231 383 l 1,81,-1
 150 383 l 1,82,-1
 150 600 l 1,73,-1
395 600 m 1,83,-1
 539 600 l 2,84,85
 590 600 590 600 618 578 c 0,86,87
 644 556 644 556 644 516 c 0,88,89
 644 465 644 465 602 445 c 1,90,-1
 644 383 l 1,91,-1
 560 383 l 1,92,-1
 527 432 l 1,93,-1
 476 432 l 1,94,-1
 476 383 l 1,95,-1
 395 383 l 1,96,-1
 395 600 l 1,83,-1
920 600 m 1,97,-1
 1150 600 l 1,98,-1
 1150 538 l 1,99,-1
 1001 538 l 1,100,-1
 1001 519 l 1,101,-1
 1147 519 l 1,102,-1
 1147 463 l 1,103,-1
 1001 463 l 1,104,-1
 1001 445 l 1,105,-1
 1150 445 l 1,106,-1
 1150 383 l 1,107,-1
 920 383 l 1,108,-1
 920 600 l 1,97,-1
50 0 m 1,109,-1
 1400 0 l 1,110,-1
 1400 700 l 1,111,-1
 50 700 l 1,112,-1
 50 0 l 1,109,-1
1102 212 m 0,114,115
 1102 168 1102 168 1161 168 c 256,116,117
 1220 168 1220 168 1220 212 c 0,118,119
 1220 255 1220 255 1161 255 c 256,120,113
 1102 255 1102 255 1102 212 c 0,114,115
EndSplineSet
Validated: 9
EndChar

StartChar: plus
Encoding: 43 43 14
Width: 1450
GlyphClass: 2
Flags: W
LayerCount: 2
Fore
SplineSet
542 532 m 2,1,-1
 476 532 l 1,2,-1
 476 501 l 1,3,-1
 542 501 l 2,4,5
 563 501 563 501 563 516 c 0,6,0
 563 532 563 532 542 532 c 2,1,-1
231 252 m 1,7,-1
 231 171 l 1,8,-1
 278 171 l 2,9,10
 330 171 330 171 330 212 c 0,11,12
 330 252 330 252 278 252 c 2,13,-1
 231 252 l 1,7,-1
1161 100 m 256,15,16
 1092 100 1092 100 1056 129 c 0,17,18
 1021 158 1021 158 1021 212 c 0,19,20
 1021 265 1021 265 1056 294 c 0,21,22
 1092 324 1092 324 1161 324 c 256,23,24
 1230 324 1230 324 1266 294 c 0,25,26
 1301 265 1301 265 1301 212 c 0,27,28
 1301 158 1301 158 1266 129 c 0,29,14
 1230 100 1230 100 1161 100 c 256,15,16
998 103 m 1,30,-1
 917 103 l 1,31,-1
 917 202 l 1,32,-1
 843 109 l 1,33,-1
 768 202 l 1,34,-1
 768 103 l 1,35,-1
 687 103 l 1,36,-1
 687 320 l 1,37,-1
 768 320 l 1,38,-1
 843 227 l 1,39,-1
 917 320 l 1,40,-1
 998 320 l 1,41,-1
 998 103 l 1,30,-1
667 600 m 1,42,-1
 897 600 l 1,43,-1
 897 538 l 1,44,-1
 748 538 l 1,45,-1
 748 519 l 1,46,-1
 894 519 l 1,47,-1
 894 463 l 1,48,-1
 748 463 l 1,49,-1
 748 445 l 1,50,-1
 897 445 l 1,51,-1
 897 383 l 1,52,-1
 667 383 l 1,53,-1
 667 600 l 1,42,-1
664 258 m 1,54,-1
 515 258 l 1,55,-1
 515 240 l 1,56,-1
 661 240 l 1,57,-1
 661 184 l 1,58,-1
 515 184 l 1,59,-1
 515 165 l 1,60,-1
 664 165 l 1,61,-1
 664 103 l 1,62,-1
 434 103 l 1,63,-1
 434 320 l 1,64,-1
 664 320 l 1,65,-1
 664 258 l 1,54,-1
150 103 m 1,66,-1
 150 320 l 1,67,-1
 278 320 l 2,68,69
 411 320 411 320 411 212 c 0,70,71
 411 103 411 103 278 103 c 2,72,-1
 150 103 l 1,66,-1
150 600 m 1,73,-1
 374 600 l 1,74,-1
 374 532 l 1,75,-1
 231 532 l 1,76,-1
 231 510 l 1,77,-1
 371 510 l 1,78,-1
 371 442 l 1,79,-1
 231 442 l 1,80,-1
 231 383 l 1,81,-1
 150 383 l 1,82,-1
 150 600 l 1,73,-1
395 600 m 1,83,-1
 539 600 l 2,84,85
 590 600 590 600 618 578 c 0,86,87
 644 556 644 556 644 516 c 0,88,89
 644 465 644 465 602 445 c 1,90,-1
 644 383 l 1,91,-1
 560 383 l 1,92,-1
 527 432 l 1,93,-1
 476 432 l 1,94,-1
 476 383 l 1,95,-1
 395 383 l 1,96,-1
 395 600 l 1,83,-1
920 600 m 1,97,-1
 1150 600 l 1,98,-1
 1150 538 l 1,99,-1
 1001 538 l 1,100,-1
 1001 519 l 1,101,-1
 1147 519 l 1,102,-1
 1147 463 l 1,103,-1
 1001 463 l 1,104,-1
 1001 445 l 1,105,-1
 1150 445 l 1,106,-1
 1150 383 l 1,107,-1
 920 383 l 1,108,-1
 920 600 l 1,97,-1
50 0 m 1,109,-1
 1400 0 l 1,110,-1
 1400 700 l 1,111,-1
 50 700 l 1,112,-1
 50 0 l 1,109,-1
1102 212 m 0,114,115
 1102 168 1102 168 1161 168 c 256,116,117
 1220 168 1220 168 1220 212 c 0,118,119
 1220 255 1220 255 1161 255 c 256,120,113
 1102 255 1102 255 1102 212 c 0,114,115
EndSplineSet
Validated: 9
EndChar

StartChar: comma
Encoding: 44 44 15
Width: 1450
GlyphClass: 2
Flags: W
LayerCount: 2
Fore
SplineSet
542 532 m 2,1,-1
 476 532 l 1,2,-1
 476 501 l 1,3,-1
 542 501 l 2,4,5
 563 501 563 501 563 516 c 0,6,0
 563 532 563 532 542 532 c 2,1,-1
231 252 m 1,7,-1
 231 171 l 1,8,-1
 278 171 l 2,9,10
 330 171 330 171 330 212 c 0,11,12
 330 252 330 252 278 252 c 2,13,-1
 231 252 l 1,7,-1
1161 100 m 256,15,16
 1092 100 1092 100 1056 129 c 0,17,18
 1021 158 1021 158 1021 212 c 0,19,20
 1021 265 1021 265 1056 294 c 0,21,22
 1092 324 1092 324 1161 324 c 256,23,24
 1230 324 1230 324 1266 294 c 0,25,26
 1301 265 1301 265 1301 212 c 0,27,28
 1301 158 1301 158 1266 129 c 0,29,14
 1230 100 1230 100 1161 100 c 256,15,16
998 103 m 1,30,-1
 917 103 l 1,31,-1
 917 202 l 1,32,-1
 843 109 l 1,33,-1
 768 202 l 1,34,-1
 768 103 l 1,35,-1
 687 103 l 1,36,-1
 687 320 l 1,37,-1
 768 320 l 1,38,-1
 843 227 l 1,39,-1
 917 320 l 1,40,-1
 998 320 l 1,41,-1
 998 103 l 1,30,-1
667 600 m 1,42,-1
 897 600 l 1,43,-1
 897 538 l 1,44,-1
 748 538 l 1,45,-1
 748 519 l 1,46,-1
 894 519 l 1,47,-1
 894 463 l 1,48,-1
 748 463 l 1,49,-1
 748 445 l 1,50,-1
 897 445 l 1,51,-1
 897 383 l 1,52,-1
 667 383 l 1,53,-1
 667 600 l 1,42,-1
664 258 m 1,54,-1
 515 258 l 1,55,-1
 515 240 l 1,56,-1
 661 240 l 1,57,-1
 661 184 l 1,58,-1
 515 184 l 1,59,-1
 515 165 l 1,60,-1
 664 165 l 1,61,-1
 664 103 l 1,62,-1
 434 103 l 1,63,-1
 434 320 l 1,64,-1
 664 320 l 1,65,-1
 664 258 l 1,54,-1
150 103 m 1,66,-1
 150 320 l 1,67,-1
 278 320 l 2,68,69
 411 320 411 320 411 212 c 0,70,71
 411 103 411 103 278 103 c 2,72,-1
 150 103 l 1,66,-1
150 600 m 1,73,-1
 374 600 l 1,74,-1
 374 532 l 1,75,-1
 231 532 l 1,76,-1
 231 510 l 1,77,-1
 371 510 l 1,78,-1
 371 442 l 1,79,-1
 231 442 l 1,80,-1
 231 383 l 1,81,-1
 150 383 l 1,82,-1
 150 600 l 1,73,-1
395 600 m 1,83,-1
 539 600 l 2,84,85
 590 600 590 600 618 578 c 0,86,87
 644 556 644 556 644 516 c 0,88,89
 644 465 644 465 602 445 c 1,90,-1
 644 383 l 1,91,-1
 560 383 l 1,92,-1
 527 432 l 1,93,-1
 476 432 l 1,94,-1
 476 383 l 1,95,-1
 395 383 l 1,96,-1
 395 600 l 1,83,-1
920 600 m 1,97,-1
 1150 600 l 1,98,-1
 1150 538 l 1,99,-1
 1001 538 l 1,100,-1
 1001 519 l 1,101,-1
 1147 519 l 1,102,-1
 1147 463 l 1,103,-1
 1001 463 l 1,104,-1
 1001 445 l 1,105,-1
 1150 445 l 1,106,-1
 1150 383 l 1,107,-1
 920 383 l 1,108,-1
 920 600 l 1,97,-1
50 0 m 1,109,-1
 1400 0 l 1,110,-1
 1400 700 l 1,111,-1
 50 700 l 1,112,-1
 50 0 l 1,109,-1
1102 212 m 0,114,115
 1102 168 1102 168 1161 168 c 256,116,117
 1220 168 1220 168 1220 212 c 0,118,119
 1220 255 1220 255 1161 255 c 256,120,113
 1102 255 1102 255 1102 212 c 0,114,115
EndSplineSet
Validated: 9
EndChar

StartChar: hyphen
Encoding: 45 45 16
Width: 1450
GlyphClass: 2
Flags: W
LayerCount: 2
Fore
SplineSet
45 346 m 1,0,-1
 1395 346 l 1,1,-1
 1397 474 l 1,2,-1
 47 474 l 1,3,-1
 45 346 l 1,0,-1
EndSplineSet
Validated: 9
EndChar

StartChar: period
Encoding: 46 46 17
Width: 1450
GlyphClass: 2
Flags: W
LayerCount: 2
Fore
SplineSet
542 532 m 6,1,-1
 476 532 l 5,2,-1
 476 501 l 5,3,-1
 542 501 l 6,4,5
 563 501 563 501 563 516 c 4,6,0
 563 532 563 532 542 532 c 6,1,-1
231 252 m 5,7,-1
 231 171 l 5,8,-1
 278 171 l 6,9,10
 330 171 330 171 330 212 c 4,11,12
 330 252 330 252 278 252 c 6,13,-1
 231 252 l 5,7,-1
1161 100 m 260,15,16
 1092 100 1092 100 1056 129 c 4,17,18
 1021 158 1021 158 1021 212 c 4,19,20
 1021 265 1021 265 1056 294 c 4,21,22
 1092 324 1092 324 1161 324 c 260,23,24
 1230 324 1230 324 1266 294 c 4,25,26
 1301 265 1301 265 1301 212 c 4,27,28
 1301 158 1301 158 1266 129 c 4,29,14
 1230 100 1230 100 1161 100 c 260,15,16
998 103 m 5,30,-1
 917 103 l 5,31,-1
 917 202 l 5,32,-1
 843 109 l 5,33,-1
 768 202 l 5,34,-1
 768 103 l 5,35,-1
 687 103 l 5,36,-1
 687 320 l 5,37,-1
 768 320 l 5,38,-1
 843 227 l 5,39,-1
 917 320 l 5,40,-1
 998 320 l 5,41,-1
 998 103 l 5,30,-1
667 600 m 5,42,-1
 897 600 l 5,43,-1
 897 538 l 5,44,-1
 748 538 l 5,45,-1
 748 519 l 5,46,-1
 894 519 l 5,47,-1
 894 463 l 5,48,-1
 748 463 l 5,49,-1
 748 445 l 5,50,-1
 897 445 l 5,51,-1
 897 383 l 5,52,-1
 667 383 l 5,53,-1
 667 600 l 5,42,-1
664 258 m 5,54,-1
 515 258 l 5,55,-1
 515 240 l 5,56,-1
 661 240 l 5,57,-1
 661 184 l 5,58,-1
 515 184 l 5,59,-1
 515 165 l 5,60,-1
 664 165 l 5,61,-1
 664 103 l 5,62,-1
 434 103 l 5,63,-1
 434 320 l 5,64,-1
 664 320 l 5,65,-1
 664 258 l 5,54,-1
150 103 m 5,66,-1
 150 320 l 5,67,-1
 278 320 l 6,68,69
 411 320 411 320 411 212 c 4,70,71
 411 103 411 103 278 103 c 6,72,-1
 150 103 l 5,66,-1
150 600 m 5,73,-1
 374 600 l 5,74,-1
 374 532 l 5,75,-1
 231 532 l 5,76,-1
 231 510 l 5,77,-1
 371 510 l 5,78,-1
 371 442 l 5,79,-1
 231 442 l 5,80,-1
 231 383 l 5,81,-1
 150 383 l 5,82,-1
 150 600 l 5,73,-1
395 600 m 5,83,-1
 539 600 l 6,84,85
 590 600 590 600 618 578 c 4,86,87
 644 556 644 556 644 516 c 4,88,89
 644 465 644 465 602 445 c 5,90,-1
 644 383 l 5,91,-1
 560 383 l 5,92,-1
 527 432 l 5,93,-1
 476 432 l 5,94,-1
 476 383 l 5,95,-1
 395 383 l 5,96,-1
 395 600 l 5,83,-1
920 600 m 5,97,-1
 1150 600 l 5,98,-1
 1150 538 l 5,99,-1
 1001 538 l 5,100,-1
 1001 519 l 5,101,-1
 1147 519 l 5,102,-1
 1147 463 l 5,103,-1
 1001 463 l 5,104,-1
 1001 445 l 5,105,-1
 1150 445 l 5,106,-1
 1150 383 l 5,107,-1
 920 383 l 5,108,-1
 920 600 l 5,97,-1
50 0 m 5,109,-1
 1400 0 l 5,110,-1
 1400 700 l 5,111,-1
 50 700 l 5,112,-1
 50 0 l 5,109,-1
1102 212 m 4,114,115
 1102 168 1102 168 1161 168 c 260,116,117
 1220 168 1220 168 1220 212 c 4,118,119
 1220 255 1220 255 1161 255 c 260,120,113
 1102 255 1102 255 1102 212 c 4,114,115
EndSplineSet
Validated: 9
EndChar

StartChar: slash
Encoding: 47 47 18
Width: 1450
GlyphClass: 2
Flags: W
LayerCount: 2
Fore
SplineSet
542 532 m 2,1,-1
 476 532 l 1,2,-1
 476 501 l 1,3,-1
 542 501 l 2,4,5
 563 501 563 501 563 516 c 0,6,0
 563 532 563 532 542 532 c 2,1,-1
231 252 m 1,7,-1
 231 171 l 1,8,-1
 278 171 l 2,9,10
 330 171 330 171 330 212 c 0,11,12
 330 252 330 252 278 252 c 2,13,-1
 231 252 l 1,7,-1
1161 100 m 256,15,16
 1092 100 1092 100 1056 129 c 0,17,18
 1021 158 1021 158 1021 212 c 0,19,20
 1021 265 1021 265 1056 294 c 0,21,22
 1092 324 1092 324 1161 324 c 256,23,24
 1230 324 1230 324 1266 294 c 0,25,26
 1301 265 1301 265 1301 212 c 0,27,28
 1301 158 1301 158 1266 129 c 0,29,14
 1230 100 1230 100 1161 100 c 256,15,16
998 103 m 1,30,-1
 917 103 l 1,31,-1
 917 202 l 1,32,-1
 843 109 l 1,33,-1
 768 202 l 1,34,-1
 768 103 l 1,35,-1
 687 103 l 1,36,-1
 687 320 l 1,37,-1
 768 320 l 1,38,-1
 843 227 l 1,39,-1
 917 320 l 1,40,-1
 998 320 l 1,41,-1
 998 103 l 1,30,-1
667 600 m 1,42,-1
 897 600 l 1,43,-1
 897 538 l 1,44,-1
 748 538 l 1,45,-1
 748 519 l 1,46,-1
 894 519 l 1,47,-1
 894 463 l 1,48,-1
 748 463 l 1,49,-1
 748 445 l 1,50,-1
 897 445 l 1,51,-1
 897 383 l 1,52,-1
 667 383 l 1,53,-1
 667 600 l 1,42,-1
664 258 m 1,54,-1
 515 258 l 1,55,-1
 515 240 l 1,56,-1
 661 240 l 1,57,-1
 661 184 l 1,58,-1
 515 184 l 1,59,-1
 515 165 l 1,60,-1
 664 165 l 1,61,-1
 664 103 l 1,62,-1
 434 103 l 1,63,-1
 434 320 l 1,64,-1
 664 320 l 1,65,-1
 664 258 l 1,54,-1
150 103 m 1,66,-1
 150 320 l 1,67,-1
 278 320 l 2,68,69
 411 320 411 320 411 212 c 0,70,71
 411 103 411 103 278 103 c 2,72,-1
 150 103 l 1,66,-1
150 600 m 1,73,-1
 374 600 l 1,74,-1
 374 532 l 1,75,-1
 231 532 l 1,76,-1
 231 510 l 1,77,-1
 371 510 l 1,78,-1
 371 442 l 1,79,-1
 231 442 l 1,80,-1
 231 383 l 1,81,-1
 150 383 l 1,82,-1
 150 600 l 1,73,-1
395 600 m 1,83,-1
 539 600 l 2,84,85
 590 600 590 600 618 578 c 0,86,87
 644 556 644 556 644 516 c 0,88,89
 644 465 644 465 602 445 c 1,90,-1
 644 383 l 1,91,-1
 560 383 l 1,92,-1
 527 432 l 1,93,-1
 476 432 l 1,94,-1
 476 383 l 1,95,-1
 395 383 l 1,96,-1
 395 600 l 1,83,-1
920 600 m 1,97,-1
 1150 600 l 1,98,-1
 1150 538 l 1,99,-1
 1001 538 l 1,100,-1
 1001 519 l 1,101,-1
 1147 519 l 1,102,-1
 1147 463 l 1,103,-1
 1001 463 l 1,104,-1
 1001 445 l 1,105,-1
 1150 445 l 1,106,-1
 1150 383 l 1,107,-1
 920 383 l 1,108,-1
 920 600 l 1,97,-1
50 0 m 1,109,-1
 1400 0 l 1,110,-1
 1400 700 l 1,111,-1
 50 700 l 1,112,-1
 50 0 l 1,109,-1
1102 212 m 0,114,115
 1102 168 1102 168 1161 168 c 256,116,117
 1220 168 1220 168 1220 212 c 0,118,119
 1220 255 1220 255 1161 255 c 256,120,113
 1102 255 1102 255 1102 212 c 0,114,115
EndSplineSet
Validated: 9
Substitution2: "'frac' Diagonal Fractions lookup 4 subtable" fraction
Substitution2: "'aalt' Access All Alternates lookup 0 subtable" fraction
EndChar

StartChar: zero
Encoding: 48 48 19
Width: 870
GlyphClass: 2
Flags: WO
LayerCount: 2
Fore
SplineSet
285 350 m 256,1,2
 285 490 285 490 435 490 c 256,3,4
 585 490 585 490 585 350 c 256,5,6
 585 210 585 210 435 210 c 256,7,0
 285 210 285 210 285 350 c 256,1,2
128 615 m 0,9,10
 25 522 25 522 25 350 c 256,11,12
 25 178 25 178 128 85 c 0,13,14
 234 -10 234 -10 435 -10 c 256,15,16
 636 -10 636 -10 742 85 c 0,17,18
 845 178 845 178 845 350 c 256,19,20
 845 522 845 522 742 615 c 0,21,22
 636 710 636 710 435 710 c 256,23,8
 234 710 234 710 128 615 c 0,9,10
EndSplineSet
Validated: 9
Substitution2: "'sups' Superscript lookup 10 subtable" zero.sups
Substitution2: "'sinf' Scientific Inferiors lookup 9 subtable" zero.sinf
Substitution2: "'numr' Numerators lookup 5 subtable" zero.numr
Substitution2: "'dnom' Denominators lookup 3 subtable" zero.dnom
AlternateSubs2: "'aalt' Access All Alternates lookup 1 subtable" zero.sinf zero.sups zero.numr zero.dnom
EndChar

StartChar: one
Encoding: 49 49 20
Width: 520
GlyphClass: 2
Flags: W
LayerCount: 2
Fore
SplineSet
210 700 m 1,0,-1
 10 580 l 1,1,-1
 10 330 l 1,2,-1
 210 450 l 1,3,-1
 210 0 l 1,4,-1
 470 0 l 1,5,-1
 470 700 l 1,6,-1
 210 700 l 1,0,-1
EndSplineSet
Validated: 9
Substitution2: "'sups' Superscript lookup 10 subtable" one.sups
Substitution2: "'sinf' Scientific Inferiors lookup 9 subtable" one.sinf
Substitution2: "'numr' Numerators lookup 5 subtable" one.numr
Substitution2: "'dnom' Denominators lookup 3 subtable" one.dnom
AlternateSubs2: "'aalt' Access All Alternates lookup 1 subtable" one.sinf one.sups one.numr one.dnom
EndChar

StartChar: two
Encoding: 50 50 21
Width: 870
GlyphClass: 2
Flags: W
LayerCount: 2
Fore
SplineSet
757 653 m 0,1,2
 663 710 663 710 434 710 c 0,3,4
 204 710 204 710 117 641 c 0,5,6
 40 579 40 579 40 425 c 1,7,-1
 300 425 l 1,8,9
 300 471 300 471 333 491 c 0,10,11
 364 510 364 510 434 510 c 0,12,13
 531 510 531 510 560 494 c 0,14,15
 572 487 572 487 575 477 c 2,16,-1
 577 468 l 1,17,-1
 577 458 l 2,18,19
 577 440 577 440 556 427 c 0,20,21
 530 411 530 411 434 375 c 0,22,23
 273 314 273 314 40 220 c 1,24,-1
 40 0 l 1,25,-1
 820 0 l 1,26,-1
 820 220 l 1,27,-1
 464 220 l 1,28,29
 697 284 697 284 766 332 c 0,30,31
 840 383 840 383 840 489 c 0,32,0
 840 602 840 602 757 653 c 0,1,2
EndSplineSet
Validated: 9
Substitution2: "'sups' Superscript lookup 10 subtable" two.sups
Substitution2: "'sinf' Scientific Inferiors lookup 9 subtable" two.sinf
Substitution2: "'numr' Numerators lookup 5 subtable" two.numr
Substitution2: "'dnom' Denominators lookup 3 subtable" two.dnom
AlternateSubs2: "'aalt' Access All Alternates lookup 1 subtable" two.sinf two.sups two.numr two.dnom
EndChar

StartChar: three
Encoding: 51 51 22
Width: 890
GlyphClass: 2
Flags: W
LayerCount: 2
Fore
SplineSet
833 413 m 0,1,2
 854 447 854 447 854 509 c 0,3,4
 854 618 854 618 766 663 c 0,5,6
 673 710 673 710 439 710 c 0,7,8
 209 710 209 710 117 643 c 0,9,10
 35 583 35 583 35 445 c 1,11,-1
 295 445 l 1,12,13
 295 487 295 487 320 498 c 0,14,15
 346 510 346 510 439 510 c 0,16,17
 540 510 540 510 570 502 c 0,18,19
 592 496 592 496 592 478 c 256,20,21
 592 460 592 460 567 453 c 0,22,23
 535 445 535 445 435 445 c 2,24,-1
 367 445 l 1,25,-1
 367 265 l 1,26,-1
 435 265 l 2,27,28
 537 265 537 265 573 254 c 0,29,30
 600 246 600 246 600 227 c 256,31,32
 600 208 600 208 578 200 c 0,33,34
 545 190 545 190 445 190 c 0,35,36
 340 190 340 190 312 202 c 0,37,38
 285 213 285 213 285 255 c 1,39,-1
 25 255 l 1,40,41
 25 118 25 118 114 57 c 0,42,43
 211 -10 211 -10 445 -10 c 0,44,45
 681 -10 681 -10 776 40 c 0,46,47
 865 87 865 87 865 196 c 0,48,49
 865 260 865 260 841 296 c 0,50,51
 816 335 816 335 754 355 c 1,52,0
 810 375 810 375 833 413 c 0,1,2
EndSplineSet
Validated: 9
Substitution2: "'sups' Superscript lookup 10 subtable" three.sups
Substitution2: "'sinf' Scientific Inferiors lookup 9 subtable" three.sinf
Substitution2: "'numr' Numerators lookup 5 subtable" three.numr
Substitution2: "'dnom' Denominators lookup 3 subtable" three.dnom
AlternateSubs2: "'aalt' Access All Alternates lookup 1 subtable" three.sinf three.sups three.numr three.dnom
EndChar

StartChar: four
Encoding: 52 52 23
Width: 890
GlyphClass: 2
Flags: W
LayerCount: 2
Fore
SplineSet
320 700 m 1,0,-1
 20 320 l 1,1,-1
 20 100 l 1,2,-1
 520 100 l 1,3,-1
 520 0 l 1,4,-1
 780 0 l 1,5,-1
 780 100 l 1,6,-1
 880 100 l 1,7,-1
 880 320 l 1,8,-1
 780 320 l 1,9,-1
 780 460 l 1,10,-1
 520 460 l 1,11,-1
 520 320 l 1,12,-1
 330 320 l 1,13,-1
 630 700 l 1,14,-1
 320 700 l 1,0,-1
EndSplineSet
Validated: 9
Substitution2: "'sups' Superscript lookup 10 subtable" four.sups
Substitution2: "'sinf' Scientific Inferiors lookup 9 subtable" four.sinf
Substitution2: "'numr' Numerators lookup 5 subtable" four.numr
Substitution2: "'dnom' Denominators lookup 3 subtable" four.dnom
AlternateSubs2: "'aalt' Access All Alternates lookup 1 subtable" four.sinf four.sups four.numr four.dnom
EndChar

StartChar: five
Encoding: 53 53 24
Width: 845
GlyphClass: 2
Flags: W
LayerCount: 2
Fore
SplineSet
307 427 m 1,1,-1
 319 500 l 1,2,-1
 780 500 l 1,3,-1
 780 700 l 1,4,-1
 90 700 l 1,5,-1
 30 320 l 1,6,-1
 290 320 l 1,7,8
 294 327 294 327 301 333 c 0,9,10
 309 340 309 340 323 346 c 0,11,12
 358 360 358 360 420 360 c 0,13,14
 560 360 560 360 560 275 c 256,15,16
 560 190 560 190 420 190 c 256,17,18
 280 190 280 190 280 260 c 1,19,-1
 20 260 l 1,20,21
 20 125 20 125 110 60 c 0,22,23
 207 -10 207 -10 420 -10 c 0,24,25
 616 -10 616 -10 719 52 c 0,26,27
 820 113 820 113 820 225 c 256,28,29
 820 337 820 337 742 398 c 0,30,31
 662 460 662 460 509 460 c 0,32,0
 382 460 382 460 307 427 c 1,1,-1
EndSplineSet
Validated: 9
Substitution2: "'sups' Superscript lookup 10 subtable" five.sups
Substitution2: "'sinf' Scientific Inferiors lookup 9 subtable" five.sinf
Substitution2: "'numr' Numerators lookup 5 subtable" five.numr
Substitution2: "'dnom' Denominators lookup 3 subtable" five.dnom
AlternateSubs2: "'aalt' Access All Alternates lookup 1 subtable" five.sinf five.sups five.numr five.dnom
EndChar

StartChar: six
Encoding: 54 54 25
Width: 850
GlyphClass: 2
Flags: W
LayerCount: 2
Fore
SplineSet
265 270 m 256,1,2
 265 350 265 350 425 350 c 256,3,4
 585 350 585 350 585 270 c 256,5,6
 585 190 585 190 425 190 c 256,7,0
 265 190 265 190 265 270 c 256,1,2
270 421 m 1,9,10
 295 520 295 520 485 520 c 0,11,12
 647 520 647 520 765 490 c 1,13,-1
 765 680 l 1,14,15
 632 710 632 710 465 710 c 0,16,17
 25 710 25 710 25 330 c 0,18,19
 25 -10 25 -10 425 -10 c 0,20,21
 627 -10 627 -10 725 52 c 0,22,23
 825 115 825 115 825 250 c 0,24,25
 825 349 825 349 739 408 c 0,26,27
 650 470 650 470 494 470 c 0,28,8
 351 470 351 470 270 421 c 1,9,10
EndSplineSet
Validated: 9
Substitution2: "'sups' Superscript lookup 10 subtable" six.sups
Substitution2: "'sinf' Scientific Inferiors lookup 9 subtable" six.sinf
Substitution2: "'numr' Numerators lookup 5 subtable" six.numr
Substitution2: "'dnom' Denominators lookup 3 subtable" six.dnom
AlternateSubs2: "'aalt' Access All Alternates lookup 1 subtable" six.sinf six.sups six.numr six.dnom
EndChar

StartChar: seven
Encoding: 55 55 26
Width: 790
GlyphClass: 2
Flags: W
LayerCount: 2
Fore
SplineSet
10 700 m 1,0,-1
 10 480 l 1,1,-1
 460 480 l 1,2,-1
 110 0 l 1,3,-1
 420 0 l 1,4,-1
 770 480 l 1,5,-1
 770 700 l 1,6,-1
 10 700 l 1,0,-1
EndSplineSet
Validated: 9
Substitution2: "'sups' Superscript lookup 10 subtable" seven.sups
Substitution2: "'sinf' Scientific Inferiors lookup 9 subtable" seven.sinf
Substitution2: "'numr' Numerators lookup 5 subtable" seven.numr
Substitution2: "'dnom' Denominators lookup 3 subtable" seven.dnom
AlternateSubs2: "'aalt' Access All Alternates lookup 1 subtable" seven.sinf seven.sups seven.numr seven.dnom
EndChar

StartChar: eight
Encoding: 56 56 27
Width: 870
GlyphClass: 2
Flags: W
LayerCount: 2
Fore
SplineSet
285 250 m 256,1,2
 285 300 285 300 435 300 c 256,3,4
 585 300 585 300 585 250 c 256,5,6
 585 200 585 200 435 200 c 256,7,0
 285 200 285 200 285 250 c 256,1,2
545 480 m 256,9,10
 545 440 545 440 435 440 c 256,11,12
 325 440 325 440 325 480 c 256,13,14
 325 520 325 520 435 520 c 256,15,8
 545 520 545 520 545 480 c 256,9,10
805 510 m 0,17,18
 805 710 805 710 435 710 c 256,19,20
 65 710 65 710 65 510 c 0,21,22
 65 427 65 427 135 377 c 1,23,24
 25 321 25 321 25 210 c 0,25,26
 25 -10 25 -10 435 -10 c 256,27,28
 845 -10 845 -10 845 210 c 0,29,30
 845 321 845 321 735 377 c 1,31,16
 805 427 805 427 805 510 c 0,17,18
EndSplineSet
Validated: 9
Substitution2: "'sups' Superscript lookup 10 subtable" eight.sups
Substitution2: "'sinf' Scientific Inferiors lookup 9 subtable" eight.sinf
Substitution2: "'numr' Numerators lookup 5 subtable" eight.numr
Substitution2: "'dnom' Denominators lookup 3 subtable" eight.dnom
AlternateSubs2: "'aalt' Access All Alternates lookup 1 subtable" eight.sinf eight.sups eight.numr eight.dnom
EndChar

StartChar: nine
Encoding: 57 57 28
Width: 850
GlyphClass: 2
Flags: W
LayerCount: 2
Fore
SplineSet
585 430 m 256,1,2
 585 350 585 350 425 350 c 256,3,4
 265 350 265 350 265 430 c 256,5,6
 265 510 265 510 425 510 c 256,7,0
 585 510 585 510 585 430 c 256,1,2
580 279 m 1,9,10
 555 180 555 180 365 180 c 0,11,12
 203 180 203 180 85 210 c 1,13,-1
 85 20 l 1,14,15
 218 -10 218 -10 385 -10 c 0,16,17
 825 -10 825 -10 825 370 c 0,18,19
 825 710 825 710 425 710 c 0,20,21
 223 710 223 710 125 648 c 0,22,23
 25 584 25 584 25 450 c 0,24,25
 25 351 25 351 111 292 c 0,26,27
 200 230 200 230 356 230 c 0,28,8
 499 230 499 230 580 279 c 1,9,10
EndSplineSet
Validated: 9
Substitution2: "'sups' Superscript lookup 10 subtable" nine.sups
Substitution2: "'sinf' Scientific Inferiors lookup 9 subtable" nine.sinf
Substitution2: "'numr' Numerators lookup 5 subtable" nine.numr
Substitution2: "'dnom' Denominators lookup 3 subtable" nine.dnom
AlternateSubs2: "'aalt' Access All Alternates lookup 1 subtable" nine.sinf nine.sups nine.numr nine.dnom
EndChar

StartChar: colon
Encoding: 58 58 29
Width: 1450
GlyphClass: 2
Flags: W
LayerCount: 2
Fore
SplineSet
542 532 m 2,1,-1
 476 532 l 1,2,-1
 476 501 l 1,3,-1
 542 501 l 2,4,5
 563 501 563 501 563 516 c 0,6,0
 563 532 563 532 542 532 c 2,1,-1
231 252 m 1,7,-1
 231 171 l 1,8,-1
 278 171 l 2,9,10
 330 171 330 171 330 212 c 0,11,12
 330 252 330 252 278 252 c 2,13,-1
 231 252 l 1,7,-1
1161 100 m 256,15,16
 1092 100 1092 100 1056 129 c 0,17,18
 1021 158 1021 158 1021 212 c 0,19,20
 1021 265 1021 265 1056 294 c 0,21,22
 1092 324 1092 324 1161 324 c 256,23,24
 1230 324 1230 324 1266 294 c 0,25,26
 1301 265 1301 265 1301 212 c 0,27,28
 1301 158 1301 158 1266 129 c 0,29,14
 1230 100 1230 100 1161 100 c 256,15,16
998 103 m 1,30,-1
 917 103 l 1,31,-1
 917 202 l 1,32,-1
 843 109 l 1,33,-1
 768 202 l 1,34,-1
 768 103 l 1,35,-1
 687 103 l 1,36,-1
 687 320 l 1,37,-1
 768 320 l 1,38,-1
 843 227 l 1,39,-1
 917 320 l 1,40,-1
 998 320 l 1,41,-1
 998 103 l 1,30,-1
667 600 m 1,42,-1
 897 600 l 1,43,-1
 897 538 l 1,44,-1
 748 538 l 1,45,-1
 748 519 l 1,46,-1
 894 519 l 1,47,-1
 894 463 l 1,48,-1
 748 463 l 1,49,-1
 748 445 l 1,50,-1
 897 445 l 1,51,-1
 897 383 l 1,52,-1
 667 383 l 1,53,-1
 667 600 l 1,42,-1
664 258 m 1,54,-1
 515 258 l 1,55,-1
 515 240 l 1,56,-1
 661 240 l 1,57,-1
 661 184 l 1,58,-1
 515 184 l 1,59,-1
 515 165 l 1,60,-1
 664 165 l 1,61,-1
 664 103 l 1,62,-1
 434 103 l 1,63,-1
 434 320 l 1,64,-1
 664 320 l 1,65,-1
 664 258 l 1,54,-1
150 103 m 1,66,-1
 150 320 l 1,67,-1
 278 320 l 2,68,69
 411 320 411 320 411 212 c 0,70,71
 411 103 411 103 278 103 c 2,72,-1
 150 103 l 1,66,-1
150 600 m 1,73,-1
 374 600 l 1,74,-1
 374 532 l 1,75,-1
 231 532 l 1,76,-1
 231 510 l 1,77,-1
 371 510 l 1,78,-1
 371 442 l 1,79,-1
 231 442 l 1,80,-1
 231 383 l 1,81,-1
 150 383 l 1,82,-1
 150 600 l 1,73,-1
395 600 m 1,83,-1
 539 600 l 2,84,85
 590 600 590 600 618 578 c 0,86,87
 644 556 644 556 644 516 c 0,88,89
 644 465 644 465 602 445 c 1,90,-1
 644 383 l 1,91,-1
 560 383 l 1,92,-1
 527 432 l 1,93,-1
 476 432 l 1,94,-1
 476 383 l 1,95,-1
 395 383 l 1,96,-1
 395 600 l 1,83,-1
920 600 m 1,97,-1
 1150 600 l 1,98,-1
 1150 538 l 1,99,-1
 1001 538 l 1,100,-1
 1001 519 l 1,101,-1
 1147 519 l 1,102,-1
 1147 463 l 1,103,-1
 1001 463 l 1,104,-1
 1001 445 l 1,105,-1
 1150 445 l 1,106,-1
 1150 383 l 1,107,-1
 920 383 l 1,108,-1
 920 600 l 1,97,-1
50 0 m 1,109,-1
 1400 0 l 1,110,-1
 1400 700 l 1,111,-1
 50 700 l 1,112,-1
 50 0 l 1,109,-1
1102 212 m 0,114,115
 1102 168 1102 168 1161 168 c 256,116,117
 1220 168 1220 168 1220 212 c 0,118,119
 1220 255 1220 255 1161 255 c 256,120,113
 1102 255 1102 255 1102 212 c 0,114,115
EndSplineSet
Validated: 9
EndChar

StartChar: semicolon
Encoding: 59 59 30
Width: 1450
GlyphClass: 2
Flags: W
LayerCount: 2
Fore
SplineSet
542 532 m 2,1,-1
 476 532 l 1,2,-1
 476 501 l 1,3,-1
 542 501 l 2,4,5
 563 501 563 501 563 516 c 0,6,0
 563 532 563 532 542 532 c 2,1,-1
231 252 m 1,7,-1
 231 171 l 1,8,-1
 278 171 l 2,9,10
 330 171 330 171 330 212 c 0,11,12
 330 252 330 252 278 252 c 2,13,-1
 231 252 l 1,7,-1
1161 100 m 256,15,16
 1092 100 1092 100 1056 129 c 0,17,18
 1021 158 1021 158 1021 212 c 0,19,20
 1021 265 1021 265 1056 294 c 0,21,22
 1092 324 1092 324 1161 324 c 256,23,24
 1230 324 1230 324 1266 294 c 0,25,26
 1301 265 1301 265 1301 212 c 0,27,28
 1301 158 1301 158 1266 129 c 0,29,14
 1230 100 1230 100 1161 100 c 256,15,16
998 103 m 1,30,-1
 917 103 l 1,31,-1
 917 202 l 1,32,-1
 843 109 l 1,33,-1
 768 202 l 1,34,-1
 768 103 l 1,35,-1
 687 103 l 1,36,-1
 687 320 l 1,37,-1
 768 320 l 1,38,-1
 843 227 l 1,39,-1
 917 320 l 1,40,-1
 998 320 l 1,41,-1
 998 103 l 1,30,-1
667 600 m 1,42,-1
 897 600 l 1,43,-1
 897 538 l 1,44,-1
 748 538 l 1,45,-1
 748 519 l 1,46,-1
 894 519 l 1,47,-1
 894 463 l 1,48,-1
 748 463 l 1,49,-1
 748 445 l 1,50,-1
 897 445 l 1,51,-1
 897 383 l 1,52,-1
 667 383 l 1,53,-1
 667 600 l 1,42,-1
664 258 m 1,54,-1
 515 258 l 1,55,-1
 515 240 l 1,56,-1
 661 240 l 1,57,-1
 661 184 l 1,58,-1
 515 184 l 1,59,-1
 515 165 l 1,60,-1
 664 165 l 1,61,-1
 664 103 l 1,62,-1
 434 103 l 1,63,-1
 434 320 l 1,64,-1
 664 320 l 1,65,-1
 664 258 l 1,54,-1
150 103 m 1,66,-1
 150 320 l 1,67,-1
 278 320 l 2,68,69
 411 320 411 320 411 212 c 0,70,71
 411 103 411 103 278 103 c 2,72,-1
 150 103 l 1,66,-1
150 600 m 1,73,-1
 374 600 l 1,74,-1
 374 532 l 1,75,-1
 231 532 l 1,76,-1
 231 510 l 1,77,-1
 371 510 l 1,78,-1
 371 442 l 1,79,-1
 231 442 l 1,80,-1
 231 383 l 1,81,-1
 150 383 l 1,82,-1
 150 600 l 1,73,-1
395 600 m 1,83,-1
 539 600 l 2,84,85
 590 600 590 600 618 578 c 0,86,87
 644 556 644 556 644 516 c 0,88,89
 644 465 644 465 602 445 c 1,90,-1
 644 383 l 1,91,-1
 560 383 l 1,92,-1
 527 432 l 1,93,-1
 476 432 l 1,94,-1
 476 383 l 1,95,-1
 395 383 l 1,96,-1
 395 600 l 1,83,-1
920 600 m 1,97,-1
 1150 600 l 1,98,-1
 1150 538 l 1,99,-1
 1001 538 l 1,100,-1
 1001 519 l 1,101,-1
 1147 519 l 1,102,-1
 1147 463 l 1,103,-1
 1001 463 l 1,104,-1
 1001 445 l 1,105,-1
 1150 445 l 1,106,-1
 1150 383 l 1,107,-1
 920 383 l 1,108,-1
 920 600 l 1,97,-1
50 0 m 1,109,-1
 1400 0 l 1,110,-1
 1400 700 l 1,111,-1
 50 700 l 1,112,-1
 50 0 l 1,109,-1
1102 212 m 0,114,115
 1102 168 1102 168 1161 168 c 256,116,117
 1220 168 1220 168 1220 212 c 0,118,119
 1220 255 1220 255 1161 255 c 256,120,113
 1102 255 1102 255 1102 212 c 0,114,115
EndSplineSet
Validated: 9
EndChar

StartChar: less
Encoding: 60 60 31
Width: 1450
GlyphClass: 2
Flags: W
LayerCount: 2
Fore
SplineSet
542 532 m 2,1,-1
 476 532 l 1,2,-1
 476 501 l 1,3,-1
 542 501 l 2,4,5
 563 501 563 501 563 516 c 0,6,0
 563 532 563 532 542 532 c 2,1,-1
231 252 m 1,7,-1
 231 171 l 1,8,-1
 278 171 l 2,9,10
 330 171 330 171 330 212 c 0,11,12
 330 252 330 252 278 252 c 2,13,-1
 231 252 l 1,7,-1
1161 100 m 256,15,16
 1092 100 1092 100 1056 129 c 0,17,18
 1021 158 1021 158 1021 212 c 0,19,20
 1021 265 1021 265 1056 294 c 0,21,22
 1092 324 1092 324 1161 324 c 256,23,24
 1230 324 1230 324 1266 294 c 0,25,26
 1301 265 1301 265 1301 212 c 0,27,28
 1301 158 1301 158 1266 129 c 0,29,14
 1230 100 1230 100 1161 100 c 256,15,16
998 103 m 1,30,-1
 917 103 l 1,31,-1
 917 202 l 1,32,-1
 843 109 l 1,33,-1
 768 202 l 1,34,-1
 768 103 l 1,35,-1
 687 103 l 1,36,-1
 687 320 l 1,37,-1
 768 320 l 1,38,-1
 843 227 l 1,39,-1
 917 320 l 1,40,-1
 998 320 l 1,41,-1
 998 103 l 1,30,-1
667 600 m 1,42,-1
 897 600 l 1,43,-1
 897 538 l 1,44,-1
 748 538 l 1,45,-1
 748 519 l 1,46,-1
 894 519 l 1,47,-1
 894 463 l 1,48,-1
 748 463 l 1,49,-1
 748 445 l 1,50,-1
 897 445 l 1,51,-1
 897 383 l 1,52,-1
 667 383 l 1,53,-1
 667 600 l 1,42,-1
664 258 m 1,54,-1
 515 258 l 1,55,-1
 515 240 l 1,56,-1
 661 240 l 1,57,-1
 661 184 l 1,58,-1
 515 184 l 1,59,-1
 515 165 l 1,60,-1
 664 165 l 1,61,-1
 664 103 l 1,62,-1
 434 103 l 1,63,-1
 434 320 l 1,64,-1
 664 320 l 1,65,-1
 664 258 l 1,54,-1
150 103 m 1,66,-1
 150 320 l 1,67,-1
 278 320 l 2,68,69
 411 320 411 320 411 212 c 0,70,71
 411 103 411 103 278 103 c 2,72,-1
 150 103 l 1,66,-1
150 600 m 1,73,-1
 374 600 l 1,74,-1
 374 532 l 1,75,-1
 231 532 l 1,76,-1
 231 510 l 1,77,-1
 371 510 l 1,78,-1
 371 442 l 1,79,-1
 231 442 l 1,80,-1
 231 383 l 1,81,-1
 150 383 l 1,82,-1
 150 600 l 1,73,-1
395 600 m 1,83,-1
 539 600 l 2,84,85
 590 600 590 600 618 578 c 0,86,87
 644 556 644 556 644 516 c 0,88,89
 644 465 644 465 602 445 c 1,90,-1
 644 383 l 1,91,-1
 560 383 l 1,92,-1
 527 432 l 1,93,-1
 476 432 l 1,94,-1
 476 383 l 1,95,-1
 395 383 l 1,96,-1
 395 600 l 1,83,-1
920 600 m 1,97,-1
 1150 600 l 1,98,-1
 1150 538 l 1,99,-1
 1001 538 l 1,100,-1
 1001 519 l 1,101,-1
 1147 519 l 1,102,-1
 1147 463 l 1,103,-1
 1001 463 l 1,104,-1
 1001 445 l 1,105,-1
 1150 445 l 1,106,-1
 1150 383 l 1,107,-1
 920 383 l 1,108,-1
 920 600 l 1,97,-1
50 0 m 1,109,-1
 1400 0 l 1,110,-1
 1400 700 l 1,111,-1
 50 700 l 1,112,-1
 50 0 l 1,109,-1
1102 212 m 0,114,115
 1102 168 1102 168 1161 168 c 256,116,117
 1220 168 1220 168 1220 212 c 0,118,119
 1220 255 1220 255 1161 255 c 256,120,113
 1102 255 1102 255 1102 212 c 0,114,115
EndSplineSet
Validated: 9
EndChar

StartChar: equal
Encoding: 61 61 32
Width: 1450
GlyphClass: 2
Flags: W
LayerCount: 2
Fore
SplineSet
542 532 m 2,1,-1
 476 532 l 1,2,-1
 476 501 l 1,3,-1
 542 501 l 2,4,5
 563 501 563 501 563 516 c 0,6,0
 563 532 563 532 542 532 c 2,1,-1
231 252 m 1,7,-1
 231 171 l 1,8,-1
 278 171 l 2,9,10
 330 171 330 171 330 212 c 0,11,12
 330 252 330 252 278 252 c 2,13,-1
 231 252 l 1,7,-1
1161 100 m 256,15,16
 1092 100 1092 100 1056 129 c 0,17,18
 1021 158 1021 158 1021 212 c 0,19,20
 1021 265 1021 265 1056 294 c 0,21,22
 1092 324 1092 324 1161 324 c 256,23,24
 1230 324 1230 324 1266 294 c 0,25,26
 1301 265 1301 265 1301 212 c 0,27,28
 1301 158 1301 158 1266 129 c 0,29,14
 1230 100 1230 100 1161 100 c 256,15,16
998 103 m 1,30,-1
 917 103 l 1,31,-1
 917 202 l 1,32,-1
 843 109 l 1,33,-1
 768 202 l 1,34,-1
 768 103 l 1,35,-1
 687 103 l 1,36,-1
 687 320 l 1,37,-1
 768 320 l 1,38,-1
 843 227 l 1,39,-1
 917 320 l 1,40,-1
 998 320 l 1,41,-1
 998 103 l 1,30,-1
667 600 m 1,42,-1
 897 600 l 1,43,-1
 897 538 l 1,44,-1
 748 538 l 1,45,-1
 748 519 l 1,46,-1
 894 519 l 1,47,-1
 894 463 l 1,48,-1
 748 463 l 1,49,-1
 748 445 l 1,50,-1
 897 445 l 1,51,-1
 897 383 l 1,52,-1
 667 383 l 1,53,-1
 667 600 l 1,42,-1
664 258 m 1,54,-1
 515 258 l 1,55,-1
 515 240 l 1,56,-1
 661 240 l 1,57,-1
 661 184 l 1,58,-1
 515 184 l 1,59,-1
 515 165 l 1,60,-1
 664 165 l 1,61,-1
 664 103 l 1,62,-1
 434 103 l 1,63,-1
 434 320 l 1,64,-1
 664 320 l 1,65,-1
 664 258 l 1,54,-1
150 103 m 1,66,-1
 150 320 l 1,67,-1
 278 320 l 2,68,69
 411 320 411 320 411 212 c 0,70,71
 411 103 411 103 278 103 c 2,72,-1
 150 103 l 1,66,-1
150 600 m 1,73,-1
 374 600 l 1,74,-1
 374 532 l 1,75,-1
 231 532 l 1,76,-1
 231 510 l 1,77,-1
 371 510 l 1,78,-1
 371 442 l 1,79,-1
 231 442 l 1,80,-1
 231 383 l 1,81,-1
 150 383 l 1,82,-1
 150 600 l 1,73,-1
395 600 m 1,83,-1
 539 600 l 2,84,85
 590 600 590 600 618 578 c 0,86,87
 644 556 644 556 644 516 c 0,88,89
 644 465 644 465 602 445 c 1,90,-1
 644 383 l 1,91,-1
 560 383 l 1,92,-1
 527 432 l 1,93,-1
 476 432 l 1,94,-1
 476 383 l 1,95,-1
 395 383 l 1,96,-1
 395 600 l 1,83,-1
920 600 m 1,97,-1
 1150 600 l 1,98,-1
 1150 538 l 1,99,-1
 1001 538 l 1,100,-1
 1001 519 l 1,101,-1
 1147 519 l 1,102,-1
 1147 463 l 1,103,-1
 1001 463 l 1,104,-1
 1001 445 l 1,105,-1
 1150 445 l 1,106,-1
 1150 383 l 1,107,-1
 920 383 l 1,108,-1
 920 600 l 1,97,-1
50 0 m 1,109,-1
 1400 0 l 1,110,-1
 1400 700 l 1,111,-1
 50 700 l 1,112,-1
 50 0 l 1,109,-1
1102 212 m 0,114,115
 1102 168 1102 168 1161 168 c 256,116,117
 1220 168 1220 168 1220 212 c 0,118,119
 1220 255 1220 255 1161 255 c 256,120,113
 1102 255 1102 255 1102 212 c 0,114,115
EndSplineSet
Validated: 9
EndChar

StartChar: greater
Encoding: 62 62 33
Width: 1450
GlyphClass: 2
Flags: W
LayerCount: 2
Fore
SplineSet
542 532 m 2,1,-1
 476 532 l 1,2,-1
 476 501 l 1,3,-1
 542 501 l 2,4,5
 563 501 563 501 563 516 c 0,6,0
 563 532 563 532 542 532 c 2,1,-1
231 252 m 1,7,-1
 231 171 l 1,8,-1
 278 171 l 2,9,10
 330 171 330 171 330 212 c 0,11,12
 330 252 330 252 278 252 c 2,13,-1
 231 252 l 1,7,-1
1161 100 m 256,15,16
 1092 100 1092 100 1056 129 c 0,17,18
 1021 158 1021 158 1021 212 c 0,19,20
 1021 265 1021 265 1056 294 c 0,21,22
 1092 324 1092 324 1161 324 c 256,23,24
 1230 324 1230 324 1266 294 c 0,25,26
 1301 265 1301 265 1301 212 c 0,27,28
 1301 158 1301 158 1266 129 c 0,29,14
 1230 100 1230 100 1161 100 c 256,15,16
998 103 m 1,30,-1
 917 103 l 1,31,-1
 917 202 l 1,32,-1
 843 109 l 1,33,-1
 768 202 l 1,34,-1
 768 103 l 1,35,-1
 687 103 l 1,36,-1
 687 320 l 1,37,-1
 768 320 l 1,38,-1
 843 227 l 1,39,-1
 917 320 l 1,40,-1
 998 320 l 1,41,-1
 998 103 l 1,30,-1
667 600 m 1,42,-1
 897 600 l 1,43,-1
 897 538 l 1,44,-1
 748 538 l 1,45,-1
 748 519 l 1,46,-1
 894 519 l 1,47,-1
 894 463 l 1,48,-1
 748 463 l 1,49,-1
 748 445 l 1,50,-1
 897 445 l 1,51,-1
 897 383 l 1,52,-1
 667 383 l 1,53,-1
 667 600 l 1,42,-1
664 258 m 1,54,-1
 515 258 l 1,55,-1
 515 240 l 1,56,-1
 661 240 l 1,57,-1
 661 184 l 1,58,-1
 515 184 l 1,59,-1
 515 165 l 1,60,-1
 664 165 l 1,61,-1
 664 103 l 1,62,-1
 434 103 l 1,63,-1
 434 320 l 1,64,-1
 664 320 l 1,65,-1
 664 258 l 1,54,-1
150 103 m 1,66,-1
 150 320 l 1,67,-1
 278 320 l 2,68,69
 411 320 411 320 411 212 c 0,70,71
 411 103 411 103 278 103 c 2,72,-1
 150 103 l 1,66,-1
150 600 m 1,73,-1
 374 600 l 1,74,-1
 374 532 l 1,75,-1
 231 532 l 1,76,-1
 231 510 l 1,77,-1
 371 510 l 1,78,-1
 371 442 l 1,79,-1
 231 442 l 1,80,-1
 231 383 l 1,81,-1
 150 383 l 1,82,-1
 150 600 l 1,73,-1
395 600 m 1,83,-1
 539 600 l 2,84,85
 590 600 590 600 618 578 c 0,86,87
 644 556 644 556 644 516 c 0,88,89
 644 465 644 465 602 445 c 1,90,-1
 644 383 l 1,91,-1
 560 383 l 1,92,-1
 527 432 l 1,93,-1
 476 432 l 1,94,-1
 476 383 l 1,95,-1
 395 383 l 1,96,-1
 395 600 l 1,83,-1
920 600 m 1,97,-1
 1150 600 l 1,98,-1
 1150 538 l 1,99,-1
 1001 538 l 1,100,-1
 1001 519 l 1,101,-1
 1147 519 l 1,102,-1
 1147 463 l 1,103,-1
 1001 463 l 1,104,-1
 1001 445 l 1,105,-1
 1150 445 l 1,106,-1
 1150 383 l 1,107,-1
 920 383 l 1,108,-1
 920 600 l 1,97,-1
50 0 m 1,109,-1
 1400 0 l 1,110,-1
 1400 700 l 1,111,-1
 50 700 l 1,112,-1
 50 0 l 1,109,-1
1102 212 m 0,114,115
 1102 168 1102 168 1161 168 c 256,116,117
 1220 168 1220 168 1220 212 c 0,118,119
 1220 255 1220 255 1161 255 c 256,120,113
 1102 255 1102 255 1102 212 c 0,114,115
EndSplineSet
Validated: 9
EndChar

StartChar: question
Encoding: 63 63 34
Width: 1450
GlyphClass: 2
Flags: W
LayerCount: 2
Fore
SplineSet
542 532 m 2,1,-1
 476 532 l 1,2,-1
 476 501 l 1,3,-1
 542 501 l 2,4,5
 563 501 563 501 563 516 c 0,6,0
 563 532 563 532 542 532 c 2,1,-1
231 252 m 1,7,-1
 231 171 l 1,8,-1
 278 171 l 2,9,10
 330 171 330 171 330 212 c 0,11,12
 330 252 330 252 278 252 c 2,13,-1
 231 252 l 1,7,-1
1161 100 m 256,15,16
 1092 100 1092 100 1056 129 c 0,17,18
 1021 158 1021 158 1021 212 c 0,19,20
 1021 265 1021 265 1056 294 c 0,21,22
 1092 324 1092 324 1161 324 c 256,23,24
 1230 324 1230 324 1266 294 c 0,25,26
 1301 265 1301 265 1301 212 c 0,27,28
 1301 158 1301 158 1266 129 c 0,29,14
 1230 100 1230 100 1161 100 c 256,15,16
998 103 m 1,30,-1
 917 103 l 1,31,-1
 917 202 l 1,32,-1
 843 109 l 1,33,-1
 768 202 l 1,34,-1
 768 103 l 1,35,-1
 687 103 l 1,36,-1
 687 320 l 1,37,-1
 768 320 l 1,38,-1
 843 227 l 1,39,-1
 917 320 l 1,40,-1
 998 320 l 1,41,-1
 998 103 l 1,30,-1
667 600 m 1,42,-1
 897 600 l 1,43,-1
 897 538 l 1,44,-1
 748 538 l 1,45,-1
 748 519 l 1,46,-1
 894 519 l 1,47,-1
 894 463 l 1,48,-1
 748 463 l 1,49,-1
 748 445 l 1,50,-1
 897 445 l 1,51,-1
 897 383 l 1,52,-1
 667 383 l 1,53,-1
 667 600 l 1,42,-1
664 258 m 1,54,-1
 515 258 l 1,55,-1
 515 240 l 1,56,-1
 661 240 l 1,57,-1
 661 184 l 1,58,-1
 515 184 l 1,59,-1
 515 165 l 1,60,-1
 664 165 l 1,61,-1
 664 103 l 1,62,-1
 434 103 l 1,63,-1
 434 320 l 1,64,-1
 664 320 l 1,65,-1
 664 258 l 1,54,-1
150 103 m 1,66,-1
 150 320 l 1,67,-1
 278 320 l 2,68,69
 411 320 411 320 411 212 c 0,70,71
 411 103 411 103 278 103 c 2,72,-1
 150 103 l 1,66,-1
150 600 m 1,73,-1
 374 600 l 1,74,-1
 374 532 l 1,75,-1
 231 532 l 1,76,-1
 231 510 l 1,77,-1
 371 510 l 1,78,-1
 371 442 l 1,79,-1
 231 442 l 1,80,-1
 231 383 l 1,81,-1
 150 383 l 1,82,-1
 150 600 l 1,73,-1
395 600 m 1,83,-1
 539 600 l 2,84,85
 590 600 590 600 618 578 c 0,86,87
 644 556 644 556 644 516 c 0,88,89
 644 465 644 465 602 445 c 1,90,-1
 644 383 l 1,91,-1
 560 383 l 1,92,-1
 527 432 l 1,93,-1
 476 432 l 1,94,-1
 476 383 l 1,95,-1
 395 383 l 1,96,-1
 395 600 l 1,83,-1
920 600 m 1,97,-1
 1150 600 l 1,98,-1
 1150 538 l 1,99,-1
 1001 538 l 1,100,-1
 1001 519 l 1,101,-1
 1147 519 l 1,102,-1
 1147 463 l 1,103,-1
 1001 463 l 1,104,-1
 1001 445 l 1,105,-1
 1150 445 l 1,106,-1
 1150 383 l 1,107,-1
 920 383 l 1,108,-1
 920 600 l 1,97,-1
50 0 m 1,109,-1
 1400 0 l 1,110,-1
 1400 700 l 1,111,-1
 50 700 l 1,112,-1
 50 0 l 1,109,-1
1102 212 m 0,114,115
 1102 168 1102 168 1161 168 c 256,116,117
 1220 168 1220 168 1220 212 c 0,118,119
 1220 255 1220 255 1161 255 c 256,120,113
 1102 255 1102 255 1102 212 c 0,114,115
EndSplineSet
Validated: 9
EndChar

StartChar: at
Encoding: 64 64 35
Width: 1450
GlyphClass: 2
Flags: W
LayerCount: 2
Fore
SplineSet
542 532 m 2,1,-1
 476 532 l 1,2,-1
 476 501 l 1,3,-1
 542 501 l 2,4,5
 563 501 563 501 563 516 c 0,6,0
 563 532 563 532 542 532 c 2,1,-1
231 252 m 1,7,-1
 231 171 l 1,8,-1
 278 171 l 2,9,10
 330 171 330 171 330 212 c 0,11,12
 330 252 330 252 278 252 c 2,13,-1
 231 252 l 1,7,-1
1161 100 m 256,15,16
 1092 100 1092 100 1056 129 c 0,17,18
 1021 158 1021 158 1021 212 c 0,19,20
 1021 265 1021 265 1056 294 c 0,21,22
 1092 324 1092 324 1161 324 c 256,23,24
 1230 324 1230 324 1266 294 c 0,25,26
 1301 265 1301 265 1301 212 c 0,27,28
 1301 158 1301 158 1266 129 c 0,29,14
 1230 100 1230 100 1161 100 c 256,15,16
998 103 m 1,30,-1
 917 103 l 1,31,-1
 917 202 l 1,32,-1
 843 109 l 1,33,-1
 768 202 l 1,34,-1
 768 103 l 1,35,-1
 687 103 l 1,36,-1
 687 320 l 1,37,-1
 768 320 l 1,38,-1
 843 227 l 1,39,-1
 917 320 l 1,40,-1
 998 320 l 1,41,-1
 998 103 l 1,30,-1
667 600 m 1,42,-1
 897 600 l 1,43,-1
 897 538 l 1,44,-1
 748 538 l 1,45,-1
 748 519 l 1,46,-1
 894 519 l 1,47,-1
 894 463 l 1,48,-1
 748 463 l 1,49,-1
 748 445 l 1,50,-1
 897 445 l 1,51,-1
 897 383 l 1,52,-1
 667 383 l 1,53,-1
 667 600 l 1,42,-1
664 258 m 1,54,-1
 515 258 l 1,55,-1
 515 240 l 1,56,-1
 661 240 l 1,57,-1
 661 184 l 1,58,-1
 515 184 l 1,59,-1
 515 165 l 1,60,-1
 664 165 l 1,61,-1
 664 103 l 1,62,-1
 434 103 l 1,63,-1
 434 320 l 1,64,-1
 664 320 l 1,65,-1
 664 258 l 1,54,-1
150 103 m 1,66,-1
 150 320 l 1,67,-1
 278 320 l 2,68,69
 411 320 411 320 411 212 c 0,70,71
 411 103 411 103 278 103 c 2,72,-1
 150 103 l 1,66,-1
150 600 m 1,73,-1
 374 600 l 1,74,-1
 374 532 l 1,75,-1
 231 532 l 1,76,-1
 231 510 l 1,77,-1
 371 510 l 1,78,-1
 371 442 l 1,79,-1
 231 442 l 1,80,-1
 231 383 l 1,81,-1
 150 383 l 1,82,-1
 150 600 l 1,73,-1
395 600 m 1,83,-1
 539 600 l 2,84,85
 590 600 590 600 618 578 c 0,86,87
 644 556 644 556 644 516 c 0,88,89
 644 465 644 465 602 445 c 1,90,-1
 644 383 l 1,91,-1
 560 383 l 1,92,-1
 527 432 l 1,93,-1
 476 432 l 1,94,-1
 476 383 l 1,95,-1
 395 383 l 1,96,-1
 395 600 l 1,83,-1
920 600 m 1,97,-1
 1150 600 l 1,98,-1
 1150 538 l 1,99,-1
 1001 538 l 1,100,-1
 1001 519 l 1,101,-1
 1147 519 l 1,102,-1
 1147 463 l 1,103,-1
 1001 463 l 1,104,-1
 1001 445 l 1,105,-1
 1150 445 l 1,106,-1
 1150 383 l 1,107,-1
 920 383 l 1,108,-1
 920 600 l 1,97,-1
50 0 m 1,109,-1
 1400 0 l 1,110,-1
 1400 700 l 1,111,-1
 50 700 l 1,112,-1
 50 0 l 1,109,-1
1102 212 m 0,114,115
 1102 168 1102 168 1161 168 c 256,116,117
 1220 168 1220 168 1220 212 c 0,118,119
 1220 255 1220 255 1161 255 c 256,120,113
 1102 255 1102 255 1102 212 c 0,114,115
EndSplineSet
Validated: 9
EndChar

StartChar: A
Encoding: 65 65 36
Width: 980
GlyphClass: 2
Flags: W
AnchorPoint: "Anchor-3" 330 700 basechar 0
AnchorPoint: "Anchor-2" 557 0 basechar 0
LayerCount: 2
Fore
SplineSet
300 700 m 1,0,-1
 0 0 l 1,1,-1
 270 0 l 1,2,-1
 321 120 l 1,3,-1
 659 120 l 1,4,-1
 710 0 l 1,5,-1
 980 0 l 1,6,-1
 680 700 l 1,7,-1
 300 700 l 1,0,-1
490 513 m 1,8,-1
 581 300 l 1,9,-1
 399 300 l 1,10,-1
 490 513 l 1,8,-1
EndSplineSet
Validated: 9
Position2: "'cpsp' Capital Spacing lookup 0 subtable" dx=5 dy=0 dh=10 dv=0
EndChar

StartChar: B
Encoding: 66 66 37
Width: 875
GlyphClass: 2
Flags: W
LayerCount: 2
Fore
SplineSet
310 260 m 1,0,-1
 543 260 l 2,1,2
 590 260 590 260 590 225 c 256,3,4
 590 190 590 190 543 190 c 2,5,-1
 310 190 l 1,6,-1
 310 260 l 1,0,-1
310 510 m 1,7,-1
 513 510 l 2,8,9
 560 510 560 510 560 475 c 256,10,11
 560 440 560 440 513 440 c 2,12,-1
 310 440 l 1,13,-1
 310 510 l 1,7,-1
619 0 m 2,14,15
 732 0 732 0 792 49 c 0,16,17
 850 97 850 97 850 185 c 0,18,19
 850 324 850 324 711 359 c 1,20,21
 820 400 820 400 820 520 c 0,22,23
 820 606 820 606 764 652 c 0,24,25
 706 700 706 700 595 700 c 2,26,-1
 50 700 l 1,27,-1
 50 0 l 1,28,-1
 619 0 l 2,14,15
EndSplineSet
Validated: 9
Position2: "'cpsp' Capital Spacing lookup 0 subtable" dx=5 dy=0 dh=10 dv=0
EndChar

StartChar: C
Encoding: 67 67 38
Width: 947
GlyphClass: 2
Flags: W
AnchorPoint: "Anchor-3" 391 710 basechar 0
AnchorPoint: "Anchor-2" 391 0 basechar 0
LayerCount: 2
Fore
SplineSet
659 310 m 1,0,1
 631 210 631 210 475 210 c 0,2,3
 285 210 285 210 285 350 c 256,4,5
 285 490 285 490 475 490 c 0,6,7
 631 490 631 490 659 390 c 1,8,-1
 922 390 l 1,9,10
 908 543 908 543 797 625 c 0,11,12
 682 710 682 710 475 710 c 0,13,14
 254 710 254 710 138 615 c 0,15,16
 25 522 25 522 25 350 c 256,17,18
 25 178 25 178 138 85 c 0,19,20
 254 -10 254 -10 475 -10 c 0,21,22
 682 -10 682 -10 797 75 c 0,23,24
 908 157 908 157 922 310 c 1,25,-1
 659 310 l 1,0,1
EndSplineSet
Validated: 9
Position2: "'cpsp' Capital Spacing lookup 0 subtable" dx=5 dy=0 dh=10 dv=0
EndChar

StartChar: D
Encoding: 68 68 39
Width: 915
GlyphClass: 2
Flags: W
AnchorPoint: "Anchor-3" 330 700 basechar 0
AnchorPoint: "Anchor-2" 0 0 basechar 0
LayerCount: 2
Fore
SplineSet
310 220 m 1,0,-1
 310 480 l 1,1,-1
 463 480 l 2,2,3
 630 480 630 480 630 350 c 256,4,5
 630 220 630 220 463 220 c 2,6,-1
 310 220 l 1,0,-1
50 700 m 1,7,-1
 50 0 l 1,8,-1
 463 0 l 2,9,10
 676 0 676 0 785 93 c 0,11,12
 890 182 890 182 890 350 c 256,13,14
 890 518 890 518 785 607 c 0,15,16
 676 700 676 700 463 700 c 2,17,-1
 50 700 l 1,7,-1
EndSplineSet
Validated: 9
Position2: "'cpsp' Capital Spacing lookup 0 subtable" dx=5 dy=0 dh=10 dv=0
EndChar

StartChar: E
Encoding: 69 69 40
Width: 815
GlyphClass: 2
Flags: W
AnchorPoint: "Anchor-3" 278 700 basechar 0
AnchorPoint: "Anchor-2" 426 0 basechar 0
LayerCount: 2
Fore
SplineSet
50 700 m 1,0,-1
 50 0 l 1,1,-1
 790 0 l 1,2,-1
 790 200 l 1,3,-1
 310 200 l 1,4,-1
 310 260 l 1,5,-1
 780 260 l 1,6,-1
 780 440 l 1,7,-1
 310 440 l 1,8,-1
 310 500 l 1,9,-1
 790 500 l 1,10,-1
 790 700 l 1,11,-1
 50 700 l 1,0,-1
EndSplineSet
Validated: 9
Position2: "'cpsp' Capital Spacing lookup 0 subtable" dx=5 dy=0 dh=10 dv=0
EndChar

StartChar: F
Encoding: 70 70 41
Width: 790
GlyphClass: 2
Flags: W
LayerCount: 2
Fore
SplineSet
50 700 m 1,0,-1
 50 0 l 1,1,-1
 310 0 l 1,2,-1
 310 190 l 1,3,-1
 760 190 l 1,4,-1
 760 410 l 1,5,-1
 310 410 l 1,6,-1
 310 480 l 1,7,-1
 770 480 l 1,8,-1
 770 700 l 1,9,-1
 50 700 l 1,0,-1
EndSplineSet
Validated: 9
Position2: "'cpsp' Capital Spacing lookup 0 subtable" dx=5 dy=0 dh=10 dv=0
EndChar

StartChar: G
Encoding: 71 71 42
Width: 950
GlyphClass: 2
Flags: W
AnchorPoint: "Anchor-3" 391 710 basechar 0
AnchorPoint: "Anchor-2" 391 0 basechar 0
LayerCount: 2
Fore
SplineSet
475 410 m 1,0,-1
 475 260 l 1,1,-1
 641 260 l 1,2,3
 595 190 595 190 475 190 c 0,4,5
 285 190 285 190 285 350 c 256,6,7
 285 510 285 510 475 510 c 0,8,9
 585 510 585 510 633 450 c 1,10,-1
 912 450 l 1,11,12
 881 575 881 575 772 641 c 0,13,14
 660 710 660 710 475 710 c 0,15,16
 254 710 254 710 138 615 c 0,17,18
 25 522 25 522 25 350 c 256,19,20
 25 178 25 178 138 85 c 0,21,22
 254 -10 254 -10 475 -10 c 256,23,24
 696 -10 696 -10 812 85 c 0,25,26
 925 178 925 178 925 350 c 0,27,28
 925 372 925 372 920 410 c 1,29,-1
 475 410 l 1,0,-1
EndSplineSet
Validated: 9
Position2: "'cpsp' Capital Spacing lookup 0 subtable" dx=5 dy=0 dh=10 dv=0
EndChar

StartChar: H
Encoding: 72 72 43
Width: 960
GlyphClass: 2
Flags: W
LayerCount: 2
Fore
SplineSet
650 700 m 1,0,-1
 650 465 l 1,1,-1
 310 465 l 1,2,-1
 310 700 l 1,3,-1
 50 700 l 1,4,-1
 50 0 l 1,5,-1
 310 0 l 1,6,-1
 310 235 l 1,7,-1
 650 235 l 1,8,-1
 650 0 l 1,9,-1
 910 0 l 1,10,-1
 910 700 l 1,11,-1
 650 700 l 1,0,-1
EndSplineSet
Validated: 9
Position2: "'cpsp' Capital Spacing lookup 0 subtable" dx=5 dy=0 dh=10 dv=0
EndChar

StartChar: I
Encoding: 73 73 44
Width: 360
GlyphClass: 2
Flags: W
AnchorPoint: "Anchor-3" 150 700 basechar 0
AnchorPoint: "Anchor-2" 0 0 basechar 0
LayerCount: 2
Fore
SplineSet
50 0 m 1,0,-1
 310 0 l 1,1,-1
 310 700 l 1,2,-1
 50 700 l 1,3,-1
 50 0 l 1,0,-1
EndSplineSet
Validated: 9
Position2: "'cpsp' Capital Spacing lookup 0 subtable" dx=5 dy=0 dh=10 dv=0
EndChar

StartChar: J
Encoding: 74 74 45
Width: 895
GlyphClass: 2
Flags: W
LayerCount: 2
Fore
SplineSet
860 700 m 1,0,-1
 320 700 l 1,1,-1
 320 480 l 1,2,-1
 600 480 l 1,3,-1
 600 350 l 2,4,5
 600 210 600 210 440 210 c 256,6,7
 280 210 280 210 280 350 c 1,8,-1
 20 350 l 1,9,10
 20 178 20 178 125 85 c 0,11,12
 234 -10 234 -10 440 -10 c 256,13,14
 646 -10 646 -10 755 85 c 0,15,16
 860 178 860 178 860 350 c 2,17,-1
 860 700 l 1,0,-1
EndSplineSet
Validated: 9
Position2: "'cpsp' Capital Spacing lookup 0 subtable" dx=5 dy=0 dh=10 dv=0
EndChar

StartChar: K
Encoding: 75 75 46
Width: 950
GlyphClass: 2
Flags: W
AnchorPoint: "Anchor-3" 0 0 basechar 0
AnchorPoint: "Anchor-2" 307 0 basechar 0
LayerCount: 2
Fore
SplineSet
50 0 m 1,0,-1
 310 0 l 1,1,-1
 310 700 l 1,2,-1
 50 700 l 1,3,-1
 50 0 l 1,0,-1
640 700 m 1,4,-1
 310 350 l 1,5,-1
 640 0 l 1,6,-1
 950 0 l 1,7,-1
 620 350 l 1,8,-1
 950 700 l 1,9,-1
 640 700 l 1,4,-1
EndSplineSet
Validated: 5
Position2: "'cpsp' Capital Spacing lookup 0 subtable" dx=5 dy=0 dh=10 dv=0
EndChar

StartChar: L
Encoding: 76 76 47
Width: 720
GlyphClass: 2
Flags: W
AnchorPoint: "Anchor-3" 152 700 basechar 0
AnchorPoint: "Anchor-2" 255 0 basechar 0
LayerCount: 2
Fore
SplineSet
50 700 m 1,0,-1
 50 0 l 1,1,-1
 710 0 l 1,2,-1
 710 220 l 1,3,-1
 310 220 l 1,4,-1
 310 700 l 1,5,-1
 50 700 l 1,0,-1
EndSplineSet
Validated: 9
Position2: "'cpsp' Capital Spacing lookup 0 subtable" dx=5 dy=0 dh=10 dv=0
EndChar

StartChar: M
Encoding: 77 77 48
Width: 1100
GlyphClass: 2
Flags: W
LayerCount: 2
Fore
SplineSet
790 700 m 1,0,-1
 550 400 l 1,1,-1
 310 700 l 1,2,-1
 50 700 l 1,3,-1
 50 0 l 1,4,-1
 310 0 l 1,5,-1
 310 320 l 1,6,-1
 550 20 l 1,7,-1
 790 320 l 1,8,-1
 790 0 l 1,9,-1
 1050 0 l 1,10,-1
 1050 700 l 1,11,-1
 790 700 l 1,0,-1
EndSplineSet
Validated: 9
Position2: "'cpsp' Capital Spacing lookup 0 subtable" dx=5 dy=0 dh=10 dv=0
EndChar

StartChar: N
Encoding: 78 78 49
Width: 960
GlyphClass: 2
Flags: W
AnchorPoint: "Anchor-3" 325 700 basechar 0
AnchorPoint: "Anchor-2" 345 0 basechar 0
LayerCount: 2
Fore
SplineSet
650 700 m 1,0,-1
 650 325 l 1,1,-1
 350 700 l 1,2,-1
 50 700 l 1,3,-1
 50 0 l 1,4,-1
 310 0 l 1,5,-1
 310 375 l 1,6,-1
 610 0 l 1,7,-1
 910 0 l 1,8,-1
 910 700 l 1,9,-1
 650 700 l 1,0,-1
EndSplineSet
Validated: 9
Position2: "'cpsp' Capital Spacing lookup 0 subtable" dx=5 dy=0 dh=10 dv=0
EndChar

StartChar: O
Encoding: 79 79 50
Width: 950
GlyphClass: 2
Flags: W
AnchorPoint: "Anchor-3" 396 710 basechar 0
AnchorPoint: "Anchor-2" 0 0 basechar 0
LayerCount: 2
Fore
SplineSet
285 350 m 256,1,2
 285 490 285 490 475 490 c 256,3,4
 665 490 665 490 665 350 c 256,5,6
 665 210 665 210 475 210 c 256,7,0
 285 210 285 210 285 350 c 256,1,2
138 615 m 0,9,10
 25 522 25 522 25 350 c 256,11,12
 25 178 25 178 138 85 c 0,13,14
 254 -10 254 -10 475 -10 c 256,15,16
 696 -10 696 -10 812 85 c 0,17,18
 925 178 925 178 925 350 c 256,19,20
 925 522 925 522 812 615 c 0,21,22
 696 710 696 710 475 710 c 256,23,8
 254 710 254 710 138 615 c 0,9,10
EndSplineSet
Validated: 9
Position2: "'cpsp' Capital Spacing lookup 0 subtable" dx=5 dy=0 dh=10 dv=0
EndChar

StartChar: P
Encoding: 80 80 51
Width: 830
GlyphClass: 2
Flags: W
LayerCount: 2
Fore
SplineSet
310 480 m 1,0,-1
 482 480 l 2,1,2
 550 480 550 480 550 430 c 256,3,4
 550 380 550 380 482 380 c 2,5,-1
 310 380 l 1,6,-1
 310 480 l 1,0,-1
310 160 m 1,7,-1
 473 160 l 2,8,9
 638 160 638 160 725 232 c 0,10,11
 810 301 810 301 810 430 c 256,12,13
 810 559 810 559 725 628 c 0,14,15
 638 700 638 700 473 700 c 2,16,-1
 50 700 l 1,17,-1
 50 0 l 1,18,-1
 310 0 l 1,19,-1
 310 160 l 1,7,-1
EndSplineSet
Validated: 9
Position2: "'cpsp' Capital Spacing lookup 0 subtable" dx=5 dy=0 dh=10 dv=0
EndChar

StartChar: Q
Encoding: 81 81 52
Width: 950
GlyphClass: 2
Flags: W
LayerCount: 2
Fore
SplineSet
475 490 m 256,1,2
 665 490 665 490 665 350 c 256,3,4
 665 210 665 210 475 210 c 256,5,6
 285 210 285 210 285 350 c 256,7,0
 285 490 285 490 475 490 c 256,1,2
425 -140 m 1,8,-1
 685 -140 l 1,9,-1
 614 3 l 1,10,11
 767 30 767 30 847 120 c 0,12,13
 925 209 925 209 925 350 c 0,14,15
 925 522 925 522 812 615 c 0,16,17
 696 710 696 710 475 710 c 256,18,19
 254 710 254 710 138 615 c 0,20,21
 25 522 25 522 25 350 c 0,22,23
 25 204 25 204 108 114 c 0,24,25
 193 23 193 23 356 -1 c 1,26,-1
 425 -140 l 1,8,-1
EndSplineSet
Validated: 9
Position2: "'cpsp' Capital Spacing lookup 0 subtable" dx=5 dy=0 dh=10 dv=0
EndChar

StartChar: R
Encoding: 82 82 53
Width: 875
GlyphClass: 2
Flags: W
AnchorPoint: "Anchor-3" 290 700 basechar 0
AnchorPoint: "Anchor-2" 315 0 basechar 0
LayerCount: 2
Fore
SplineSet
310 480 m 1,0,-1
 522 480 l 2,1,2
 590 480 590 480 590 430 c 256,3,4
 590 380 590 380 522 380 c 2,5,-1
 310 380 l 1,6,-1
 310 480 l 1,0,-1
310 160 m 1,7,-1
 473 160 l 1,8,-1
 580 0 l 1,9,-1
 850 0 l 1,10,-1
 716 200 l 1,11,12
 850 267 850 267 850 430 c 0,13,14
 850 559 850 559 765 628 c 0,15,16
 678 700 678 700 513 700 c 2,17,-1
 50 700 l 1,18,-1
 50 0 l 1,19,-1
 310 0 l 1,20,-1
 310 160 l 1,7,-1
EndSplineSet
Validated: 9
Position2: "'cpsp' Capital Spacing lookup 0 subtable" dx=5 dy=0 dh=10 dv=0
EndChar

StartChar: S
Encoding: 83 83 54
Width: 910
GlyphClass: 2
Flags: W
AnchorPoint: "Anchor-3" 286 710 basechar 0
AnchorPoint: "Anchor-2" 304 0 basechar 0
LayerCount: 2
Fore
SplineSet
592 250 m 0,1,2
 614 242 614 242 614 222 c 0,3,4
 614 204 614 204 591 198 c 0,5,6
 560 190 560 190 455 190 c 0,7,8
 347 190 347 190 316 201 c 0,9,10
 285 211 285 211 285 245 c 1,11,-1
 25 245 l 1,12,13
 25 115 25 115 116 56 c 0,14,15
 217 -10 217 -10 455 -10 c 0,16,17
 692 -10 692 -10 794 50 c 0,18,19
 885 104 885 104 885 217 c 0,20,21
 885 334 885 334 806 381 c 0,22,23
 715 435 715 435 455 445 c 0,24,25
 347 449 347 449 319 455 c 0,26,27
 297 461 297 461 297 478 c 0,28,29
 297 496 297 496 319 502 c 0,30,31
 350 510 350 510 455 510 c 0,32,33
 551 510 551 510 582 499 c 0,34,35
 614 489 614 489 614 455 c 1,36,-1
 874 455 l 1,37,38
 874 586 874 586 788 644 c 0,39,40
 692 710 692 710 455 710 c 0,41,42
 217 710 217 710 116 653 c 0,43,44
 25 601 25 601 25 489 c 0,45,46
 25 372 25 372 103 327 c 0,47,48
 194 273 194 273 455 265 c 0,49,0
 559 262 559 262 592 250 c 0,1,2
EndSplineSet
Validated: 9
Position2: "'cpsp' Capital Spacing lookup 0 subtable" dx=5 dy=0 dh=10 dv=0
EndChar

StartChar: T
Encoding: 84 84 55
Width: 800
GlyphClass: 2
Flags: W
AnchorPoint: "Anchor-3" 275 700 basechar 0
AnchorPoint: "Anchor-2" 258 0 basechar 0
LayerCount: 2
Fore
SplineSet
10 700 m 1,0,-1
 10 480 l 1,1,-1
 270 480 l 1,2,-1
 270 0 l 1,3,-1
 530 0 l 1,4,-1
 530 480 l 1,5,-1
 790 480 l 1,6,-1
 790 700 l 1,7,-1
 10 700 l 1,0,-1
EndSplineSet
Validated: 9
Position2: "'cpsp' Capital Spacing lookup 0 subtable" dx=5 dy=0 dh=10 dv=0
EndChar

StartChar: U
Encoding: 85 85 56
Width: 930
GlyphClass: 2
Flags: W
AnchorPoint: "Anchor-3" 325 700 basechar 0
AnchorPoint: "Anchor-2" 0 0 basechar 0
LayerCount: 2
Fore
SplineSet
787 85 m 0,1,2
 895 178 895 178 895 350 c 2,3,-1
 895 700 l 1,4,-1
 635 700 l 1,5,-1
 635 350 l 2,6,7
 635 210 635 210 465 210 c 256,8,9
 295 210 295 210 295 350 c 2,10,-1
 295 700 l 1,11,-1
 35 700 l 1,12,-1
 35 350 l 2,13,14
 35 178 35 178 143 85 c 0,15,16
 254 -10 254 -10 465 -10 c 256,17,0
 676 -10 676 -10 787 85 c 0,1,2
EndSplineSet
Validated: 9
Position2: "'cpsp' Capital Spacing lookup 0 subtable" dx=5 dy=0 dh=10 dv=0
EndChar

StartChar: V
Encoding: 86 86 57
Width: 980
GlyphClass: 2
Flags: W
LayerCount: 2
Fore
SplineSet
710 700 m 1,0,-1
 490 187 l 1,1,-1
 270 700 l 1,2,-1
 0 700 l 1,3,-1
 300 0 l 1,4,-1
 680 0 l 1,5,-1
 980 700 l 1,6,-1
 710 700 l 1,0,-1
EndSplineSet
Validated: 9
Position2: "'cpsp' Capital Spacing lookup 0 subtable" dx=5 dy=0 dh=10 dv=0
EndChar

StartChar: W
Encoding: 87 87 58
Width: 1460
GlyphClass: 2
Flags: W
AnchorPoint: "Anchor-3" 530 700 basechar 0
AnchorPoint: "Anchor-2" 0 0 basechar 0
LayerCount: 2
Fore
SplineSet
1190 700 m 1,0,-1
 1035 248 l 1,1,-1
 880 700 l 1,2,-1
 580 700 l 1,3,-1
 425 248 l 1,4,-1
 270 700 l 1,5,-1
 0 700 l 1,6,-1
 240 0 l 1,7,-1
 590 0 l 1,8,-1
 730 408 l 1,9,-1
 870 0 l 1,10,-1
 1220 0 l 1,11,-1
 1460 700 l 1,12,-1
 1190 700 l 1,0,-1
EndSplineSet
Validated: 9
Position2: "'cpsp' Capital Spacing lookup 0 subtable" dx=5 dy=0 dh=10 dv=0
EndChar

StartChar: X
Encoding: 88 88 59
Width: 1000
GlyphClass: 2
Flags: W
LayerCount: 2
Fore
SplineSet
680 700 m 1,0,-1
 500 503 l 1,1,-1
 320 700 l 1,2,-1
 0 700 l 1,3,-1
 320 350 l 1,4,-1
 0 0 l 1,5,-1
 320 0 l 1,6,-1
 500 197 l 1,7,-1
 680 0 l 1,8,-1
 1000 0 l 1,9,-1
 680 350 l 1,10,-1
 1000 700 l 1,11,-1
 680 700 l 1,0,-1
EndSplineSet
Validated: 9
Position2: "'cpsp' Capital Spacing lookup 0 subtable" dx=5 dy=0 dh=10 dv=0
EndChar

StartChar: Y
Encoding: 89 89 60
Width: 970
GlyphClass: 2
Flags: W
AnchorPoint: "Anchor-3" 337 700 basechar 0
AnchorPoint: "Anchor-2" 0 0 basechar 0
LayerCount: 2
Fore
SplineSet
680 700 m 1,0,-1
 485 440 l 1,1,-1
 290 700 l 1,2,-1
 0 700 l 1,3,-1
 355 227 l 1,4,-1
 355 0 l 1,5,-1
 615 0 l 1,6,-1
 615 227 l 1,7,-1
 970 700 l 1,8,-1
 680 700 l 1,0,-1
EndSplineSet
Validated: 9
Position2: "'cpsp' Capital Spacing lookup 0 subtable" dx=5 dy=0 dh=10 dv=0
EndChar

StartChar: Z
Encoding: 90 90 61
Width: 840
GlyphClass: 2
Flags: W
AnchorPoint: "Anchor-3" 281 700 basechar 0
AnchorPoint: "Anchor-2" 0 0 basechar 0
LayerCount: 2
Fore
SplineSet
30 700 m 1,0,-1
 30 480 l 1,1,-1
 410 480 l 1,2,-1
 30 220 l 1,3,-1
 30 0 l 1,4,-1
 810 0 l 1,5,-1
 810 220 l 1,6,-1
 430 220 l 1,7,-1
 810 480 l 1,8,-1
 810 480 l 1,9,-1
 810 700 l 1,10,-1
 30 700 l 1,0,-1
EndSplineSet
Validated: 5
Position2: "'cpsp' Capital Spacing lookup 0 subtable" dx=5 dy=0 dh=10 dv=0
EndChar

StartChar: bracketleft
Encoding: 91 91 62
Width: 1450
GlyphClass: 2
Flags: W
LayerCount: 2
Fore
SplineSet
542 532 m 2,1,-1
 476 532 l 1,2,-1
 476 501 l 1,3,-1
 542 501 l 2,4,5
 563 501 563 501 563 516 c 0,6,0
 563 532 563 532 542 532 c 2,1,-1
231 252 m 1,7,-1
 231 171 l 1,8,-1
 278 171 l 2,9,10
 330 171 330 171 330 212 c 0,11,12
 330 252 330 252 278 252 c 2,13,-1
 231 252 l 1,7,-1
1161 100 m 256,15,16
 1092 100 1092 100 1056 129 c 0,17,18
 1021 158 1021 158 1021 212 c 0,19,20
 1021 265 1021 265 1056 294 c 0,21,22
 1092 324 1092 324 1161 324 c 256,23,24
 1230 324 1230 324 1266 294 c 0,25,26
 1301 265 1301 265 1301 212 c 0,27,28
 1301 158 1301 158 1266 129 c 0,29,14
 1230 100 1230 100 1161 100 c 256,15,16
998 103 m 1,30,-1
 917 103 l 1,31,-1
 917 202 l 1,32,-1
 843 109 l 1,33,-1
 768 202 l 1,34,-1
 768 103 l 1,35,-1
 687 103 l 1,36,-1
 687 320 l 1,37,-1
 768 320 l 1,38,-1
 843 227 l 1,39,-1
 917 320 l 1,40,-1
 998 320 l 1,41,-1
 998 103 l 1,30,-1
667 600 m 1,42,-1
 897 600 l 1,43,-1
 897 538 l 1,44,-1
 748 538 l 1,45,-1
 748 519 l 1,46,-1
 894 519 l 1,47,-1
 894 463 l 1,48,-1
 748 463 l 1,49,-1
 748 445 l 1,50,-1
 897 445 l 1,51,-1
 897 383 l 1,52,-1
 667 383 l 1,53,-1
 667 600 l 1,42,-1
664 258 m 1,54,-1
 515 258 l 1,55,-1
 515 240 l 1,56,-1
 661 240 l 1,57,-1
 661 184 l 1,58,-1
 515 184 l 1,59,-1
 515 165 l 1,60,-1
 664 165 l 1,61,-1
 664 103 l 1,62,-1
 434 103 l 1,63,-1
 434 320 l 1,64,-1
 664 320 l 1,65,-1
 664 258 l 1,54,-1
150 103 m 1,66,-1
 150 320 l 1,67,-1
 278 320 l 2,68,69
 411 320 411 320 411 212 c 0,70,71
 411 103 411 103 278 103 c 2,72,-1
 150 103 l 1,66,-1
150 600 m 1,73,-1
 374 600 l 1,74,-1
 374 532 l 1,75,-1
 231 532 l 1,76,-1
 231 510 l 1,77,-1
 371 510 l 1,78,-1
 371 442 l 1,79,-1
 231 442 l 1,80,-1
 231 383 l 1,81,-1
 150 383 l 1,82,-1
 150 600 l 1,73,-1
395 600 m 1,83,-1
 539 600 l 2,84,85
 590 600 590 600 618 578 c 0,86,87
 644 556 644 556 644 516 c 0,88,89
 644 465 644 465 602 445 c 1,90,-1
 644 383 l 1,91,-1
 560 383 l 1,92,-1
 527 432 l 1,93,-1
 476 432 l 1,94,-1
 476 383 l 1,95,-1
 395 383 l 1,96,-1
 395 600 l 1,83,-1
920 600 m 1,97,-1
 1150 600 l 1,98,-1
 1150 538 l 1,99,-1
 1001 538 l 1,100,-1
 1001 519 l 1,101,-1
 1147 519 l 1,102,-1
 1147 463 l 1,103,-1
 1001 463 l 1,104,-1
 1001 445 l 1,105,-1
 1150 445 l 1,106,-1
 1150 383 l 1,107,-1
 920 383 l 1,108,-1
 920 600 l 1,97,-1
50 0 m 1,109,-1
 1400 0 l 1,110,-1
 1400 700 l 1,111,-1
 50 700 l 1,112,-1
 50 0 l 1,109,-1
1102 212 m 0,114,115
 1102 168 1102 168 1161 168 c 256,116,117
 1220 168 1220 168 1220 212 c 0,118,119
 1220 255 1220 255 1161 255 c 256,120,113
 1102 255 1102 255 1102 212 c 0,114,115
EndSplineSet
Validated: 9
EndChar

StartChar: backslash
Encoding: 92 92 63
Width: 1450
GlyphClass: 2
Flags: W
LayerCount: 2
Fore
SplineSet
542 532 m 2,1,-1
 476 532 l 1,2,-1
 476 501 l 1,3,-1
 542 501 l 2,4,5
 563 501 563 501 563 516 c 0,6,0
 563 532 563 532 542 532 c 2,1,-1
231 252 m 1,7,-1
 231 171 l 1,8,-1
 278 171 l 2,9,10
 330 171 330 171 330 212 c 0,11,12
 330 252 330 252 278 252 c 2,13,-1
 231 252 l 1,7,-1
1161 100 m 256,15,16
 1092 100 1092 100 1056 129 c 0,17,18
 1021 158 1021 158 1021 212 c 0,19,20
 1021 265 1021 265 1056 294 c 0,21,22
 1092 324 1092 324 1161 324 c 256,23,24
 1230 324 1230 324 1266 294 c 0,25,26
 1301 265 1301 265 1301 212 c 0,27,28
 1301 158 1301 158 1266 129 c 0,29,14
 1230 100 1230 100 1161 100 c 256,15,16
998 103 m 1,30,-1
 917 103 l 1,31,-1
 917 202 l 1,32,-1
 843 109 l 1,33,-1
 768 202 l 1,34,-1
 768 103 l 1,35,-1
 687 103 l 1,36,-1
 687 320 l 1,37,-1
 768 320 l 1,38,-1
 843 227 l 1,39,-1
 917 320 l 1,40,-1
 998 320 l 1,41,-1
 998 103 l 1,30,-1
667 600 m 1,42,-1
 897 600 l 1,43,-1
 897 538 l 1,44,-1
 748 538 l 1,45,-1
 748 519 l 1,46,-1
 894 519 l 1,47,-1
 894 463 l 1,48,-1
 748 463 l 1,49,-1
 748 445 l 1,50,-1
 897 445 l 1,51,-1
 897 383 l 1,52,-1
 667 383 l 1,53,-1
 667 600 l 1,42,-1
664 258 m 1,54,-1
 515 258 l 1,55,-1
 515 240 l 1,56,-1
 661 240 l 1,57,-1
 661 184 l 1,58,-1
 515 184 l 1,59,-1
 515 165 l 1,60,-1
 664 165 l 1,61,-1
 664 103 l 1,62,-1
 434 103 l 1,63,-1
 434 320 l 1,64,-1
 664 320 l 1,65,-1
 664 258 l 1,54,-1
150 103 m 1,66,-1
 150 320 l 1,67,-1
 278 320 l 2,68,69
 411 320 411 320 411 212 c 0,70,71
 411 103 411 103 278 103 c 2,72,-1
 150 103 l 1,66,-1
150 600 m 1,73,-1
 374 600 l 1,74,-1
 374 532 l 1,75,-1
 231 532 l 1,76,-1
 231 510 l 1,77,-1
 371 510 l 1,78,-1
 371 442 l 1,79,-1
 231 442 l 1,80,-1
 231 383 l 1,81,-1
 150 383 l 1,82,-1
 150 600 l 1,73,-1
395 600 m 1,83,-1
 539 600 l 2,84,85
 590 600 590 600 618 578 c 0,86,87
 644 556 644 556 644 516 c 0,88,89
 644 465 644 465 602 445 c 1,90,-1
 644 383 l 1,91,-1
 560 383 l 1,92,-1
 527 432 l 1,93,-1
 476 432 l 1,94,-1
 476 383 l 1,95,-1
 395 383 l 1,96,-1
 395 600 l 1,83,-1
920 600 m 1,97,-1
 1150 600 l 1,98,-1
 1150 538 l 1,99,-1
 1001 538 l 1,100,-1
 1001 519 l 1,101,-1
 1147 519 l 1,102,-1
 1147 463 l 1,103,-1
 1001 463 l 1,104,-1
 1001 445 l 1,105,-1
 1150 445 l 1,106,-1
 1150 383 l 1,107,-1
 920 383 l 1,108,-1
 920 600 l 1,97,-1
50 0 m 1,109,-1
 1400 0 l 1,110,-1
 1400 700 l 1,111,-1
 50 700 l 1,112,-1
 50 0 l 1,109,-1
1102 212 m 0,114,115
 1102 168 1102 168 1161 168 c 256,116,117
 1220 168 1220 168 1220 212 c 0,118,119
 1220 255 1220 255 1161 255 c 256,120,113
 1102 255 1102 255 1102 212 c 0,114,115
EndSplineSet
Validated: 9
EndChar

StartChar: bracketright
Encoding: 93 93 64
Width: 1450
GlyphClass: 2
Flags: W
LayerCount: 2
Fore
SplineSet
542 532 m 2,1,-1
 476 532 l 1,2,-1
 476 501 l 1,3,-1
 542 501 l 2,4,5
 563 501 563 501 563 516 c 0,6,0
 563 532 563 532 542 532 c 2,1,-1
231 252 m 1,7,-1
 231 171 l 1,8,-1
 278 171 l 2,9,10
 330 171 330 171 330 212 c 0,11,12
 330 252 330 252 278 252 c 2,13,-1
 231 252 l 1,7,-1
1161 100 m 256,15,16
 1092 100 1092 100 1056 129 c 0,17,18
 1021 158 1021 158 1021 212 c 0,19,20
 1021 265 1021 265 1056 294 c 0,21,22
 1092 324 1092 324 1161 324 c 256,23,24
 1230 324 1230 324 1266 294 c 0,25,26
 1301 265 1301 265 1301 212 c 0,27,28
 1301 158 1301 158 1266 129 c 0,29,14
 1230 100 1230 100 1161 100 c 256,15,16
998 103 m 1,30,-1
 917 103 l 1,31,-1
 917 202 l 1,32,-1
 843 109 l 1,33,-1
 768 202 l 1,34,-1
 768 103 l 1,35,-1
 687 103 l 1,36,-1
 687 320 l 1,37,-1
 768 320 l 1,38,-1
 843 227 l 1,39,-1
 917 320 l 1,40,-1
 998 320 l 1,41,-1
 998 103 l 1,30,-1
667 600 m 1,42,-1
 897 600 l 1,43,-1
 897 538 l 1,44,-1
 748 538 l 1,45,-1
 748 519 l 1,46,-1
 894 519 l 1,47,-1
 894 463 l 1,48,-1
 748 463 l 1,49,-1
 748 445 l 1,50,-1
 897 445 l 1,51,-1
 897 383 l 1,52,-1
 667 383 l 1,53,-1
 667 600 l 1,42,-1
664 258 m 1,54,-1
 515 258 l 1,55,-1
 515 240 l 1,56,-1
 661 240 l 1,57,-1
 661 184 l 1,58,-1
 515 184 l 1,59,-1
 515 165 l 1,60,-1
 664 165 l 1,61,-1
 664 103 l 1,62,-1
 434 103 l 1,63,-1
 434 320 l 1,64,-1
 664 320 l 1,65,-1
 664 258 l 1,54,-1
150 103 m 1,66,-1
 150 320 l 1,67,-1
 278 320 l 2,68,69
 411 320 411 320 411 212 c 0,70,71
 411 103 411 103 278 103 c 2,72,-1
 150 103 l 1,66,-1
150 600 m 1,73,-1
 374 600 l 1,74,-1
 374 532 l 1,75,-1
 231 532 l 1,76,-1
 231 510 l 1,77,-1
 371 510 l 1,78,-1
 371 442 l 1,79,-1
 231 442 l 1,80,-1
 231 383 l 1,81,-1
 150 383 l 1,82,-1
 150 600 l 1,73,-1
395 600 m 1,83,-1
 539 600 l 2,84,85
 590 600 590 600 618 578 c 0,86,87
 644 556 644 556 644 516 c 0,88,89
 644 465 644 465 602 445 c 1,90,-1
 644 383 l 1,91,-1
 560 383 l 1,92,-1
 527 432 l 1,93,-1
 476 432 l 1,94,-1
 476 383 l 1,95,-1
 395 383 l 1,96,-1
 395 600 l 1,83,-1
920 600 m 1,97,-1
 1150 600 l 1,98,-1
 1150 538 l 1,99,-1
 1001 538 l 1,100,-1
 1001 519 l 1,101,-1
 1147 519 l 1,102,-1
 1147 463 l 1,103,-1
 1001 463 l 1,104,-1
 1001 445 l 1,105,-1
 1150 445 l 1,106,-1
 1150 383 l 1,107,-1
 920 383 l 1,108,-1
 920 600 l 1,97,-1
50 0 m 1,109,-1
 1400 0 l 1,110,-1
 1400 700 l 1,111,-1
 50 700 l 1,112,-1
 50 0 l 1,109,-1
1102 212 m 0,114,115
 1102 168 1102 168 1161 168 c 256,116,117
 1220 168 1220 168 1220 212 c 0,118,119
 1220 255 1220 255 1161 255 c 256,120,113
 1102 255 1102 255 1102 212 c 0,114,115
EndSplineSet
Validated: 9
EndChar

StartChar: asciicircum
Encoding: 94 94 65
Width: 1450
GlyphClass: 2
Flags: W
LayerCount: 2
Fore
SplineSet
542 532 m 2,1,-1
 476 532 l 1,2,-1
 476 501 l 1,3,-1
 542 501 l 2,4,5
 563 501 563 501 563 516 c 0,6,0
 563 532 563 532 542 532 c 2,1,-1
231 252 m 1,7,-1
 231 171 l 1,8,-1
 278 171 l 2,9,10
 330 171 330 171 330 212 c 0,11,12
 330 252 330 252 278 252 c 2,13,-1
 231 252 l 1,7,-1
1161 100 m 256,15,16
 1092 100 1092 100 1056 129 c 0,17,18
 1021 158 1021 158 1021 212 c 0,19,20
 1021 265 1021 265 1056 294 c 0,21,22
 1092 324 1092 324 1161 324 c 256,23,24
 1230 324 1230 324 1266 294 c 0,25,26
 1301 265 1301 265 1301 212 c 0,27,28
 1301 158 1301 158 1266 129 c 0,29,14
 1230 100 1230 100 1161 100 c 256,15,16
998 103 m 1,30,-1
 917 103 l 1,31,-1
 917 202 l 1,32,-1
 843 109 l 1,33,-1
 768 202 l 1,34,-1
 768 103 l 1,35,-1
 687 103 l 1,36,-1
 687 320 l 1,37,-1
 768 320 l 1,38,-1
 843 227 l 1,39,-1
 917 320 l 1,40,-1
 998 320 l 1,41,-1
 998 103 l 1,30,-1
667 600 m 1,42,-1
 897 600 l 1,43,-1
 897 538 l 1,44,-1
 748 538 l 1,45,-1
 748 519 l 1,46,-1
 894 519 l 1,47,-1
 894 463 l 1,48,-1
 748 463 l 1,49,-1
 748 445 l 1,50,-1
 897 445 l 1,51,-1
 897 383 l 1,52,-1
 667 383 l 1,53,-1
 667 600 l 1,42,-1
664 258 m 1,54,-1
 515 258 l 1,55,-1
 515 240 l 1,56,-1
 661 240 l 1,57,-1
 661 184 l 1,58,-1
 515 184 l 1,59,-1
 515 165 l 1,60,-1
 664 165 l 1,61,-1
 664 103 l 1,62,-1
 434 103 l 1,63,-1
 434 320 l 1,64,-1
 664 320 l 1,65,-1
 664 258 l 1,54,-1
150 103 m 1,66,-1
 150 320 l 1,67,-1
 278 320 l 2,68,69
 411 320 411 320 411 212 c 0,70,71
 411 103 411 103 278 103 c 2,72,-1
 150 103 l 1,66,-1
150 600 m 1,73,-1
 374 600 l 1,74,-1
 374 532 l 1,75,-1
 231 532 l 1,76,-1
 231 510 l 1,77,-1
 371 510 l 1,78,-1
 371 442 l 1,79,-1
 231 442 l 1,80,-1
 231 383 l 1,81,-1
 150 383 l 1,82,-1
 150 600 l 1,73,-1
395 600 m 1,83,-1
 539 600 l 2,84,85
 590 600 590 600 618 578 c 0,86,87
 644 556 644 556 644 516 c 0,88,89
 644 465 644 465 602 445 c 1,90,-1
 644 383 l 1,91,-1
 560 383 l 1,92,-1
 527 432 l 1,93,-1
 476 432 l 1,94,-1
 476 383 l 1,95,-1
 395 383 l 1,96,-1
 395 600 l 1,83,-1
920 600 m 1,97,-1
 1150 600 l 1,98,-1
 1150 538 l 1,99,-1
 1001 538 l 1,100,-1
 1001 519 l 1,101,-1
 1147 519 l 1,102,-1
 1147 463 l 1,103,-1
 1001 463 l 1,104,-1
 1001 445 l 1,105,-1
 1150 445 l 1,106,-1
 1150 383 l 1,107,-1
 920 383 l 1,108,-1
 920 600 l 1,97,-1
50 0 m 1,109,-1
 1400 0 l 1,110,-1
 1400 700 l 1,111,-1
 50 700 l 1,112,-1
 50 0 l 1,109,-1
1102 212 m 0,114,115
 1102 168 1102 168 1161 168 c 256,116,117
 1220 168 1220 168 1220 212 c 0,118,119
 1220 255 1220 255 1161 255 c 256,120,113
 1102 255 1102 255 1102 212 c 0,114,115
EndSplineSet
Validated: 9
EndChar

StartChar: underscore
Encoding: 95 95 66
Width: 1450
GlyphClass: 2
Flags: W
LayerCount: 2
Fore
SplineSet
542 532 m 2,1,-1
 476 532 l 1,2,-1
 476 501 l 1,3,-1
 542 501 l 2,4,5
 563 501 563 501 563 516 c 0,6,0
 563 532 563 532 542 532 c 2,1,-1
231 252 m 1,7,-1
 231 171 l 1,8,-1
 278 171 l 2,9,10
 330 171 330 171 330 212 c 0,11,12
 330 252 330 252 278 252 c 2,13,-1
 231 252 l 1,7,-1
1161 100 m 256,15,16
 1092 100 1092 100 1056 129 c 0,17,18
 1021 158 1021 158 1021 212 c 0,19,20
 1021 265 1021 265 1056 294 c 0,21,22
 1092 324 1092 324 1161 324 c 256,23,24
 1230 324 1230 324 1266 294 c 0,25,26
 1301 265 1301 265 1301 212 c 0,27,28
 1301 158 1301 158 1266 129 c 0,29,14
 1230 100 1230 100 1161 100 c 256,15,16
998 103 m 1,30,-1
 917 103 l 1,31,-1
 917 202 l 1,32,-1
 843 109 l 1,33,-1
 768 202 l 1,34,-1
 768 103 l 1,35,-1
 687 103 l 1,36,-1
 687 320 l 1,37,-1
 768 320 l 1,38,-1
 843 227 l 1,39,-1
 917 320 l 1,40,-1
 998 320 l 1,41,-1
 998 103 l 1,30,-1
667 600 m 1,42,-1
 897 600 l 1,43,-1
 897 538 l 1,44,-1
 748 538 l 1,45,-1
 748 519 l 1,46,-1
 894 519 l 1,47,-1
 894 463 l 1,48,-1
 748 463 l 1,49,-1
 748 445 l 1,50,-1
 897 445 l 1,51,-1
 897 383 l 1,52,-1
 667 383 l 1,53,-1
 667 600 l 1,42,-1
664 258 m 1,54,-1
 515 258 l 1,55,-1
 515 240 l 1,56,-1
 661 240 l 1,57,-1
 661 184 l 1,58,-1
 515 184 l 1,59,-1
 515 165 l 1,60,-1
 664 165 l 1,61,-1
 664 103 l 1,62,-1
 434 103 l 1,63,-1
 434 320 l 1,64,-1
 664 320 l 1,65,-1
 664 258 l 1,54,-1
150 103 m 1,66,-1
 150 320 l 1,67,-1
 278 320 l 2,68,69
 411 320 411 320 411 212 c 0,70,71
 411 103 411 103 278 103 c 2,72,-1
 150 103 l 1,66,-1
150 600 m 1,73,-1
 374 600 l 1,74,-1
 374 532 l 1,75,-1
 231 532 l 1,76,-1
 231 510 l 1,77,-1
 371 510 l 1,78,-1
 371 442 l 1,79,-1
 231 442 l 1,80,-1
 231 383 l 1,81,-1
 150 383 l 1,82,-1
 150 600 l 1,73,-1
395 600 m 1,83,-1
 539 600 l 2,84,85
 590 600 590 600 618 578 c 0,86,87
 644 556 644 556 644 516 c 0,88,89
 644 465 644 465 602 445 c 1,90,-1
 644 383 l 1,91,-1
 560 383 l 1,92,-1
 527 432 l 1,93,-1
 476 432 l 1,94,-1
 476 383 l 1,95,-1
 395 383 l 1,96,-1
 395 600 l 1,83,-1
920 600 m 1,97,-1
 1150 600 l 1,98,-1
 1150 538 l 1,99,-1
 1001 538 l 1,100,-1
 1001 519 l 1,101,-1
 1147 519 l 1,102,-1
 1147 463 l 1,103,-1
 1001 463 l 1,104,-1
 1001 445 l 1,105,-1
 1150 445 l 1,106,-1
 1150 383 l 1,107,-1
 920 383 l 1,108,-1
 920 600 l 1,97,-1
50 0 m 1,109,-1
 1400 0 l 1,110,-1
 1400 700 l 1,111,-1
 50 700 l 1,112,-1
 50 0 l 1,109,-1
1102 212 m 0,114,115
 1102 168 1102 168 1161 168 c 256,116,117
 1220 168 1220 168 1220 212 c 0,118,119
 1220 255 1220 255 1161 255 c 256,120,113
 1102 255 1102 255 1102 212 c 0,114,115
EndSplineSet
Validated: 9
EndChar

StartChar: grave
Encoding: 96 96 67
Width: 1450
GlyphClass: 2
Flags: W
LayerCount: 2
Fore
SplineSet
542 532 m 2,1,-1
 476 532 l 1,2,-1
 476 501 l 1,3,-1
 542 501 l 2,4,5
 563 501 563 501 563 516 c 0,6,0
 563 532 563 532 542 532 c 2,1,-1
231 252 m 1,7,-1
 231 171 l 1,8,-1
 278 171 l 2,9,10
 330 171 330 171 330 212 c 0,11,12
 330 252 330 252 278 252 c 2,13,-1
 231 252 l 1,7,-1
1161 100 m 256,15,16
 1092 100 1092 100 1056 129 c 0,17,18
 1021 158 1021 158 1021 212 c 0,19,20
 1021 265 1021 265 1056 294 c 0,21,22
 1092 324 1092 324 1161 324 c 256,23,24
 1230 324 1230 324 1266 294 c 0,25,26
 1301 265 1301 265 1301 212 c 0,27,28
 1301 158 1301 158 1266 129 c 0,29,14
 1230 100 1230 100 1161 100 c 256,15,16
998 103 m 1,30,-1
 917 103 l 1,31,-1
 917 202 l 1,32,-1
 843 109 l 1,33,-1
 768 202 l 1,34,-1
 768 103 l 1,35,-1
 687 103 l 1,36,-1
 687 320 l 1,37,-1
 768 320 l 1,38,-1
 843 227 l 1,39,-1
 917 320 l 1,40,-1
 998 320 l 1,41,-1
 998 103 l 1,30,-1
667 600 m 1,42,-1
 897 600 l 1,43,-1
 897 538 l 1,44,-1
 748 538 l 1,45,-1
 748 519 l 1,46,-1
 894 519 l 1,47,-1
 894 463 l 1,48,-1
 748 463 l 1,49,-1
 748 445 l 1,50,-1
 897 445 l 1,51,-1
 897 383 l 1,52,-1
 667 383 l 1,53,-1
 667 600 l 1,42,-1
664 258 m 1,54,-1
 515 258 l 1,55,-1
 515 240 l 1,56,-1
 661 240 l 1,57,-1
 661 184 l 1,58,-1
 515 184 l 1,59,-1
 515 165 l 1,60,-1
 664 165 l 1,61,-1
 664 103 l 1,62,-1
 434 103 l 1,63,-1
 434 320 l 1,64,-1
 664 320 l 1,65,-1
 664 258 l 1,54,-1
150 103 m 1,66,-1
 150 320 l 1,67,-1
 278 320 l 2,68,69
 411 320 411 320 411 212 c 0,70,71
 411 103 411 103 278 103 c 2,72,-1
 150 103 l 1,66,-1
150 600 m 1,73,-1
 374 600 l 1,74,-1
 374 532 l 1,75,-1
 231 532 l 1,76,-1
 231 510 l 1,77,-1
 371 510 l 1,78,-1
 371 442 l 1,79,-1
 231 442 l 1,80,-1
 231 383 l 1,81,-1
 150 383 l 1,82,-1
 150 600 l 1,73,-1
395 600 m 1,83,-1
 539 600 l 2,84,85
 590 600 590 600 618 578 c 0,86,87
 644 556 644 556 644 516 c 0,88,89
 644 465 644 465 602 445 c 1,90,-1
 644 383 l 1,91,-1
 560 383 l 1,92,-1
 527 432 l 1,93,-1
 476 432 l 1,94,-1
 476 383 l 1,95,-1
 395 383 l 1,96,-1
 395 600 l 1,83,-1
920 600 m 1,97,-1
 1150 600 l 1,98,-1
 1150 538 l 1,99,-1
 1001 538 l 1,100,-1
 1001 519 l 1,101,-1
 1147 519 l 1,102,-1
 1147 463 l 1,103,-1
 1001 463 l 1,104,-1
 1001 445 l 1,105,-1
 1150 445 l 1,106,-1
 1150 383 l 1,107,-1
 920 383 l 1,108,-1
 920 600 l 1,97,-1
50 0 m 1,109,-1
 1400 0 l 1,110,-1
 1400 700 l 1,111,-1
 50 700 l 1,112,-1
 50 0 l 1,109,-1
1102 212 m 0,114,115
 1102 168 1102 168 1161 168 c 256,116,117
 1220 168 1220 168 1220 212 c 0,118,119
 1220 255 1220 255 1161 255 c 256,120,113
 1102 255 1102 255 1102 212 c 0,114,115
EndSplineSet
Validated: 9
EndChar

StartChar: a
Encoding: 97 97 68
Width: 860
GlyphClass: 2
Flags: W
AnchorPoint: "Anchor-3" 303 500 basechar 0
AnchorPoint: "Anchor-2" 0 0 basechar 0
LayerCount: 2
Fore
SplineSet
260 300 m 256,1,2
 260 410 260 410 420 410 c 256,3,4
 580 410 580 410 580 300 c 256,5,6
 580 190 580 190 420 190 c 256,7,0
 260 190 260 190 260 300 c 256,1,2
580 527 m 1,8,9
 497 610 497 610 340 610 c 256,10,11
 183 610 183 610 100 528 c 0,12,13
 20 448 20 448 20 300 c 256,14,15
 20 152 20 152 100 72 c 0,16,17
 183 -10 183 -10 340 -10 c 256,18,19
 497 -10 497 -10 580 73 c 1,20,-1
 580 0 l 1,21,-1
 820 0 l 1,22,-1
 820 600 l 1,23,-1
 580 600 l 1,24,-1
 580 527 l 1,8,9
EndSplineSet
Validated: 9
EndChar

StartChar: b
Encoding: 98 98 69
Width: 860
GlyphClass: 2
Flags: W
LayerCount: 2
Fore
SplineSet
440 190 m 256,0,1
 280 190 280 190 280 300 c 256,2,3
 280 410 280 410 440 410 c 256,4,5
 600 410 600 410 600 300 c 256,6,7
 600 190 600 190 440 190 c 256,0,1
280 800 m 1,8,-1
 40 800 l 1,9,-1
 40 0 l 1,10,-1
 280 0 l 1,11,-1
 280 73 l 1,12,13
 363 -10 363 -10 520 -10 c 256,14,15
 677 -10 677 -10 760 72 c 0,16,17
 840 152 840 152 840 300 c 256,18,19
 840 448 840 448 760 528 c 0,20,21
 677 610 677 610 520 610 c 256,22,23
 363 610 363 610 280 527 c 1,24,-1
 280 800 l 1,8,-1
EndSplineSet
Validated: 9
EndChar

StartChar: c
Encoding: 99 99 70
Width: 837
GlyphClass: 2
Flags: W
AnchorPoint: "Anchor-3" 284 510 basechar 0
AnchorPoint: "Anchor-2" 287 0 basechar 0
LayerCount: 2
Fore
SplineSet
708 64 m 0,1,2
 807 136 807 136 817 270 c 1,3,-1
 574 270 l 1,4,5
 550 190 550 190 420 190 c 0,6,7
 260 190 260 190 260 300 c 256,8,9
 260 410 260 410 420 410 c 0,10,11
 550 410 550 410 574 330 c 1,12,-1
 817 330 l 1,13,14
 807 464 807 464 708 536 c 0,15,16
 605 610 605 610 420 610 c 0,17,18
 223 610 223 610 120 528 c 0,19,20
 20 448 20 448 20 300 c 256,21,22
 20 152 20 152 120 72 c 0,23,24
 223 -10 223 -10 420 -10 c 0,25,0
 605 -10 605 -10 708 64 c 0,1,2
EndSplineSet
Validated: 9
EndChar

StartChar: d
Encoding: 100 100 71
Width: 860
GlyphClass: 2
Flags: W
LayerCount: 2
Fore
SplineSet
260 300 m 256,1,2
 260 410 260 410 420 410 c 256,3,4
 580 410 580 410 580 300 c 256,5,6
 580 190 580 190 420 190 c 256,7,0
 260 190 260 190 260 300 c 256,1,2
580 527 m 1,8,9
 497 610 497 610 340 610 c 256,10,11
 183 610 183 610 100 528 c 0,12,13
 20 448 20 448 20 300 c 256,14,15
 20 152 20 152 100 72 c 0,16,17
 183 -10 183 -10 340 -10 c 256,18,19
 497 -10 497 -10 580 73 c 1,20,-1
 580 0 l 1,21,-1
 820 0 l 1,22,-1
 820 800 l 1,23,-1
 580 800 l 1,24,-1
 580 527 l 1,8,9
EndSplineSet
Validated: 9
EndChar

StartChar: e
Encoding: 101 101 72
Width: 840
GlyphClass: 2
Flags: W
AnchorPoint: "Anchor-3" 290 510 basechar 0
AnchorPoint: "Anchor-2" 0 0 basechar 0
LayerCount: 2
Fore
SplineSet
568 360 m 1,1,-1
 272 360 l 1,2,3
 304 430 304 430 420 430 c 256,4,0
 536 430 536 430 568 360 c 1,1,-1
816 260 m 1,5,-1
 819 280 l 2,6,7
 820 291 820 291 820 300 c 0,8,9
 820 448 820 448 720 528 c 0,10,11
 617 610 617 610 420 610 c 0,12,13
 224 610 224 610 120 528 c 0,14,15
 20 448 20 448 20 300 c 256,16,17
 20 152 20 152 120 72 c 0,18,19
 224 -10 224 -10 420 -10 c 0,20,21
 757 -10 757 -10 810 220 c 1,22,-1
 553 220 l 1,23,24
 513 170 513 170 420 170 c 0,25,26
 291 170 291 170 267 260 c 1,27,-1
 816 260 l 1,5,-1
EndSplineSet
Validated: 9
EndChar

StartChar: f
Encoding: 102 102 73
Width: 640
GlyphClass: 2
Flags: W
LayerCount: 2
Fore
SplineSet
150 0 m 1,0,-1
 390 0 l 1,1,-1
 390 400 l 1,2,-1
 630 400 l 1,3,-1
 630 600 l 1,4,-1
 393 600 l 1,5,6
 402 650 402 650 520 650 c 0,7,8
 589 650 589 650 630 641 c 1,9,-1
 630 817 l 1,10,11
 565 830 565 830 490 830 c 0,12,13
 312 830 312 830 233 779 c 0,14,15
 150 725 150 725 150 600 c 1,16,-1
 10 600 l 1,17,-1
 10 400 l 1,18,-1
 150 400 l 1,19,-1
 150 0 l 1,0,-1
EndSplineSet
Validated: 9
EndChar

StartChar: g
Encoding: 103 103 74
Width: 860
GlyphClass: 2
Flags: W
AnchorPoint: "Anchor-3" 309 510 basechar 0
AnchorPoint: "Anchor-2" 0 0 basechar 0
LayerCount: 2
Fore
SplineSet
260 320 m 256,1,2
 260 410 260 410 420 410 c 256,3,4
 580 410 580 410 580 320 c 256,5,6
 580 230 580 230 420 230 c 256,7,0
 260 230 260 230 260 320 c 256,1,2
580 600 m 1,8,-1
 580 533 l 1,9,10
 498 610 498 610 340 610 c 0,11,12
 183 610 183 610 100 533 c 0,13,14
 20 458 20 458 20 320 c 256,15,16
 20 182 20 182 100 107 c 0,17,18
 183 30 183 30 340 30 c 0,19,20
 498 30 498 30 580 107 c 1,21,-1
 580 100 l 2,22,23
 580 33 580 33 534 2 c 0,24,25
 486 -30 486 -30 380 -30 c 0,26,27
 237 -30 237 -30 80 40 c 1,28,-1
 80 -160 l 1,29,30
 246 -220 246 -220 410 -220 c 0,31,32
 626 -220 626 -220 726 -136 c 0,33,34
 820 -57 820 -57 820 100 c 2,35,-1
 820 600 l 1,36,-1
 580 600 l 1,8,-1
EndSplineSet
Validated: 9
EndChar

StartChar: h
Encoding: 104 104 75
Width: 850
GlyphClass: 2
Flags: W
LayerCount: 2
Fore
SplineSet
280 533 m 1,1,-1
 280 800 l 1,2,-1
 40 800 l 1,3,-1
 40 0 l 1,4,-1
 280 0 l 1,5,-1
 280 311 l 2,6,7
 280 414 280 414 430 414 c 256,8,9
 580 414 580 414 580 311 c 2,10,-1
 580 0 l 1,11,-1
 820 0 l 1,12,-1
 820 311 l 2,13,14
 820 454 820 454 742 531 c 0,15,16
 662 610 662 610 510 610 c 0,17,0
 360 610 360 610 280 533 c 1,1,-1
EndSplineSet
Validated: 9
EndChar

StartChar: i
Encoding: 105 105 76
Width: 320
GlyphClass: 2
Flags: W
LayerCount: 2
Fore
SplineSet
40 0 m 1,0,-1
 280 0 l 1,1,-1
 280 600 l 1,2,-1
 40 600 l 1,3,-1
 40 0 l 1,0,-1
40 640 m 1,4,-1
 280 640 l 1,5,-1
 280 800 l 1,6,-1
 40 800 l 1,7,-1
 40 640 l 1,4,-1
EndSplineSet
Validated: 9
Substitution2: "Single Substitution lookup 13 subtable" dotlessi
AlternateSubs2: "'aalt' Access All Alternates lookup 1 subtable" dotlessi
EndChar

StartChar: j
Encoding: 106 106 77
Width: 320
GlyphClass: 2
Flags: W
LayerCount: 2
Fore
SplineSet
40 640 m 1,0,-1
 280 640 l 1,1,-1
 280 800 l 1,2,-1
 40 800 l 1,3,-1
 40 640 l 1,0,-1
-160 -237 m 1,4,5
 -95 -250 -95 -250 -30 -250 c 0,6,7
 139 -250 139 -250 212 -184 c 0,8,9
 280 -122 280 -122 280 10 c 2,10,-1
 280 600 l 1,11,-1
 40 600 l 1,12,-1
 40 40 l 2,13,14
 40 0 40 0 21 -18 c 0,15,16
 -1 -40 -1 -40 -60 -40 c 0,17,18
 -111 -40 -111 -40 -160 -27 c 1,19,-1
 -160 -237 l 1,4,5
EndSplineSet
Validated: 9
EndChar

StartChar: k
Encoding: 107 107 78
Width: 820
GlyphClass: 2
Flags: W
AnchorPoint: "Anchor-3" 0 0 basechar 0
AnchorPoint: "Anchor-2" 275 0 basechar 0
LayerCount: 2
Fore
SplineSet
40 0 m 1,0,-1
 280 0 l 1,1,-1
 280 800 l 1,2,-1
 40 800 l 1,3,-1
 40 0 l 1,0,-1
540 600 m 1,4,-1
 280 300 l 1,5,-1
 540 0 l 1,6,-1
 820 0 l 1,7,-1
 560 300 l 1,8,-1
 820 600 l 1,9,-1
 540 600 l 1,4,-1
EndSplineSet
Validated: 5
EndChar

StartChar: l
Encoding: 108 108 79
Width: 320
GlyphClass: 2
Flags: W
AnchorPoint: "Anchor-3" 150 710 basechar 0
AnchorPoint: "Anchor-2" 116 0 basechar 0
LayerCount: 2
Fore
SplineSet
40 0 m 1,0,-1
 280 0 l 1,1,-1
 280 800 l 1,2,-1
 40 800 l 1,3,-1
 40 0 l 1,0,-1
EndSplineSet
Validated: 9
EndChar

StartChar: m
Encoding: 109 109 80
Width: 1310
GlyphClass: 2
Flags: W
LayerCount: 2
Fore
SplineSet
731 508 m 1,1,2
 659 610 659 610 495 610 c 0,3,4
 354 610 354 610 280 535 c 1,5,-1
 280 600 l 1,6,-1
 40 600 l 1,7,-1
 40 0 l 1,8,-1
 280 0 l 1,9,-1
 280 333 l 2,10,11
 280 422 280 422 410 422 c 256,12,13
 540 422 540 422 540 333 c 2,14,-1
 540 0 l 1,15,-1
 780 0 l 1,16,-1
 780 333 l 2,17,18
 780 422 780 422 910 422 c 256,19,20
 1040 422 1040 422 1040 333 c 2,21,-1
 1040 0 l 1,22,-1
 1280 0 l 1,23,-1
 1280 333 l 2,24,25
 1280 465 1280 465 1205 536 c 0,26,27
 1127 610 1127 610 980 610 c 0,28,0
 807 610 807 610 731 508 c 1,1,2
EndSplineSet
Validated: 9
EndChar

StartChar: n
Encoding: 110 110 81
Width: 850
GlyphClass: 2
Flags: W
AnchorPoint: "Anchor-3" 295 510 basechar 0
AnchorPoint: "Anchor-2" 288 0 basechar 0
LayerCount: 2
Fore
SplineSet
280 533 m 1,1,-1
 280 600 l 1,2,-1
 40 600 l 1,3,-1
 40 0 l 1,4,-1
 280 0 l 1,5,-1
 280 311 l 2,6,7
 280 414 280 414 430 414 c 256,8,9
 580 414 580 414 580 311 c 2,10,-1
 580 0 l 1,11,-1
 820 0 l 1,12,-1
 820 311 l 2,13,14
 820 454 820 454 742 531 c 0,15,16
 662 610 662 610 510 610 c 0,17,0
 360 610 360 610 280 533 c 1,1,-1
EndSplineSet
Validated: 9
EndChar

StartChar: o
Encoding: 111 111 82
Width: 840
GlyphClass: 2
Flags: W
AnchorPoint: "Anchor-3" 287 510 basechar 0
AnchorPoint: "Anchor-2" 0 0 basechar 0
LayerCount: 2
Fore
SplineSet
260 300 m 256,1,2
 260 410 260 410 420 410 c 256,3,4
 580 410 580 410 580 300 c 256,5,6
 580 190 580 190 420 190 c 256,7,0
 260 190 260 190 260 300 c 256,1,2
120 528 m 0,9,10
 20 448 20 448 20 300 c 256,11,12
 20 152 20 152 120 72 c 0,13,14
 224 -10 224 -10 420 -10 c 0,15,16
 617 -10 617 -10 720 72 c 0,17,18
 820 152 820 152 820 300 c 256,19,20
 820 448 820 448 720 528 c 0,21,22
 617 610 617 610 420 610 c 0,23,8
 224 610 224 610 120 528 c 0,9,10
EndSplineSet
Validated: 9
EndChar

StartChar: p
Encoding: 112 112 83
Width: 860
GlyphClass: 2
Flags: W
LayerCount: 2
Fore
SplineSet
440 190 m 256,0,1
 280 190 280 190 280 300 c 256,2,3
 280 410 280 410 440 410 c 256,4,5
 600 410 600 410 600 300 c 256,6,7
 600 190 600 190 440 190 c 256,0,1
280 600 m 1,8,-1
 40 600 l 1,9,-1
 40 -200 l 1,10,-1
 280 -200 l 1,11,-1
 280 73 l 1,12,13
 363 -10 363 -10 520 -10 c 256,14,15
 677 -10 677 -10 760 72 c 0,16,17
 840 152 840 152 840 300 c 256,18,19
 840 448 840 448 760 528 c 0,20,21
 677 610 677 610 520 610 c 256,22,23
 363 610 363 610 280 527 c 1,24,-1
 280 600 l 1,8,-1
EndSplineSet
Validated: 9
EndChar

StartChar: q
Encoding: 113 113 84
Width: 860
GlyphClass: 2
Flags: W
LayerCount: 2
Fore
SplineSet
260 300 m 256,1,2
 260 410 260 410 420 410 c 256,3,4
 580 410 580 410 580 300 c 256,5,6
 580 190 580 190 420 190 c 256,7,0
 260 190 260 190 260 300 c 256,1,2
580 527 m 1,8,9
 497 610 497 610 340 610 c 256,10,11
 183 610 183 610 100 528 c 0,12,13
 20 448 20 448 20 300 c 256,14,15
 20 152 20 152 100 72 c 0,16,17
 183 -10 183 -10 340 -10 c 256,18,19
 497 -10 497 -10 580 73 c 1,20,-1
 580 -200 l 1,21,-1
 820 -200 l 1,22,-1
 820 600 l 1,23,-1
 580 600 l 1,24,-1
 580 527 l 1,8,9
EndSplineSet
Validated: 9
EndChar

StartChar: r
Encoding: 114 114 85
Width: 550
GlyphClass: 2
Flags: W
AnchorPoint: "Anchor-3" 192 500 basechar 0
AnchorPoint: "Anchor-2" 113 0 basechar 0
LayerCount: 2
Fore
SplineSet
280 600 m 1,0,-1
 40 600 l 1,1,-1
 40 0 l 1,2,-1
 280 0 l 1,3,-1
 280 220 l 2,4,5
 280 302 280 302 338 336 c 256,6,7
 396 370 396 370 540 370 c 1,8,-1
 540 610 l 1,9,10
 364 610 364 610 280 497 c 1,11,-1
 280 600 l 1,0,-1
EndSplineSet
Validated: 9
EndChar

StartChar: s
Encoding: 115 115 86
Width: 800
GlyphClass: 2
Flags: W
AnchorPoint: "Anchor-3" 239 510 basechar 0
AnchorPoint: "Anchor-2" 254 0 basechar 0
LayerCount: 2
Fore
SplineSet
282 170 m 0,1,2
 260 179 260 179 260 210 c 1,3,-1
 20 210 l 1,4,5
 20 98 20 98 100 47 c 0,6,7
 189 -10 189 -10 400 -10 c 0,8,9
 609 -10 609 -10 700 42 c 0,10,11
 780 88 780 88 780 185 c 0,12,13
 780 286 780 286 711 325 c 0,14,15
 631 371 631 371 400 380 c 0,16,17
 307 383 307 383 281 390 c 0,18,19
 260 395 260 395 260 410 c 0,20,21
 260 426 260 426 281 432 c 0,22,23
 310 440 310 440 400 440 c 0,24,25
 482 440 482 440 507 430 c 0,26,27
 530 420 530 420 530 390 c 1,28,-1
 770 390 l 1,29,30
 770 503 770 503 695 553 c 0,31,32
 609 610 609 610 400 610 c 0,33,34
 190 610 190 610 100 561 c 0,35,36
 20 517 20 517 20 420 c 0,37,38
 20 319 20 319 88 279 c 0,39,40
 169 232 169 232 400 225 c 0,41,42
 491 222 491 222 520 213 c 0,43,44
 540 206 540 206 540 190 c 256,45,46
 540 174 540 174 519 168 c 0,47,48
 490 160 490 160 400 160 c 0,49,0
 308 160 308 160 282 170 c 0,1,2
EndSplineSet
Validated: 9
EndChar

StartChar: t
Encoding: 116 116 87
Width: 650
GlyphClass: 2
Flags: W
AnchorPoint: "Anchor-3" 0 0 basechar 0
AnchorPoint: "Anchor-2" 220 10 basechar 0
LayerCount: 2
Fore
SplineSet
630 203 m 1,0,1
 571 190 571 190 520 190 c 0,2,3
 453 190 453 190 424 202 c 0,4,5
 390 215 390 215 390 250 c 2,6,-1
 390 400 l 1,7,-1
 630 400 l 1,8,-1
 630 600 l 1,9,-1
 390 600 l 1,10,-1
 390 750 l 1,11,-1
 150 700 l 1,12,-1
 150 600 l 1,13,-1
 10 600 l 1,14,-1
 10 400 l 1,15,-1
 150 400 l 1,16,-1
 150 220 l 2,17,18
 150 95 150 95 233 41 c 0,19,20
 312 -10 312 -10 490 -10 c 0,21,22
 565 -10 565 -10 630 3 c 1,23,-1
 630 203 l 1,0,1
EndSplineSet
Validated: 9
EndChar

StartChar: u
Encoding: 117 117 88
Width: 850
GlyphClass: 2
Flags: W
AnchorPoint: "Anchor-3" 285 500 basechar 0
AnchorPoint: "Anchor-2" 280 -10 basechar 0
LayerCount: 2
Fore
SplineSet
570 67 m 1,0,1
 490 -10 490 -10 340 -10 c 0,2,3
 187 -10 187 -10 108 69 c 0,4,5
 30 146 30 146 30 289 c 2,6,-1
 30 600 l 1,7,-1
 270 600 l 1,8,-1
 270 289 l 2,9,10
 270 186 270 186 420 186 c 256,11,12
 570 186 570 186 570 289 c 2,13,-1
 570 600 l 1,14,-1
 810 600 l 1,15,-1
 810 0 l 1,16,-1
 570 0 l 1,17,-1
 570 67 l 1,0,1
EndSplineSet
Validated: 1
EndChar

StartChar: v
Encoding: 118 118 89
Width: 860
GlyphClass: 2
Flags: W
LayerCount: 2
Fore
SplineSet
600 600 m 1,0,-1
 430 192 l 1,1,-1
 260 600 l 1,2,-1
 0 600 l 1,3,-1
 250 0 l 1,4,-1
 610 0 l 1,5,-1
 860 600 l 1,6,-1
 600 600 l 1,0,-1
EndSplineSet
Validated: 9
EndChar

StartChar: w
Encoding: 119 119 90
Width: 1320
GlyphClass: 2
Flags: W
AnchorPoint: "Anchor-3" 415 500 basechar 0
AnchorPoint: "Anchor-2" 0 0 basechar 0
LayerCount: 2
Fore
SplineSet
1060 600 m 1,0,-1
 930 229 l 1,1,-1
 800 600 l 1,2,-1
 520 600 l 1,3,-1
 390 229 l 1,4,-1
 260 600 l 1,5,-1
 0 600 l 1,6,-1
 210 0 l 1,7,-1
 550 0 l 1,8,-1
 660 314 l 1,9,-1
 770 0 l 1,10,-1
 1110 0 l 1,11,-1
 1320 600 l 1,12,-1
 1060 600 l 1,0,-1
EndSplineSet
Validated: 9
EndChar

StartChar: x
Encoding: 120 120 91
Width: 870
GlyphClass: 2
Flags: W
LayerCount: 2
Fore
SplineSet
580 600 m 1,0,-1
 435 439 l 1,1,-1
 290 600 l 1,2,-1
 0 600 l 1,3,-1
 270 300 l 1,4,-1
 0 0 l 1,5,-1
 290 0 l 1,6,-1
 435 161 l 1,7,-1
 580 0 l 1,8,-1
 870 0 l 1,9,-1
 600 300 l 1,10,-1
 870 600 l 1,11,-1
 580 600 l 1,0,-1
EndSplineSet
Validated: 9
EndChar

StartChar: y
Encoding: 121 121 92
Width: 860
GlyphClass: 2
Flags: W
AnchorPoint: "Anchor-3" 291 500 basechar 0
AnchorPoint: "Anchor-2" 0 0 basechar 0
LayerCount: 2
Fore
SplineSet
600 600 m 1,0,-1
 430 192 l 1,1,-1
 260 600 l 1,2,-1
 0 600 l 1,3,-1
 250 0 l 1,4,-1
 350 0 l 1,5,-1
 267 -200 l 1,6,-1
 527 -200 l 1,7,-1
 860 600 l 1,8,-1
 600 600 l 1,0,-1
EndSplineSet
Validated: 9
EndChar

StartChar: z
Encoding: 122 122 93
Width: 740
GlyphClass: 2
Flags: W
AnchorPoint: "Anchor-3" 250 500 basechar 0
AnchorPoint: "Anchor-2" 0 0 basechar 0
LayerCount: 2
Fore
SplineSet
30 600 m 1,0,-1
 30 400 l 1,1,-1
 360 400 l 1,2,-1
 30 200 l 1,3,-1
 30 0 l 1,4,-1
 710 0 l 1,5,-1
 710 200 l 1,6,-1
 380 200 l 1,7,-1
 710 400 l 1,8,-1
 710 600 l 1,9,-1
 30 600 l 1,0,-1
EndSplineSet
Validated: 9
EndChar

StartChar: braceleft
Encoding: 123 123 94
Width: 1450
GlyphClass: 2
Flags: W
LayerCount: 2
Fore
SplineSet
542 532 m 2,1,-1
 476 532 l 1,2,-1
 476 501 l 1,3,-1
 542 501 l 2,4,5
 563 501 563 501 563 516 c 0,6,0
 563 532 563 532 542 532 c 2,1,-1
231 252 m 1,7,-1
 231 171 l 1,8,-1
 278 171 l 2,9,10
 330 171 330 171 330 212 c 0,11,12
 330 252 330 252 278 252 c 2,13,-1
 231 252 l 1,7,-1
1161 100 m 256,15,16
 1092 100 1092 100 1056 129 c 0,17,18
 1021 158 1021 158 1021 212 c 0,19,20
 1021 265 1021 265 1056 294 c 0,21,22
 1092 324 1092 324 1161 324 c 256,23,24
 1230 324 1230 324 1266 294 c 0,25,26
 1301 265 1301 265 1301 212 c 0,27,28
 1301 158 1301 158 1266 129 c 0,29,14
 1230 100 1230 100 1161 100 c 256,15,16
998 103 m 1,30,-1
 917 103 l 1,31,-1
 917 202 l 1,32,-1
 843 109 l 1,33,-1
 768 202 l 1,34,-1
 768 103 l 1,35,-1
 687 103 l 1,36,-1
 687 320 l 1,37,-1
 768 320 l 1,38,-1
 843 227 l 1,39,-1
 917 320 l 1,40,-1
 998 320 l 1,41,-1
 998 103 l 1,30,-1
667 600 m 1,42,-1
 897 600 l 1,43,-1
 897 538 l 1,44,-1
 748 538 l 1,45,-1
 748 519 l 1,46,-1
 894 519 l 1,47,-1
 894 463 l 1,48,-1
 748 463 l 1,49,-1
 748 445 l 1,50,-1
 897 445 l 1,51,-1
 897 383 l 1,52,-1
 667 383 l 1,53,-1
 667 600 l 1,42,-1
664 258 m 1,54,-1
 515 258 l 1,55,-1
 515 240 l 1,56,-1
 661 240 l 1,57,-1
 661 184 l 1,58,-1
 515 184 l 1,59,-1
 515 165 l 1,60,-1
 664 165 l 1,61,-1
 664 103 l 1,62,-1
 434 103 l 1,63,-1
 434 320 l 1,64,-1
 664 320 l 1,65,-1
 664 258 l 1,54,-1
150 103 m 1,66,-1
 150 320 l 1,67,-1
 278 320 l 2,68,69
 411 320 411 320 411 212 c 0,70,71
 411 103 411 103 278 103 c 2,72,-1
 150 103 l 1,66,-1
150 600 m 1,73,-1
 374 600 l 1,74,-1
 374 532 l 1,75,-1
 231 532 l 1,76,-1
 231 510 l 1,77,-1
 371 510 l 1,78,-1
 371 442 l 1,79,-1
 231 442 l 1,80,-1
 231 383 l 1,81,-1
 150 383 l 1,82,-1
 150 600 l 1,73,-1
395 600 m 1,83,-1
 539 600 l 2,84,85
 590 600 590 600 618 578 c 0,86,87
 644 556 644 556 644 516 c 0,88,89
 644 465 644 465 602 445 c 1,90,-1
 644 383 l 1,91,-1
 560 383 l 1,92,-1
 527 432 l 1,93,-1
 476 432 l 1,94,-1
 476 383 l 1,95,-1
 395 383 l 1,96,-1
 395 600 l 1,83,-1
920 600 m 1,97,-1
 1150 600 l 1,98,-1
 1150 538 l 1,99,-1
 1001 538 l 1,100,-1
 1001 519 l 1,101,-1
 1147 519 l 1,102,-1
 1147 463 l 1,103,-1
 1001 463 l 1,104,-1
 1001 445 l 1,105,-1
 1150 445 l 1,106,-1
 1150 383 l 1,107,-1
 920 383 l 1,108,-1
 920 600 l 1,97,-1
50 0 m 1,109,-1
 1400 0 l 1,110,-1
 1400 700 l 1,111,-1
 50 700 l 1,112,-1
 50 0 l 1,109,-1
1102 212 m 0,114,115
 1102 168 1102 168 1161 168 c 256,116,117
 1220 168 1220 168 1220 212 c 0,118,119
 1220 255 1220 255 1161 255 c 256,120,113
 1102 255 1102 255 1102 212 c 0,114,115
EndSplineSet
Validated: 9
EndChar

StartChar: bar
Encoding: 124 124 95
Width: 1450
GlyphClass: 2
Flags: W
LayerCount: 2
Fore
SplineSet
542 532 m 2,1,-1
 476 532 l 1,2,-1
 476 501 l 1,3,-1
 542 501 l 2,4,5
 563 501 563 501 563 516 c 0,6,0
 563 532 563 532 542 532 c 2,1,-1
231 252 m 1,7,-1
 231 171 l 1,8,-1
 278 171 l 2,9,10
 330 171 330 171 330 212 c 0,11,12
 330 252 330 252 278 252 c 2,13,-1
 231 252 l 1,7,-1
1161 100 m 256,15,16
 1092 100 1092 100 1056 129 c 0,17,18
 1021 158 1021 158 1021 212 c 0,19,20
 1021 265 1021 265 1056 294 c 0,21,22
 1092 324 1092 324 1161 324 c 256,23,24
 1230 324 1230 324 1266 294 c 0,25,26
 1301 265 1301 265 1301 212 c 0,27,28
 1301 158 1301 158 1266 129 c 0,29,14
 1230 100 1230 100 1161 100 c 256,15,16
998 103 m 1,30,-1
 917 103 l 1,31,-1
 917 202 l 1,32,-1
 843 109 l 1,33,-1
 768 202 l 1,34,-1
 768 103 l 1,35,-1
 687 103 l 1,36,-1
 687 320 l 1,37,-1
 768 320 l 1,38,-1
 843 227 l 1,39,-1
 917 320 l 1,40,-1
 998 320 l 1,41,-1
 998 103 l 1,30,-1
667 600 m 1,42,-1
 897 600 l 1,43,-1
 897 538 l 1,44,-1
 748 538 l 1,45,-1
 748 519 l 1,46,-1
 894 519 l 1,47,-1
 894 463 l 1,48,-1
 748 463 l 1,49,-1
 748 445 l 1,50,-1
 897 445 l 1,51,-1
 897 383 l 1,52,-1
 667 383 l 1,53,-1
 667 600 l 1,42,-1
664 258 m 1,54,-1
 515 258 l 1,55,-1
 515 240 l 1,56,-1
 661 240 l 1,57,-1
 661 184 l 1,58,-1
 515 184 l 1,59,-1
 515 165 l 1,60,-1
 664 165 l 1,61,-1
 664 103 l 1,62,-1
 434 103 l 1,63,-1
 434 320 l 1,64,-1
 664 320 l 1,65,-1
 664 258 l 1,54,-1
150 103 m 1,66,-1
 150 320 l 1,67,-1
 278 320 l 2,68,69
 411 320 411 320 411 212 c 0,70,71
 411 103 411 103 278 103 c 2,72,-1
 150 103 l 1,66,-1
150 600 m 1,73,-1
 374 600 l 1,74,-1
 374 532 l 1,75,-1
 231 532 l 1,76,-1
 231 510 l 1,77,-1
 371 510 l 1,78,-1
 371 442 l 1,79,-1
 231 442 l 1,80,-1
 231 383 l 1,81,-1
 150 383 l 1,82,-1
 150 600 l 1,73,-1
395 600 m 1,83,-1
 539 600 l 2,84,85
 590 600 590 600 618 578 c 0,86,87
 644 556 644 556 644 516 c 0,88,89
 644 465 644 465 602 445 c 1,90,-1
 644 383 l 1,91,-1
 560 383 l 1,92,-1
 527 432 l 1,93,-1
 476 432 l 1,94,-1
 476 383 l 1,95,-1
 395 383 l 1,96,-1
 395 600 l 1,83,-1
920 600 m 1,97,-1
 1150 600 l 1,98,-1
 1150 538 l 1,99,-1
 1001 538 l 1,100,-1
 1001 519 l 1,101,-1
 1147 519 l 1,102,-1
 1147 463 l 1,103,-1
 1001 463 l 1,104,-1
 1001 445 l 1,105,-1
 1150 445 l 1,106,-1
 1150 383 l 1,107,-1
 920 383 l 1,108,-1
 920 600 l 1,97,-1
50 0 m 1,109,-1
 1400 0 l 1,110,-1
 1400 700 l 1,111,-1
 50 700 l 1,112,-1
 50 0 l 1,109,-1
1102 212 m 0,114,115
 1102 168 1102 168 1161 168 c 256,116,117
 1220 168 1220 168 1220 212 c 0,118,119
 1220 255 1220 255 1161 255 c 256,120,113
 1102 255 1102 255 1102 212 c 0,114,115
EndSplineSet
Validated: 9
EndChar

StartChar: braceright
Encoding: 125 125 96
Width: 1450
GlyphClass: 2
Flags: W
LayerCount: 2
Fore
SplineSet
542 532 m 2,1,-1
 476 532 l 1,2,-1
 476 501 l 1,3,-1
 542 501 l 2,4,5
 563 501 563 501 563 516 c 0,6,0
 563 532 563 532 542 532 c 2,1,-1
231 252 m 1,7,-1
 231 171 l 1,8,-1
 278 171 l 2,9,10
 330 171 330 171 330 212 c 0,11,12
 330 252 330 252 278 252 c 2,13,-1
 231 252 l 1,7,-1
1161 100 m 256,15,16
 1092 100 1092 100 1056 129 c 0,17,18
 1021 158 1021 158 1021 212 c 0,19,20
 1021 265 1021 265 1056 294 c 0,21,22
 1092 324 1092 324 1161 324 c 256,23,24
 1230 324 1230 324 1266 294 c 0,25,26
 1301 265 1301 265 1301 212 c 0,27,28
 1301 158 1301 158 1266 129 c 0,29,14
 1230 100 1230 100 1161 100 c 256,15,16
998 103 m 1,30,-1
 917 103 l 1,31,-1
 917 202 l 1,32,-1
 843 109 l 1,33,-1
 768 202 l 1,34,-1
 768 103 l 1,35,-1
 687 103 l 1,36,-1
 687 320 l 1,37,-1
 768 320 l 1,38,-1
 843 227 l 1,39,-1
 917 320 l 1,40,-1
 998 320 l 1,41,-1
 998 103 l 1,30,-1
667 600 m 1,42,-1
 897 600 l 1,43,-1
 897 538 l 1,44,-1
 748 538 l 1,45,-1
 748 519 l 1,46,-1
 894 519 l 1,47,-1
 894 463 l 1,48,-1
 748 463 l 1,49,-1
 748 445 l 1,50,-1
 897 445 l 1,51,-1
 897 383 l 1,52,-1
 667 383 l 1,53,-1
 667 600 l 1,42,-1
664 258 m 1,54,-1
 515 258 l 1,55,-1
 515 240 l 1,56,-1
 661 240 l 1,57,-1
 661 184 l 1,58,-1
 515 184 l 1,59,-1
 515 165 l 1,60,-1
 664 165 l 1,61,-1
 664 103 l 1,62,-1
 434 103 l 1,63,-1
 434 320 l 1,64,-1
 664 320 l 1,65,-1
 664 258 l 1,54,-1
150 103 m 1,66,-1
 150 320 l 1,67,-1
 278 320 l 2,68,69
 411 320 411 320 411 212 c 0,70,71
 411 103 411 103 278 103 c 2,72,-1
 150 103 l 1,66,-1
150 600 m 1,73,-1
 374 600 l 1,74,-1
 374 532 l 1,75,-1
 231 532 l 1,76,-1
 231 510 l 1,77,-1
 371 510 l 1,78,-1
 371 442 l 1,79,-1
 231 442 l 1,80,-1
 231 383 l 1,81,-1
 150 383 l 1,82,-1
 150 600 l 1,73,-1
395 600 m 1,83,-1
 539 600 l 2,84,85
 590 600 590 600 618 578 c 0,86,87
 644 556 644 556 644 516 c 0,88,89
 644 465 644 465 602 445 c 1,90,-1
 644 383 l 1,91,-1
 560 383 l 1,92,-1
 527 432 l 1,93,-1
 476 432 l 1,94,-1
 476 383 l 1,95,-1
 395 383 l 1,96,-1
 395 600 l 1,83,-1
920 600 m 1,97,-1
 1150 600 l 1,98,-1
 1150 538 l 1,99,-1
 1001 538 l 1,100,-1
 1001 519 l 1,101,-1
 1147 519 l 1,102,-1
 1147 463 l 1,103,-1
 1001 463 l 1,104,-1
 1001 445 l 1,105,-1
 1150 445 l 1,106,-1
 1150 383 l 1,107,-1
 920 383 l 1,108,-1
 920 600 l 1,97,-1
50 0 m 1,109,-1
 1400 0 l 1,110,-1
 1400 700 l 1,111,-1
 50 700 l 1,112,-1
 50 0 l 1,109,-1
1102 212 m 0,114,115
 1102 168 1102 168 1161 168 c 256,116,117
 1220 168 1220 168 1220 212 c 0,118,119
 1220 255 1220 255 1161 255 c 256,120,113
 1102 255 1102 255 1102 212 c 0,114,115
EndSplineSet
Validated: 9
EndChar

StartChar: asciitilde
Encoding: 126 126 97
Width: 1450
GlyphClass: 2
Flags: W
LayerCount: 2
Fore
SplineSet
542 532 m 2,1,-1
 476 532 l 1,2,-1
 476 501 l 1,3,-1
 542 501 l 2,4,5
 563 501 563 501 563 516 c 0,6,0
 563 532 563 532 542 532 c 2,1,-1
231 252 m 1,7,-1
 231 171 l 1,8,-1
 278 171 l 2,9,10
 330 171 330 171 330 212 c 0,11,12
 330 252 330 252 278 252 c 2,13,-1
 231 252 l 1,7,-1
1161 100 m 256,15,16
 1092 100 1092 100 1056 129 c 0,17,18
 1021 158 1021 158 1021 212 c 0,19,20
 1021 265 1021 265 1056 294 c 0,21,22
 1092 324 1092 324 1161 324 c 256,23,24
 1230 324 1230 324 1266 294 c 0,25,26
 1301 265 1301 265 1301 212 c 0,27,28
 1301 158 1301 158 1266 129 c 0,29,14
 1230 100 1230 100 1161 100 c 256,15,16
998 103 m 1,30,-1
 917 103 l 1,31,-1
 917 202 l 1,32,-1
 843 109 l 1,33,-1
 768 202 l 1,34,-1
 768 103 l 1,35,-1
 687 103 l 1,36,-1
 687 320 l 1,37,-1
 768 320 l 1,38,-1
 843 227 l 1,39,-1
 917 320 l 1,40,-1
 998 320 l 1,41,-1
 998 103 l 1,30,-1
667 600 m 1,42,-1
 897 600 l 1,43,-1
 897 538 l 1,44,-1
 748 538 l 1,45,-1
 748 519 l 1,46,-1
 894 519 l 1,47,-1
 894 463 l 1,48,-1
 748 463 l 1,49,-1
 748 445 l 1,50,-1
 897 445 l 1,51,-1
 897 383 l 1,52,-1
 667 383 l 1,53,-1
 667 600 l 1,42,-1
664 258 m 1,54,-1
 515 258 l 1,55,-1
 515 240 l 1,56,-1
 661 240 l 1,57,-1
 661 184 l 1,58,-1
 515 184 l 1,59,-1
 515 165 l 1,60,-1
 664 165 l 1,61,-1
 664 103 l 1,62,-1
 434 103 l 1,63,-1
 434 320 l 1,64,-1
 664 320 l 1,65,-1
 664 258 l 1,54,-1
150 103 m 1,66,-1
 150 320 l 1,67,-1
 278 320 l 2,68,69
 411 320 411 320 411 212 c 0,70,71
 411 103 411 103 278 103 c 2,72,-1
 150 103 l 1,66,-1
150 600 m 1,73,-1
 374 600 l 1,74,-1
 374 532 l 1,75,-1
 231 532 l 1,76,-1
 231 510 l 1,77,-1
 371 510 l 1,78,-1
 371 442 l 1,79,-1
 231 442 l 1,80,-1
 231 383 l 1,81,-1
 150 383 l 1,82,-1
 150 600 l 1,73,-1
395 600 m 1,83,-1
 539 600 l 2,84,85
 590 600 590 600 618 578 c 0,86,87
 644 556 644 556 644 516 c 0,88,89
 644 465 644 465 602 445 c 1,90,-1
 644 383 l 1,91,-1
 560 383 l 1,92,-1
 527 432 l 1,93,-1
 476 432 l 1,94,-1
 476 383 l 1,95,-1
 395 383 l 1,96,-1
 395 600 l 1,83,-1
920 600 m 1,97,-1
 1150 600 l 1,98,-1
 1150 538 l 1,99,-1
 1001 538 l 1,100,-1
 1001 519 l 1,101,-1
 1147 519 l 1,102,-1
 1147 463 l 1,103,-1
 1001 463 l 1,104,-1
 1001 445 l 1,105,-1
 1150 445 l 1,106,-1
 1150 383 l 1,107,-1
 920 383 l 1,108,-1
 920 600 l 1,97,-1
50 0 m 1,109,-1
 1400 0 l 1,110,-1
 1400 700 l 1,111,-1
 50 700 l 1,112,-1
 50 0 l 1,109,-1
1102 212 m 0,114,115
 1102 168 1102 168 1161 168 c 256,116,117
 1220 168 1220 168 1220 212 c 0,118,119
 1220 255 1220 255 1161 255 c 256,120,113
 1102 255 1102 255 1102 212 c 0,114,115
EndSplineSet
Validated: 9
EndChar

StartChar: exclamdown
Encoding: 161 161 98
Width: 1450
GlyphClass: 2
Flags: W
LayerCount: 2
Fore
SplineSet
542 532 m 2,1,-1
 476 532 l 1,2,-1
 476 501 l 1,3,-1
 542 501 l 2,4,5
 563 501 563 501 563 516 c 0,6,0
 563 532 563 532 542 532 c 2,1,-1
231 252 m 1,7,-1
 231 171 l 1,8,-1
 278 171 l 2,9,10
 330 171 330 171 330 212 c 0,11,12
 330 252 330 252 278 252 c 2,13,-1
 231 252 l 1,7,-1
1161 100 m 256,15,16
 1092 100 1092 100 1056 129 c 0,17,18
 1021 158 1021 158 1021 212 c 0,19,20
 1021 265 1021 265 1056 294 c 0,21,22
 1092 324 1092 324 1161 324 c 256,23,24
 1230 324 1230 324 1266 294 c 0,25,26
 1301 265 1301 265 1301 212 c 0,27,28
 1301 158 1301 158 1266 129 c 0,29,14
 1230 100 1230 100 1161 100 c 256,15,16
998 103 m 1,30,-1
 917 103 l 1,31,-1
 917 202 l 1,32,-1
 843 109 l 1,33,-1
 768 202 l 1,34,-1
 768 103 l 1,35,-1
 687 103 l 1,36,-1
 687 320 l 1,37,-1
 768 320 l 1,38,-1
 843 227 l 1,39,-1
 917 320 l 1,40,-1
 998 320 l 1,41,-1
 998 103 l 1,30,-1
667 600 m 1,42,-1
 897 600 l 1,43,-1
 897 538 l 1,44,-1
 748 538 l 1,45,-1
 748 519 l 1,46,-1
 894 519 l 1,47,-1
 894 463 l 1,48,-1
 748 463 l 1,49,-1
 748 445 l 1,50,-1
 897 445 l 1,51,-1
 897 383 l 1,52,-1
 667 383 l 1,53,-1
 667 600 l 1,42,-1
664 258 m 1,54,-1
 515 258 l 1,55,-1
 515 240 l 1,56,-1
 661 240 l 1,57,-1
 661 184 l 1,58,-1
 515 184 l 1,59,-1
 515 165 l 1,60,-1
 664 165 l 1,61,-1
 664 103 l 1,62,-1
 434 103 l 1,63,-1
 434 320 l 1,64,-1
 664 320 l 1,65,-1
 664 258 l 1,54,-1
150 103 m 1,66,-1
 150 320 l 1,67,-1
 278 320 l 2,68,69
 411 320 411 320 411 212 c 0,70,71
 411 103 411 103 278 103 c 2,72,-1
 150 103 l 1,66,-1
150 600 m 1,73,-1
 374 600 l 1,74,-1
 374 532 l 1,75,-1
 231 532 l 1,76,-1
 231 510 l 1,77,-1
 371 510 l 1,78,-1
 371 442 l 1,79,-1
 231 442 l 1,80,-1
 231 383 l 1,81,-1
 150 383 l 1,82,-1
 150 600 l 1,73,-1
395 600 m 1,83,-1
 539 600 l 2,84,85
 590 600 590 600 618 578 c 0,86,87
 644 556 644 556 644 516 c 0,88,89
 644 465 644 465 602 445 c 1,90,-1
 644 383 l 1,91,-1
 560 383 l 1,92,-1
 527 432 l 1,93,-1
 476 432 l 1,94,-1
 476 383 l 1,95,-1
 395 383 l 1,96,-1
 395 600 l 1,83,-1
920 600 m 1,97,-1
 1150 600 l 1,98,-1
 1150 538 l 1,99,-1
 1001 538 l 1,100,-1
 1001 519 l 1,101,-1
 1147 519 l 1,102,-1
 1147 463 l 1,103,-1
 1001 463 l 1,104,-1
 1001 445 l 1,105,-1
 1150 445 l 1,106,-1
 1150 383 l 1,107,-1
 920 383 l 1,108,-1
 920 600 l 1,97,-1
50 0 m 1,109,-1
 1400 0 l 1,110,-1
 1400 700 l 1,111,-1
 50 700 l 1,112,-1
 50 0 l 1,109,-1
1102 212 m 0,114,115
 1102 168 1102 168 1161 168 c 256,116,117
 1220 168 1220 168 1220 212 c 0,118,119
 1220 255 1220 255 1161 255 c 256,120,113
 1102 255 1102 255 1102 212 c 0,114,115
EndSplineSet
Validated: 9
EndChar

StartChar: cent
Encoding: 162 162 99
Width: 1450
GlyphClass: 2
Flags: W
LayerCount: 2
Fore
SplineSet
542 532 m 2,1,-1
 476 532 l 1,2,-1
 476 501 l 1,3,-1
 542 501 l 2,4,5
 563 501 563 501 563 516 c 0,6,0
 563 532 563 532 542 532 c 2,1,-1
231 252 m 1,7,-1
 231 171 l 1,8,-1
 278 171 l 2,9,10
 330 171 330 171 330 212 c 0,11,12
 330 252 330 252 278 252 c 2,13,-1
 231 252 l 1,7,-1
1161 100 m 256,15,16
 1092 100 1092 100 1056 129 c 0,17,18
 1021 158 1021 158 1021 212 c 0,19,20
 1021 265 1021 265 1056 294 c 0,21,22
 1092 324 1092 324 1161 324 c 256,23,24
 1230 324 1230 324 1266 294 c 0,25,26
 1301 265 1301 265 1301 212 c 0,27,28
 1301 158 1301 158 1266 129 c 0,29,14
 1230 100 1230 100 1161 100 c 256,15,16
998 103 m 1,30,-1
 917 103 l 1,31,-1
 917 202 l 1,32,-1
 843 109 l 1,33,-1
 768 202 l 1,34,-1
 768 103 l 1,35,-1
 687 103 l 1,36,-1
 687 320 l 1,37,-1
 768 320 l 1,38,-1
 843 227 l 1,39,-1
 917 320 l 1,40,-1
 998 320 l 1,41,-1
 998 103 l 1,30,-1
667 600 m 1,42,-1
 897 600 l 1,43,-1
 897 538 l 1,44,-1
 748 538 l 1,45,-1
 748 519 l 1,46,-1
 894 519 l 1,47,-1
 894 463 l 1,48,-1
 748 463 l 1,49,-1
 748 445 l 1,50,-1
 897 445 l 1,51,-1
 897 383 l 1,52,-1
 667 383 l 1,53,-1
 667 600 l 1,42,-1
664 258 m 1,54,-1
 515 258 l 1,55,-1
 515 240 l 1,56,-1
 661 240 l 1,57,-1
 661 184 l 1,58,-1
 515 184 l 1,59,-1
 515 165 l 1,60,-1
 664 165 l 1,61,-1
 664 103 l 1,62,-1
 434 103 l 1,63,-1
 434 320 l 1,64,-1
 664 320 l 1,65,-1
 664 258 l 1,54,-1
150 103 m 1,66,-1
 150 320 l 1,67,-1
 278 320 l 2,68,69
 411 320 411 320 411 212 c 0,70,71
 411 103 411 103 278 103 c 2,72,-1
 150 103 l 1,66,-1
150 600 m 1,73,-1
 374 600 l 1,74,-1
 374 532 l 1,75,-1
 231 532 l 1,76,-1
 231 510 l 1,77,-1
 371 510 l 1,78,-1
 371 442 l 1,79,-1
 231 442 l 1,80,-1
 231 383 l 1,81,-1
 150 383 l 1,82,-1
 150 600 l 1,73,-1
395 600 m 1,83,-1
 539 600 l 2,84,85
 590 600 590 600 618 578 c 0,86,87
 644 556 644 556 644 516 c 0,88,89
 644 465 644 465 602 445 c 1,90,-1
 644 383 l 1,91,-1
 560 383 l 1,92,-1
 527 432 l 1,93,-1
 476 432 l 1,94,-1
 476 383 l 1,95,-1
 395 383 l 1,96,-1
 395 600 l 1,83,-1
920 600 m 1,97,-1
 1150 600 l 1,98,-1
 1150 538 l 1,99,-1
 1001 538 l 1,100,-1
 1001 519 l 1,101,-1
 1147 519 l 1,102,-1
 1147 463 l 1,103,-1
 1001 463 l 1,104,-1
 1001 445 l 1,105,-1
 1150 445 l 1,106,-1
 1150 383 l 1,107,-1
 920 383 l 1,108,-1
 920 600 l 1,97,-1
50 0 m 1,109,-1
 1400 0 l 1,110,-1
 1400 700 l 1,111,-1
 50 700 l 1,112,-1
 50 0 l 1,109,-1
1102 212 m 0,114,115
 1102 168 1102 168 1161 168 c 256,116,117
 1220 168 1220 168 1220 212 c 0,118,119
 1220 255 1220 255 1161 255 c 256,120,113
 1102 255 1102 255 1102 212 c 0,114,115
EndSplineSet
Validated: 9
EndChar

StartChar: sterling
Encoding: 163 163 100
Width: 1450
GlyphClass: 2
Flags: W
LayerCount: 2
Fore
SplineSet
542 532 m 2,1,-1
 476 532 l 1,2,-1
 476 501 l 1,3,-1
 542 501 l 2,4,5
 563 501 563 501 563 516 c 0,6,0
 563 532 563 532 542 532 c 2,1,-1
231 252 m 1,7,-1
 231 171 l 1,8,-1
 278 171 l 2,9,10
 330 171 330 171 330 212 c 0,11,12
 330 252 330 252 278 252 c 2,13,-1
 231 252 l 1,7,-1
1161 100 m 256,15,16
 1092 100 1092 100 1056 129 c 0,17,18
 1021 158 1021 158 1021 212 c 0,19,20
 1021 265 1021 265 1056 294 c 0,21,22
 1092 324 1092 324 1161 324 c 256,23,24
 1230 324 1230 324 1266 294 c 0,25,26
 1301 265 1301 265 1301 212 c 0,27,28
 1301 158 1301 158 1266 129 c 0,29,14
 1230 100 1230 100 1161 100 c 256,15,16
998 103 m 1,30,-1
 917 103 l 1,31,-1
 917 202 l 1,32,-1
 843 109 l 1,33,-1
 768 202 l 1,34,-1
 768 103 l 1,35,-1
 687 103 l 1,36,-1
 687 320 l 1,37,-1
 768 320 l 1,38,-1
 843 227 l 1,39,-1
 917 320 l 1,40,-1
 998 320 l 1,41,-1
 998 103 l 1,30,-1
667 600 m 1,42,-1
 897 600 l 1,43,-1
 897 538 l 1,44,-1
 748 538 l 1,45,-1
 748 519 l 1,46,-1
 894 519 l 1,47,-1
 894 463 l 1,48,-1
 748 463 l 1,49,-1
 748 445 l 1,50,-1
 897 445 l 1,51,-1
 897 383 l 1,52,-1
 667 383 l 1,53,-1
 667 600 l 1,42,-1
664 258 m 1,54,-1
 515 258 l 1,55,-1
 515 240 l 1,56,-1
 661 240 l 1,57,-1
 661 184 l 1,58,-1
 515 184 l 1,59,-1
 515 165 l 1,60,-1
 664 165 l 1,61,-1
 664 103 l 1,62,-1
 434 103 l 1,63,-1
 434 320 l 1,64,-1
 664 320 l 1,65,-1
 664 258 l 1,54,-1
150 103 m 1,66,-1
 150 320 l 1,67,-1
 278 320 l 2,68,69
 411 320 411 320 411 212 c 0,70,71
 411 103 411 103 278 103 c 2,72,-1
 150 103 l 1,66,-1
150 600 m 1,73,-1
 374 600 l 1,74,-1
 374 532 l 1,75,-1
 231 532 l 1,76,-1
 231 510 l 1,77,-1
 371 510 l 1,78,-1
 371 442 l 1,79,-1
 231 442 l 1,80,-1
 231 383 l 1,81,-1
 150 383 l 1,82,-1
 150 600 l 1,73,-1
395 600 m 1,83,-1
 539 600 l 2,84,85
 590 600 590 600 618 578 c 0,86,87
 644 556 644 556 644 516 c 0,88,89
 644 465 644 465 602 445 c 1,90,-1
 644 383 l 1,91,-1
 560 383 l 1,92,-1
 527 432 l 1,93,-1
 476 432 l 1,94,-1
 476 383 l 1,95,-1
 395 383 l 1,96,-1
 395 600 l 1,83,-1
920 600 m 1,97,-1
 1150 600 l 1,98,-1
 1150 538 l 1,99,-1
 1001 538 l 1,100,-1
 1001 519 l 1,101,-1
 1147 519 l 1,102,-1
 1147 463 l 1,103,-1
 1001 463 l 1,104,-1
 1001 445 l 1,105,-1
 1150 445 l 1,106,-1
 1150 383 l 1,107,-1
 920 383 l 1,108,-1
 920 600 l 1,97,-1
50 0 m 1,109,-1
 1400 0 l 1,110,-1
 1400 700 l 1,111,-1
 50 700 l 1,112,-1
 50 0 l 1,109,-1
1102 212 m 0,114,115
 1102 168 1102 168 1161 168 c 256,116,117
 1220 168 1220 168 1220 212 c 0,118,119
 1220 255 1220 255 1161 255 c 256,120,113
 1102 255 1102 255 1102 212 c 0,114,115
EndSplineSet
Validated: 9
EndChar

StartChar: currency
Encoding: 164 164 101
Width: 1450
GlyphClass: 2
Flags: W
LayerCount: 2
Fore
SplineSet
542 532 m 2,1,-1
 476 532 l 1,2,-1
 476 501 l 1,3,-1
 542 501 l 2,4,5
 563 501 563 501 563 516 c 0,6,0
 563 532 563 532 542 532 c 2,1,-1
231 252 m 1,7,-1
 231 171 l 1,8,-1
 278 171 l 2,9,10
 330 171 330 171 330 212 c 0,11,12
 330 252 330 252 278 252 c 2,13,-1
 231 252 l 1,7,-1
1161 100 m 256,15,16
 1092 100 1092 100 1056 129 c 0,17,18
 1021 158 1021 158 1021 212 c 0,19,20
 1021 265 1021 265 1056 294 c 0,21,22
 1092 324 1092 324 1161 324 c 256,23,24
 1230 324 1230 324 1266 294 c 0,25,26
 1301 265 1301 265 1301 212 c 0,27,28
 1301 158 1301 158 1266 129 c 0,29,14
 1230 100 1230 100 1161 100 c 256,15,16
998 103 m 1,30,-1
 917 103 l 1,31,-1
 917 202 l 1,32,-1
 843 109 l 1,33,-1
 768 202 l 1,34,-1
 768 103 l 1,35,-1
 687 103 l 1,36,-1
 687 320 l 1,37,-1
 768 320 l 1,38,-1
 843 227 l 1,39,-1
 917 320 l 1,40,-1
 998 320 l 1,41,-1
 998 103 l 1,30,-1
667 600 m 1,42,-1
 897 600 l 1,43,-1
 897 538 l 1,44,-1
 748 538 l 1,45,-1
 748 519 l 1,46,-1
 894 519 l 1,47,-1
 894 463 l 1,48,-1
 748 463 l 1,49,-1
 748 445 l 1,50,-1
 897 445 l 1,51,-1
 897 383 l 1,52,-1
 667 383 l 1,53,-1
 667 600 l 1,42,-1
664 258 m 1,54,-1
 515 258 l 1,55,-1
 515 240 l 1,56,-1
 661 240 l 1,57,-1
 661 184 l 1,58,-1
 515 184 l 1,59,-1
 515 165 l 1,60,-1
 664 165 l 1,61,-1
 664 103 l 1,62,-1
 434 103 l 1,63,-1
 434 320 l 1,64,-1
 664 320 l 1,65,-1
 664 258 l 1,54,-1
150 103 m 1,66,-1
 150 320 l 1,67,-1
 278 320 l 2,68,69
 411 320 411 320 411 212 c 0,70,71
 411 103 411 103 278 103 c 2,72,-1
 150 103 l 1,66,-1
150 600 m 1,73,-1
 374 600 l 1,74,-1
 374 532 l 1,75,-1
 231 532 l 1,76,-1
 231 510 l 1,77,-1
 371 510 l 1,78,-1
 371 442 l 1,79,-1
 231 442 l 1,80,-1
 231 383 l 1,81,-1
 150 383 l 1,82,-1
 150 600 l 1,73,-1
395 600 m 1,83,-1
 539 600 l 2,84,85
 590 600 590 600 618 578 c 0,86,87
 644 556 644 556 644 516 c 0,88,89
 644 465 644 465 602 445 c 1,90,-1
 644 383 l 1,91,-1
 560 383 l 1,92,-1
 527 432 l 1,93,-1
 476 432 l 1,94,-1
 476 383 l 1,95,-1
 395 383 l 1,96,-1
 395 600 l 1,83,-1
920 600 m 1,97,-1
 1150 600 l 1,98,-1
 1150 538 l 1,99,-1
 1001 538 l 1,100,-1
 1001 519 l 1,101,-1
 1147 519 l 1,102,-1
 1147 463 l 1,103,-1
 1001 463 l 1,104,-1
 1001 445 l 1,105,-1
 1150 445 l 1,106,-1
 1150 383 l 1,107,-1
 920 383 l 1,108,-1
 920 600 l 1,97,-1
50 0 m 1,109,-1
 1400 0 l 1,110,-1
 1400 700 l 1,111,-1
 50 700 l 1,112,-1
 50 0 l 1,109,-1
1102 212 m 0,114,115
 1102 168 1102 168 1161 168 c 256,116,117
 1220 168 1220 168 1220 212 c 0,118,119
 1220 255 1220 255 1161 255 c 256,120,113
 1102 255 1102 255 1102 212 c 0,114,115
EndSplineSet
Validated: 9
EndChar

StartChar: yen
Encoding: 165 165 102
Width: 1450
GlyphClass: 2
Flags: W
LayerCount: 2
Fore
SplineSet
542 532 m 2,1,-1
 476 532 l 1,2,-1
 476 501 l 1,3,-1
 542 501 l 2,4,5
 563 501 563 501 563 516 c 0,6,0
 563 532 563 532 542 532 c 2,1,-1
231 252 m 1,7,-1
 231 171 l 1,8,-1
 278 171 l 2,9,10
 330 171 330 171 330 212 c 0,11,12
 330 252 330 252 278 252 c 2,13,-1
 231 252 l 1,7,-1
1161 100 m 256,15,16
 1092 100 1092 100 1056 129 c 0,17,18
 1021 158 1021 158 1021 212 c 0,19,20
 1021 265 1021 265 1056 294 c 0,21,22
 1092 324 1092 324 1161 324 c 256,23,24
 1230 324 1230 324 1266 294 c 0,25,26
 1301 265 1301 265 1301 212 c 0,27,28
 1301 158 1301 158 1266 129 c 0,29,14
 1230 100 1230 100 1161 100 c 256,15,16
998 103 m 1,30,-1
 917 103 l 1,31,-1
 917 202 l 1,32,-1
 843 109 l 1,33,-1
 768 202 l 1,34,-1
 768 103 l 1,35,-1
 687 103 l 1,36,-1
 687 320 l 1,37,-1
 768 320 l 1,38,-1
 843 227 l 1,39,-1
 917 320 l 1,40,-1
 998 320 l 1,41,-1
 998 103 l 1,30,-1
667 600 m 1,42,-1
 897 600 l 1,43,-1
 897 538 l 1,44,-1
 748 538 l 1,45,-1
 748 519 l 1,46,-1
 894 519 l 1,47,-1
 894 463 l 1,48,-1
 748 463 l 1,49,-1
 748 445 l 1,50,-1
 897 445 l 1,51,-1
 897 383 l 1,52,-1
 667 383 l 1,53,-1
 667 600 l 1,42,-1
664 258 m 1,54,-1
 515 258 l 1,55,-1
 515 240 l 1,56,-1
 661 240 l 1,57,-1
 661 184 l 1,58,-1
 515 184 l 1,59,-1
 515 165 l 1,60,-1
 664 165 l 1,61,-1
 664 103 l 1,62,-1
 434 103 l 1,63,-1
 434 320 l 1,64,-1
 664 320 l 1,65,-1
 664 258 l 1,54,-1
150 103 m 1,66,-1
 150 320 l 1,67,-1
 278 320 l 2,68,69
 411 320 411 320 411 212 c 0,70,71
 411 103 411 103 278 103 c 2,72,-1
 150 103 l 1,66,-1
150 600 m 1,73,-1
 374 600 l 1,74,-1
 374 532 l 1,75,-1
 231 532 l 1,76,-1
 231 510 l 1,77,-1
 371 510 l 1,78,-1
 371 442 l 1,79,-1
 231 442 l 1,80,-1
 231 383 l 1,81,-1
 150 383 l 1,82,-1
 150 600 l 1,73,-1
395 600 m 1,83,-1
 539 600 l 2,84,85
 590 600 590 600 618 578 c 0,86,87
 644 556 644 556 644 516 c 0,88,89
 644 465 644 465 602 445 c 1,90,-1
 644 383 l 1,91,-1
 560 383 l 1,92,-1
 527 432 l 1,93,-1
 476 432 l 1,94,-1
 476 383 l 1,95,-1
 395 383 l 1,96,-1
 395 600 l 1,83,-1
920 600 m 1,97,-1
 1150 600 l 1,98,-1
 1150 538 l 1,99,-1
 1001 538 l 1,100,-1
 1001 519 l 1,101,-1
 1147 519 l 1,102,-1
 1147 463 l 1,103,-1
 1001 463 l 1,104,-1
 1001 445 l 1,105,-1
 1150 445 l 1,106,-1
 1150 383 l 1,107,-1
 920 383 l 1,108,-1
 920 600 l 1,97,-1
50 0 m 1,109,-1
 1400 0 l 1,110,-1
 1400 700 l 1,111,-1
 50 700 l 1,112,-1
 50 0 l 1,109,-1
1102 212 m 0,114,115
 1102 168 1102 168 1161 168 c 256,116,117
 1220 168 1220 168 1220 212 c 0,118,119
 1220 255 1220 255 1161 255 c 256,120,113
 1102 255 1102 255 1102 212 c 0,114,115
EndSplineSet
Validated: 9
EndChar

StartChar: brokenbar
Encoding: 166 166 103
Width: 1450
GlyphClass: 2
Flags: W
LayerCount: 2
Fore
SplineSet
542 532 m 2,1,-1
 476 532 l 1,2,-1
 476 501 l 1,3,-1
 542 501 l 2,4,5
 563 501 563 501 563 516 c 0,6,0
 563 532 563 532 542 532 c 2,1,-1
231 252 m 1,7,-1
 231 171 l 1,8,-1
 278 171 l 2,9,10
 330 171 330 171 330 212 c 0,11,12
 330 252 330 252 278 252 c 2,13,-1
 231 252 l 1,7,-1
1161 100 m 256,15,16
 1092 100 1092 100 1056 129 c 0,17,18
 1021 158 1021 158 1021 212 c 0,19,20
 1021 265 1021 265 1056 294 c 0,21,22
 1092 324 1092 324 1161 324 c 256,23,24
 1230 324 1230 324 1266 294 c 0,25,26
 1301 265 1301 265 1301 212 c 0,27,28
 1301 158 1301 158 1266 129 c 0,29,14
 1230 100 1230 100 1161 100 c 256,15,16
998 103 m 1,30,-1
 917 103 l 1,31,-1
 917 202 l 1,32,-1
 843 109 l 1,33,-1
 768 202 l 1,34,-1
 768 103 l 1,35,-1
 687 103 l 1,36,-1
 687 320 l 1,37,-1
 768 320 l 1,38,-1
 843 227 l 1,39,-1
 917 320 l 1,40,-1
 998 320 l 1,41,-1
 998 103 l 1,30,-1
667 600 m 1,42,-1
 897 600 l 1,43,-1
 897 538 l 1,44,-1
 748 538 l 1,45,-1
 748 519 l 1,46,-1
 894 519 l 1,47,-1
 894 463 l 1,48,-1
 748 463 l 1,49,-1
 748 445 l 1,50,-1
 897 445 l 1,51,-1
 897 383 l 1,52,-1
 667 383 l 1,53,-1
 667 600 l 1,42,-1
664 258 m 1,54,-1
 515 258 l 1,55,-1
 515 240 l 1,56,-1
 661 240 l 1,57,-1
 661 184 l 1,58,-1
 515 184 l 1,59,-1
 515 165 l 1,60,-1
 664 165 l 1,61,-1
 664 103 l 1,62,-1
 434 103 l 1,63,-1
 434 320 l 1,64,-1
 664 320 l 1,65,-1
 664 258 l 1,54,-1
150 103 m 1,66,-1
 150 320 l 1,67,-1
 278 320 l 2,68,69
 411 320 411 320 411 212 c 0,70,71
 411 103 411 103 278 103 c 2,72,-1
 150 103 l 1,66,-1
150 600 m 1,73,-1
 374 600 l 1,74,-1
 374 532 l 1,75,-1
 231 532 l 1,76,-1
 231 510 l 1,77,-1
 371 510 l 1,78,-1
 371 442 l 1,79,-1
 231 442 l 1,80,-1
 231 383 l 1,81,-1
 150 383 l 1,82,-1
 150 600 l 1,73,-1
395 600 m 1,83,-1
 539 600 l 2,84,85
 590 600 590 600 618 578 c 0,86,87
 644 556 644 556 644 516 c 0,88,89
 644 465 644 465 602 445 c 1,90,-1
 644 383 l 1,91,-1
 560 383 l 1,92,-1
 527 432 l 1,93,-1
 476 432 l 1,94,-1
 476 383 l 1,95,-1
 395 383 l 1,96,-1
 395 600 l 1,83,-1
920 600 m 1,97,-1
 1150 600 l 1,98,-1
 1150 538 l 1,99,-1
 1001 538 l 1,100,-1
 1001 519 l 1,101,-1
 1147 519 l 1,102,-1
 1147 463 l 1,103,-1
 1001 463 l 1,104,-1
 1001 445 l 1,105,-1
 1150 445 l 1,106,-1
 1150 383 l 1,107,-1
 920 383 l 1,108,-1
 920 600 l 1,97,-1
50 0 m 1,109,-1
 1400 0 l 1,110,-1
 1400 700 l 1,111,-1
 50 700 l 1,112,-1
 50 0 l 1,109,-1
1102 212 m 0,114,115
 1102 168 1102 168 1161 168 c 256,116,117
 1220 168 1220 168 1220 212 c 0,118,119
 1220 255 1220 255 1161 255 c 256,120,113
 1102 255 1102 255 1102 212 c 0,114,115
EndSplineSet
Validated: 9
EndChar

StartChar: section
Encoding: 167 167 104
Width: 1450
GlyphClass: 2
Flags: W
LayerCount: 2
Fore
SplineSet
542 532 m 2,1,-1
 476 532 l 1,2,-1
 476 501 l 1,3,-1
 542 501 l 2,4,5
 563 501 563 501 563 516 c 0,6,0
 563 532 563 532 542 532 c 2,1,-1
231 252 m 1,7,-1
 231 171 l 1,8,-1
 278 171 l 2,9,10
 330 171 330 171 330 212 c 0,11,12
 330 252 330 252 278 252 c 2,13,-1
 231 252 l 1,7,-1
1161 100 m 256,15,16
 1092 100 1092 100 1056 129 c 0,17,18
 1021 158 1021 158 1021 212 c 0,19,20
 1021 265 1021 265 1056 294 c 0,21,22
 1092 324 1092 324 1161 324 c 256,23,24
 1230 324 1230 324 1266 294 c 0,25,26
 1301 265 1301 265 1301 212 c 0,27,28
 1301 158 1301 158 1266 129 c 0,29,14
 1230 100 1230 100 1161 100 c 256,15,16
998 103 m 1,30,-1
 917 103 l 1,31,-1
 917 202 l 1,32,-1
 843 109 l 1,33,-1
 768 202 l 1,34,-1
 768 103 l 1,35,-1
 687 103 l 1,36,-1
 687 320 l 1,37,-1
 768 320 l 1,38,-1
 843 227 l 1,39,-1
 917 320 l 1,40,-1
 998 320 l 1,41,-1
 998 103 l 1,30,-1
667 600 m 1,42,-1
 897 600 l 1,43,-1
 897 538 l 1,44,-1
 748 538 l 1,45,-1
 748 519 l 1,46,-1
 894 519 l 1,47,-1
 894 463 l 1,48,-1
 748 463 l 1,49,-1
 748 445 l 1,50,-1
 897 445 l 1,51,-1
 897 383 l 1,52,-1
 667 383 l 1,53,-1
 667 600 l 1,42,-1
664 258 m 1,54,-1
 515 258 l 1,55,-1
 515 240 l 1,56,-1
 661 240 l 1,57,-1
 661 184 l 1,58,-1
 515 184 l 1,59,-1
 515 165 l 1,60,-1
 664 165 l 1,61,-1
 664 103 l 1,62,-1
 434 103 l 1,63,-1
 434 320 l 1,64,-1
 664 320 l 1,65,-1
 664 258 l 1,54,-1
150 103 m 1,66,-1
 150 320 l 1,67,-1
 278 320 l 2,68,69
 411 320 411 320 411 212 c 0,70,71
 411 103 411 103 278 103 c 2,72,-1
 150 103 l 1,66,-1
150 600 m 1,73,-1
 374 600 l 1,74,-1
 374 532 l 1,75,-1
 231 532 l 1,76,-1
 231 510 l 1,77,-1
 371 510 l 1,78,-1
 371 442 l 1,79,-1
 231 442 l 1,80,-1
 231 383 l 1,81,-1
 150 383 l 1,82,-1
 150 600 l 1,73,-1
395 600 m 1,83,-1
 539 600 l 2,84,85
 590 600 590 600 618 578 c 0,86,87
 644 556 644 556 644 516 c 0,88,89
 644 465 644 465 602 445 c 1,90,-1
 644 383 l 1,91,-1
 560 383 l 1,92,-1
 527 432 l 1,93,-1
 476 432 l 1,94,-1
 476 383 l 1,95,-1
 395 383 l 1,96,-1
 395 600 l 1,83,-1
920 600 m 1,97,-1
 1150 600 l 1,98,-1
 1150 538 l 1,99,-1
 1001 538 l 1,100,-1
 1001 519 l 1,101,-1
 1147 519 l 1,102,-1
 1147 463 l 1,103,-1
 1001 463 l 1,104,-1
 1001 445 l 1,105,-1
 1150 445 l 1,106,-1
 1150 383 l 1,107,-1
 920 383 l 1,108,-1
 920 600 l 1,97,-1
50 0 m 1,109,-1
 1400 0 l 1,110,-1
 1400 700 l 1,111,-1
 50 700 l 1,112,-1
 50 0 l 1,109,-1
1102 212 m 0,114,115
 1102 168 1102 168 1161 168 c 256,116,117
 1220 168 1220 168 1220 212 c 0,118,119
 1220 255 1220 255 1161 255 c 256,120,113
 1102 255 1102 255 1102 212 c 0,114,115
EndSplineSet
Validated: 9
EndChar

StartChar: dieresis
Encoding: 168 168 105
Width: 1450
GlyphClass: 2
Flags: W
LayerCount: 2
Fore
SplineSet
542 532 m 2,1,-1
 476 532 l 1,2,-1
 476 501 l 1,3,-1
 542 501 l 2,4,5
 563 501 563 501 563 516 c 0,6,0
 563 532 563 532 542 532 c 2,1,-1
231 252 m 1,7,-1
 231 171 l 1,8,-1
 278 171 l 2,9,10
 330 171 330 171 330 212 c 0,11,12
 330 252 330 252 278 252 c 2,13,-1
 231 252 l 1,7,-1
1161 100 m 256,15,16
 1092 100 1092 100 1056 129 c 0,17,18
 1021 158 1021 158 1021 212 c 0,19,20
 1021 265 1021 265 1056 294 c 0,21,22
 1092 324 1092 324 1161 324 c 256,23,24
 1230 324 1230 324 1266 294 c 0,25,26
 1301 265 1301 265 1301 212 c 0,27,28
 1301 158 1301 158 1266 129 c 0,29,14
 1230 100 1230 100 1161 100 c 256,15,16
998 103 m 1,30,-1
 917 103 l 1,31,-1
 917 202 l 1,32,-1
 843 109 l 1,33,-1
 768 202 l 1,34,-1
 768 103 l 1,35,-1
 687 103 l 1,36,-1
 687 320 l 1,37,-1
 768 320 l 1,38,-1
 843 227 l 1,39,-1
 917 320 l 1,40,-1
 998 320 l 1,41,-1
 998 103 l 1,30,-1
667 600 m 1,42,-1
 897 600 l 1,43,-1
 897 538 l 1,44,-1
 748 538 l 1,45,-1
 748 519 l 1,46,-1
 894 519 l 1,47,-1
 894 463 l 1,48,-1
 748 463 l 1,49,-1
 748 445 l 1,50,-1
 897 445 l 1,51,-1
 897 383 l 1,52,-1
 667 383 l 1,53,-1
 667 600 l 1,42,-1
664 258 m 1,54,-1
 515 258 l 1,55,-1
 515 240 l 1,56,-1
 661 240 l 1,57,-1
 661 184 l 1,58,-1
 515 184 l 1,59,-1
 515 165 l 1,60,-1
 664 165 l 1,61,-1
 664 103 l 1,62,-1
 434 103 l 1,63,-1
 434 320 l 1,64,-1
 664 320 l 1,65,-1
 664 258 l 1,54,-1
150 103 m 1,66,-1
 150 320 l 1,67,-1
 278 320 l 2,68,69
 411 320 411 320 411 212 c 0,70,71
 411 103 411 103 278 103 c 2,72,-1
 150 103 l 1,66,-1
150 600 m 1,73,-1
 374 600 l 1,74,-1
 374 532 l 1,75,-1
 231 532 l 1,76,-1
 231 510 l 1,77,-1
 371 510 l 1,78,-1
 371 442 l 1,79,-1
 231 442 l 1,80,-1
 231 383 l 1,81,-1
 150 383 l 1,82,-1
 150 600 l 1,73,-1
395 600 m 1,83,-1
 539 600 l 2,84,85
 590 600 590 600 618 578 c 0,86,87
 644 556 644 556 644 516 c 0,88,89
 644 465 644 465 602 445 c 1,90,-1
 644 383 l 1,91,-1
 560 383 l 1,92,-1
 527 432 l 1,93,-1
 476 432 l 1,94,-1
 476 383 l 1,95,-1
 395 383 l 1,96,-1
 395 600 l 1,83,-1
920 600 m 1,97,-1
 1150 600 l 1,98,-1
 1150 538 l 1,99,-1
 1001 538 l 1,100,-1
 1001 519 l 1,101,-1
 1147 519 l 1,102,-1
 1147 463 l 1,103,-1
 1001 463 l 1,104,-1
 1001 445 l 1,105,-1
 1150 445 l 1,106,-1
 1150 383 l 1,107,-1
 920 383 l 1,108,-1
 920 600 l 1,97,-1
50 0 m 1,109,-1
 1400 0 l 1,110,-1
 1400 700 l 1,111,-1
 50 700 l 1,112,-1
 50 0 l 1,109,-1
1102 212 m 0,114,115
 1102 168 1102 168 1161 168 c 256,116,117
 1220 168 1220 168 1220 212 c 0,118,119
 1220 255 1220 255 1161 255 c 256,120,113
 1102 255 1102 255 1102 212 c 0,114,115
EndSplineSet
Validated: 9
EndChar

StartChar: copyright
Encoding: 169 169 106
Width: 1450
GlyphClass: 2
Flags: W
LayerCount: 2
Fore
SplineSet
542 532 m 2,1,-1
 476 532 l 1,2,-1
 476 501 l 1,3,-1
 542 501 l 2,4,5
 563 501 563 501 563 516 c 0,6,0
 563 532 563 532 542 532 c 2,1,-1
231 252 m 1,7,-1
 231 171 l 1,8,-1
 278 171 l 2,9,10
 330 171 330 171 330 212 c 0,11,12
 330 252 330 252 278 252 c 2,13,-1
 231 252 l 1,7,-1
1161 100 m 256,15,16
 1092 100 1092 100 1056 129 c 0,17,18
 1021 158 1021 158 1021 212 c 0,19,20
 1021 265 1021 265 1056 294 c 0,21,22
 1092 324 1092 324 1161 324 c 256,23,24
 1230 324 1230 324 1266 294 c 0,25,26
 1301 265 1301 265 1301 212 c 0,27,28
 1301 158 1301 158 1266 129 c 0,29,14
 1230 100 1230 100 1161 100 c 256,15,16
998 103 m 1,30,-1
 917 103 l 1,31,-1
 917 202 l 1,32,-1
 843 109 l 1,33,-1
 768 202 l 1,34,-1
 768 103 l 1,35,-1
 687 103 l 1,36,-1
 687 320 l 1,37,-1
 768 320 l 1,38,-1
 843 227 l 1,39,-1
 917 320 l 1,40,-1
 998 320 l 1,41,-1
 998 103 l 1,30,-1
667 600 m 1,42,-1
 897 600 l 1,43,-1
 897 538 l 1,44,-1
 748 538 l 1,45,-1
 748 519 l 1,46,-1
 894 519 l 1,47,-1
 894 463 l 1,48,-1
 748 463 l 1,49,-1
 748 445 l 1,50,-1
 897 445 l 1,51,-1
 897 383 l 1,52,-1
 667 383 l 1,53,-1
 667 600 l 1,42,-1
664 258 m 1,54,-1
 515 258 l 1,55,-1
 515 240 l 1,56,-1
 661 240 l 1,57,-1
 661 184 l 1,58,-1
 515 184 l 1,59,-1
 515 165 l 1,60,-1
 664 165 l 1,61,-1
 664 103 l 1,62,-1
 434 103 l 1,63,-1
 434 320 l 1,64,-1
 664 320 l 1,65,-1
 664 258 l 1,54,-1
150 103 m 1,66,-1
 150 320 l 1,67,-1
 278 320 l 2,68,69
 411 320 411 320 411 212 c 0,70,71
 411 103 411 103 278 103 c 2,72,-1
 150 103 l 1,66,-1
150 600 m 1,73,-1
 374 600 l 1,74,-1
 374 532 l 1,75,-1
 231 532 l 1,76,-1
 231 510 l 1,77,-1
 371 510 l 1,78,-1
 371 442 l 1,79,-1
 231 442 l 1,80,-1
 231 383 l 1,81,-1
 150 383 l 1,82,-1
 150 600 l 1,73,-1
395 600 m 1,83,-1
 539 600 l 2,84,85
 590 600 590 600 618 578 c 0,86,87
 644 556 644 556 644 516 c 0,88,89
 644 465 644 465 602 445 c 1,90,-1
 644 383 l 1,91,-1
 560 383 l 1,92,-1
 527 432 l 1,93,-1
 476 432 l 1,94,-1
 476 383 l 1,95,-1
 395 383 l 1,96,-1
 395 600 l 1,83,-1
920 600 m 1,97,-1
 1150 600 l 1,98,-1
 1150 538 l 1,99,-1
 1001 538 l 1,100,-1
 1001 519 l 1,101,-1
 1147 519 l 1,102,-1
 1147 463 l 1,103,-1
 1001 463 l 1,104,-1
 1001 445 l 1,105,-1
 1150 445 l 1,106,-1
 1150 383 l 1,107,-1
 920 383 l 1,108,-1
 920 600 l 1,97,-1
50 0 m 1,109,-1
 1400 0 l 1,110,-1
 1400 700 l 1,111,-1
 50 700 l 1,112,-1
 50 0 l 1,109,-1
1102 212 m 0,114,115
 1102 168 1102 168 1161 168 c 256,116,117
 1220 168 1220 168 1220 212 c 0,118,119
 1220 255 1220 255 1161 255 c 256,120,113
 1102 255 1102 255 1102 212 c 0,114,115
EndSplineSet
Validated: 9
EndChar

StartChar: guillemotleft
Encoding: 171 171 107
Width: 1450
GlyphClass: 2
Flags: W
LayerCount: 2
Fore
SplineSet
542 532 m 2,1,-1
 476 532 l 1,2,-1
 476 501 l 1,3,-1
 542 501 l 2,4,5
 563 501 563 501 563 516 c 0,6,0
 563 532 563 532 542 532 c 2,1,-1
231 252 m 1,7,-1
 231 171 l 1,8,-1
 278 171 l 2,9,10
 330 171 330 171 330 212 c 0,11,12
 330 252 330 252 278 252 c 2,13,-1
 231 252 l 1,7,-1
1161 100 m 256,15,16
 1092 100 1092 100 1056 129 c 0,17,18
 1021 158 1021 158 1021 212 c 0,19,20
 1021 265 1021 265 1056 294 c 0,21,22
 1092 324 1092 324 1161 324 c 256,23,24
 1230 324 1230 324 1266 294 c 0,25,26
 1301 265 1301 265 1301 212 c 0,27,28
 1301 158 1301 158 1266 129 c 0,29,14
 1230 100 1230 100 1161 100 c 256,15,16
998 103 m 1,30,-1
 917 103 l 1,31,-1
 917 202 l 1,32,-1
 843 109 l 1,33,-1
 768 202 l 1,34,-1
 768 103 l 1,35,-1
 687 103 l 1,36,-1
 687 320 l 1,37,-1
 768 320 l 1,38,-1
 843 227 l 1,39,-1
 917 320 l 1,40,-1
 998 320 l 1,41,-1
 998 103 l 1,30,-1
667 600 m 1,42,-1
 897 600 l 1,43,-1
 897 538 l 1,44,-1
 748 538 l 1,45,-1
 748 519 l 1,46,-1
 894 519 l 1,47,-1
 894 463 l 1,48,-1
 748 463 l 1,49,-1
 748 445 l 1,50,-1
 897 445 l 1,51,-1
 897 383 l 1,52,-1
 667 383 l 1,53,-1
 667 600 l 1,42,-1
664 258 m 1,54,-1
 515 258 l 1,55,-1
 515 240 l 1,56,-1
 661 240 l 1,57,-1
 661 184 l 1,58,-1
 515 184 l 1,59,-1
 515 165 l 1,60,-1
 664 165 l 1,61,-1
 664 103 l 1,62,-1
 434 103 l 1,63,-1
 434 320 l 1,64,-1
 664 320 l 1,65,-1
 664 258 l 1,54,-1
150 103 m 1,66,-1
 150 320 l 1,67,-1
 278 320 l 2,68,69
 411 320 411 320 411 212 c 0,70,71
 411 103 411 103 278 103 c 2,72,-1
 150 103 l 1,66,-1
150 600 m 1,73,-1
 374 600 l 1,74,-1
 374 532 l 1,75,-1
 231 532 l 1,76,-1
 231 510 l 1,77,-1
 371 510 l 1,78,-1
 371 442 l 1,79,-1
 231 442 l 1,80,-1
 231 383 l 1,81,-1
 150 383 l 1,82,-1
 150 600 l 1,73,-1
395 600 m 1,83,-1
 539 600 l 2,84,85
 590 600 590 600 618 578 c 0,86,87
 644 556 644 556 644 516 c 0,88,89
 644 465 644 465 602 445 c 1,90,-1
 644 383 l 1,91,-1
 560 383 l 1,92,-1
 527 432 l 1,93,-1
 476 432 l 1,94,-1
 476 383 l 1,95,-1
 395 383 l 1,96,-1
 395 600 l 1,83,-1
920 600 m 1,97,-1
 1150 600 l 1,98,-1
 1150 538 l 1,99,-1
 1001 538 l 1,100,-1
 1001 519 l 1,101,-1
 1147 519 l 1,102,-1
 1147 463 l 1,103,-1
 1001 463 l 1,104,-1
 1001 445 l 1,105,-1
 1150 445 l 1,106,-1
 1150 383 l 1,107,-1
 920 383 l 1,108,-1
 920 600 l 1,97,-1
50 0 m 1,109,-1
 1400 0 l 1,110,-1
 1400 700 l 1,111,-1
 50 700 l 1,112,-1
 50 0 l 1,109,-1
1102 212 m 0,114,115
 1102 168 1102 168 1161 168 c 256,116,117
 1220 168 1220 168 1220 212 c 0,118,119
 1220 255 1220 255 1161 255 c 256,120,113
 1102 255 1102 255 1102 212 c 0,114,115
EndSplineSet
Validated: 9
EndChar

StartChar: logicalnot
Encoding: 172 172 108
Width: 1450
GlyphClass: 2
Flags: W
LayerCount: 2
Fore
SplineSet
542 532 m 2,1,-1
 476 532 l 1,2,-1
 476 501 l 1,3,-1
 542 501 l 2,4,5
 563 501 563 501 563 516 c 0,6,0
 563 532 563 532 542 532 c 2,1,-1
231 252 m 1,7,-1
 231 171 l 1,8,-1
 278 171 l 2,9,10
 330 171 330 171 330 212 c 0,11,12
 330 252 330 252 278 252 c 2,13,-1
 231 252 l 1,7,-1
1161 100 m 256,15,16
 1092 100 1092 100 1056 129 c 0,17,18
 1021 158 1021 158 1021 212 c 0,19,20
 1021 265 1021 265 1056 294 c 0,21,22
 1092 324 1092 324 1161 324 c 256,23,24
 1230 324 1230 324 1266 294 c 0,25,26
 1301 265 1301 265 1301 212 c 0,27,28
 1301 158 1301 158 1266 129 c 0,29,14
 1230 100 1230 100 1161 100 c 256,15,16
998 103 m 1,30,-1
 917 103 l 1,31,-1
 917 202 l 1,32,-1
 843 109 l 1,33,-1
 768 202 l 1,34,-1
 768 103 l 1,35,-1
 687 103 l 1,36,-1
 687 320 l 1,37,-1
 768 320 l 1,38,-1
 843 227 l 1,39,-1
 917 320 l 1,40,-1
 998 320 l 1,41,-1
 998 103 l 1,30,-1
667 600 m 1,42,-1
 897 600 l 1,43,-1
 897 538 l 1,44,-1
 748 538 l 1,45,-1
 748 519 l 1,46,-1
 894 519 l 1,47,-1
 894 463 l 1,48,-1
 748 463 l 1,49,-1
 748 445 l 1,50,-1
 897 445 l 1,51,-1
 897 383 l 1,52,-1
 667 383 l 1,53,-1
 667 600 l 1,42,-1
664 258 m 1,54,-1
 515 258 l 1,55,-1
 515 240 l 1,56,-1
 661 240 l 1,57,-1
 661 184 l 1,58,-1
 515 184 l 1,59,-1
 515 165 l 1,60,-1
 664 165 l 1,61,-1
 664 103 l 1,62,-1
 434 103 l 1,63,-1
 434 320 l 1,64,-1
 664 320 l 1,65,-1
 664 258 l 1,54,-1
150 103 m 1,66,-1
 150 320 l 1,67,-1
 278 320 l 2,68,69
 411 320 411 320 411 212 c 0,70,71
 411 103 411 103 278 103 c 2,72,-1
 150 103 l 1,66,-1
150 600 m 1,73,-1
 374 600 l 1,74,-1
 374 532 l 1,75,-1
 231 532 l 1,76,-1
 231 510 l 1,77,-1
 371 510 l 1,78,-1
 371 442 l 1,79,-1
 231 442 l 1,80,-1
 231 383 l 1,81,-1
 150 383 l 1,82,-1
 150 600 l 1,73,-1
395 600 m 1,83,-1
 539 600 l 2,84,85
 590 600 590 600 618 578 c 0,86,87
 644 556 644 556 644 516 c 0,88,89
 644 465 644 465 602 445 c 1,90,-1
 644 383 l 1,91,-1
 560 383 l 1,92,-1
 527 432 l 1,93,-1
 476 432 l 1,94,-1
 476 383 l 1,95,-1
 395 383 l 1,96,-1
 395 600 l 1,83,-1
920 600 m 1,97,-1
 1150 600 l 1,98,-1
 1150 538 l 1,99,-1
 1001 538 l 1,100,-1
 1001 519 l 1,101,-1
 1147 519 l 1,102,-1
 1147 463 l 1,103,-1
 1001 463 l 1,104,-1
 1001 445 l 1,105,-1
 1150 445 l 1,106,-1
 1150 383 l 1,107,-1
 920 383 l 1,108,-1
 920 600 l 1,97,-1
50 0 m 1,109,-1
 1400 0 l 1,110,-1
 1400 700 l 1,111,-1
 50 700 l 1,112,-1
 50 0 l 1,109,-1
1102 212 m 0,114,115
 1102 168 1102 168 1161 168 c 256,116,117
 1220 168 1220 168 1220 212 c 0,118,119
 1220 255 1220 255 1161 255 c 256,120,113
 1102 255 1102 255 1102 212 c 0,114,115
EndSplineSet
Validated: 9
EndChar

StartChar: registered
Encoding: 174 174 109
Width: 1450
GlyphClass: 2
Flags: W
LayerCount: 2
Fore
SplineSet
542 532 m 2,1,-1
 476 532 l 1,2,-1
 476 501 l 1,3,-1
 542 501 l 2,4,5
 563 501 563 501 563 516 c 0,6,0
 563 532 563 532 542 532 c 2,1,-1
231 252 m 1,7,-1
 231 171 l 1,8,-1
 278 171 l 2,9,10
 330 171 330 171 330 212 c 0,11,12
 330 252 330 252 278 252 c 2,13,-1
 231 252 l 1,7,-1
1161 100 m 256,15,16
 1092 100 1092 100 1056 129 c 0,17,18
 1021 158 1021 158 1021 212 c 0,19,20
 1021 265 1021 265 1056 294 c 0,21,22
 1092 324 1092 324 1161 324 c 256,23,24
 1230 324 1230 324 1266 294 c 0,25,26
 1301 265 1301 265 1301 212 c 0,27,28
 1301 158 1301 158 1266 129 c 0,29,14
 1230 100 1230 100 1161 100 c 256,15,16
998 103 m 1,30,-1
 917 103 l 1,31,-1
 917 202 l 1,32,-1
 843 109 l 1,33,-1
 768 202 l 1,34,-1
 768 103 l 1,35,-1
 687 103 l 1,36,-1
 687 320 l 1,37,-1
 768 320 l 1,38,-1
 843 227 l 1,39,-1
 917 320 l 1,40,-1
 998 320 l 1,41,-1
 998 103 l 1,30,-1
667 600 m 1,42,-1
 897 600 l 1,43,-1
 897 538 l 1,44,-1
 748 538 l 1,45,-1
 748 519 l 1,46,-1
 894 519 l 1,47,-1
 894 463 l 1,48,-1
 748 463 l 1,49,-1
 748 445 l 1,50,-1
 897 445 l 1,51,-1
 897 383 l 1,52,-1
 667 383 l 1,53,-1
 667 600 l 1,42,-1
664 258 m 1,54,-1
 515 258 l 1,55,-1
 515 240 l 1,56,-1
 661 240 l 1,57,-1
 661 184 l 1,58,-1
 515 184 l 1,59,-1
 515 165 l 1,60,-1
 664 165 l 1,61,-1
 664 103 l 1,62,-1
 434 103 l 1,63,-1
 434 320 l 1,64,-1
 664 320 l 1,65,-1
 664 258 l 1,54,-1
150 103 m 1,66,-1
 150 320 l 1,67,-1
 278 320 l 2,68,69
 411 320 411 320 411 212 c 0,70,71
 411 103 411 103 278 103 c 2,72,-1
 150 103 l 1,66,-1
150 600 m 1,73,-1
 374 600 l 1,74,-1
 374 532 l 1,75,-1
 231 532 l 1,76,-1
 231 510 l 1,77,-1
 371 510 l 1,78,-1
 371 442 l 1,79,-1
 231 442 l 1,80,-1
 231 383 l 1,81,-1
 150 383 l 1,82,-1
 150 600 l 1,73,-1
395 600 m 1,83,-1
 539 600 l 2,84,85
 590 600 590 600 618 578 c 0,86,87
 644 556 644 556 644 516 c 0,88,89
 644 465 644 465 602 445 c 1,90,-1
 644 383 l 1,91,-1
 560 383 l 1,92,-1
 527 432 l 1,93,-1
 476 432 l 1,94,-1
 476 383 l 1,95,-1
 395 383 l 1,96,-1
 395 600 l 1,83,-1
920 600 m 1,97,-1
 1150 600 l 1,98,-1
 1150 538 l 1,99,-1
 1001 538 l 1,100,-1
 1001 519 l 1,101,-1
 1147 519 l 1,102,-1
 1147 463 l 1,103,-1
 1001 463 l 1,104,-1
 1001 445 l 1,105,-1
 1150 445 l 1,106,-1
 1150 383 l 1,107,-1
 920 383 l 1,108,-1
 920 600 l 1,97,-1
50 0 m 1,109,-1
 1400 0 l 1,110,-1
 1400 700 l 1,111,-1
 50 700 l 1,112,-1
 50 0 l 1,109,-1
1102 212 m 0,114,115
 1102 168 1102 168 1161 168 c 256,116,117
 1220 168 1220 168 1220 212 c 0,118,119
 1220 255 1220 255 1161 255 c 256,120,113
 1102 255 1102 255 1102 212 c 0,114,115
EndSplineSet
Validated: 9
EndChar

StartChar: macron
Encoding: 175 175 110
Width: 1450
GlyphClass: 2
Flags: W
LayerCount: 2
Fore
SplineSet
542 532 m 2,1,-1
 476 532 l 1,2,-1
 476 501 l 1,3,-1
 542 501 l 2,4,5
 563 501 563 501 563 516 c 0,6,0
 563 532 563 532 542 532 c 2,1,-1
231 252 m 1,7,-1
 231 171 l 1,8,-1
 278 171 l 2,9,10
 330 171 330 171 330 212 c 0,11,12
 330 252 330 252 278 252 c 2,13,-1
 231 252 l 1,7,-1
1161 100 m 256,15,16
 1092 100 1092 100 1056 129 c 0,17,18
 1021 158 1021 158 1021 212 c 0,19,20
 1021 265 1021 265 1056 294 c 0,21,22
 1092 324 1092 324 1161 324 c 256,23,24
 1230 324 1230 324 1266 294 c 0,25,26
 1301 265 1301 265 1301 212 c 0,27,28
 1301 158 1301 158 1266 129 c 0,29,14
 1230 100 1230 100 1161 100 c 256,15,16
998 103 m 1,30,-1
 917 103 l 1,31,-1
 917 202 l 1,32,-1
 843 109 l 1,33,-1
 768 202 l 1,34,-1
 768 103 l 1,35,-1
 687 103 l 1,36,-1
 687 320 l 1,37,-1
 768 320 l 1,38,-1
 843 227 l 1,39,-1
 917 320 l 1,40,-1
 998 320 l 1,41,-1
 998 103 l 1,30,-1
667 600 m 1,42,-1
 897 600 l 1,43,-1
 897 538 l 1,44,-1
 748 538 l 1,45,-1
 748 519 l 1,46,-1
 894 519 l 1,47,-1
 894 463 l 1,48,-1
 748 463 l 1,49,-1
 748 445 l 1,50,-1
 897 445 l 1,51,-1
 897 383 l 1,52,-1
 667 383 l 1,53,-1
 667 600 l 1,42,-1
664 258 m 1,54,-1
 515 258 l 1,55,-1
 515 240 l 1,56,-1
 661 240 l 1,57,-1
 661 184 l 1,58,-1
 515 184 l 1,59,-1
 515 165 l 1,60,-1
 664 165 l 1,61,-1
 664 103 l 1,62,-1
 434 103 l 1,63,-1
 434 320 l 1,64,-1
 664 320 l 1,65,-1
 664 258 l 1,54,-1
150 103 m 1,66,-1
 150 320 l 1,67,-1
 278 320 l 2,68,69
 411 320 411 320 411 212 c 0,70,71
 411 103 411 103 278 103 c 2,72,-1
 150 103 l 1,66,-1
150 600 m 1,73,-1
 374 600 l 1,74,-1
 374 532 l 1,75,-1
 231 532 l 1,76,-1
 231 510 l 1,77,-1
 371 510 l 1,78,-1
 371 442 l 1,79,-1
 231 442 l 1,80,-1
 231 383 l 1,81,-1
 150 383 l 1,82,-1
 150 600 l 1,73,-1
395 600 m 1,83,-1
 539 600 l 2,84,85
 590 600 590 600 618 578 c 0,86,87
 644 556 644 556 644 516 c 0,88,89
 644 465 644 465 602 445 c 1,90,-1
 644 383 l 1,91,-1
 560 383 l 1,92,-1
 527 432 l 1,93,-1
 476 432 l 1,94,-1
 476 383 l 1,95,-1
 395 383 l 1,96,-1
 395 600 l 1,83,-1
920 600 m 1,97,-1
 1150 600 l 1,98,-1
 1150 538 l 1,99,-1
 1001 538 l 1,100,-1
 1001 519 l 1,101,-1
 1147 519 l 1,102,-1
 1147 463 l 1,103,-1
 1001 463 l 1,104,-1
 1001 445 l 1,105,-1
 1150 445 l 1,106,-1
 1150 383 l 1,107,-1
 920 383 l 1,108,-1
 920 600 l 1,97,-1
50 0 m 1,109,-1
 1400 0 l 1,110,-1
 1400 700 l 1,111,-1
 50 700 l 1,112,-1
 50 0 l 1,109,-1
1102 212 m 0,114,115
 1102 168 1102 168 1161 168 c 256,116,117
 1220 168 1220 168 1220 212 c 0,118,119
 1220 255 1220 255 1161 255 c 256,120,113
 1102 255 1102 255 1102 212 c 0,114,115
EndSplineSet
Validated: 9
EndChar

StartChar: degree
Encoding: 176 176 111
Width: 1450
GlyphClass: 2
Flags: W
LayerCount: 2
Fore
SplineSet
542 532 m 2,1,-1
 476 532 l 1,2,-1
 476 501 l 1,3,-1
 542 501 l 2,4,5
 563 501 563 501 563 516 c 0,6,0
 563 532 563 532 542 532 c 2,1,-1
231 252 m 1,7,-1
 231 171 l 1,8,-1
 278 171 l 2,9,10
 330 171 330 171 330 212 c 0,11,12
 330 252 330 252 278 252 c 2,13,-1
 231 252 l 1,7,-1
1161 100 m 256,15,16
 1092 100 1092 100 1056 129 c 0,17,18
 1021 158 1021 158 1021 212 c 0,19,20
 1021 265 1021 265 1056 294 c 0,21,22
 1092 324 1092 324 1161 324 c 256,23,24
 1230 324 1230 324 1266 294 c 0,25,26
 1301 265 1301 265 1301 212 c 0,27,28
 1301 158 1301 158 1266 129 c 0,29,14
 1230 100 1230 100 1161 100 c 256,15,16
998 103 m 1,30,-1
 917 103 l 1,31,-1
 917 202 l 1,32,-1
 843 109 l 1,33,-1
 768 202 l 1,34,-1
 768 103 l 1,35,-1
 687 103 l 1,36,-1
 687 320 l 1,37,-1
 768 320 l 1,38,-1
 843 227 l 1,39,-1
 917 320 l 1,40,-1
 998 320 l 1,41,-1
 998 103 l 1,30,-1
667 600 m 1,42,-1
 897 600 l 1,43,-1
 897 538 l 1,44,-1
 748 538 l 1,45,-1
 748 519 l 1,46,-1
 894 519 l 1,47,-1
 894 463 l 1,48,-1
 748 463 l 1,49,-1
 748 445 l 1,50,-1
 897 445 l 1,51,-1
 897 383 l 1,52,-1
 667 383 l 1,53,-1
 667 600 l 1,42,-1
664 258 m 1,54,-1
 515 258 l 1,55,-1
 515 240 l 1,56,-1
 661 240 l 1,57,-1
 661 184 l 1,58,-1
 515 184 l 1,59,-1
 515 165 l 1,60,-1
 664 165 l 1,61,-1
 664 103 l 1,62,-1
 434 103 l 1,63,-1
 434 320 l 1,64,-1
 664 320 l 1,65,-1
 664 258 l 1,54,-1
150 103 m 1,66,-1
 150 320 l 1,67,-1
 278 320 l 2,68,69
 411 320 411 320 411 212 c 0,70,71
 411 103 411 103 278 103 c 2,72,-1
 150 103 l 1,66,-1
150 600 m 1,73,-1
 374 600 l 1,74,-1
 374 532 l 1,75,-1
 231 532 l 1,76,-1
 231 510 l 1,77,-1
 371 510 l 1,78,-1
 371 442 l 1,79,-1
 231 442 l 1,80,-1
 231 383 l 1,81,-1
 150 383 l 1,82,-1
 150 600 l 1,73,-1
395 600 m 1,83,-1
 539 600 l 2,84,85
 590 600 590 600 618 578 c 0,86,87
 644 556 644 556 644 516 c 0,88,89
 644 465 644 465 602 445 c 1,90,-1
 644 383 l 1,91,-1
 560 383 l 1,92,-1
 527 432 l 1,93,-1
 476 432 l 1,94,-1
 476 383 l 1,95,-1
 395 383 l 1,96,-1
 395 600 l 1,83,-1
920 600 m 1,97,-1
 1150 600 l 1,98,-1
 1150 538 l 1,99,-1
 1001 538 l 1,100,-1
 1001 519 l 1,101,-1
 1147 519 l 1,102,-1
 1147 463 l 1,103,-1
 1001 463 l 1,104,-1
 1001 445 l 1,105,-1
 1150 445 l 1,106,-1
 1150 383 l 1,107,-1
 920 383 l 1,108,-1
 920 600 l 1,97,-1
50 0 m 1,109,-1
 1400 0 l 1,110,-1
 1400 700 l 1,111,-1
 50 700 l 1,112,-1
 50 0 l 1,109,-1
1102 212 m 0,114,115
 1102 168 1102 168 1161 168 c 256,116,117
 1220 168 1220 168 1220 212 c 0,118,119
 1220 255 1220 255 1161 255 c 256,120,113
 1102 255 1102 255 1102 212 c 0,114,115
EndSplineSet
Validated: 9
EndChar

StartChar: plusminus
Encoding: 177 177 112
Width: 1450
GlyphClass: 2
Flags: W
LayerCount: 2
Fore
SplineSet
542 532 m 2,1,-1
 476 532 l 1,2,-1
 476 501 l 1,3,-1
 542 501 l 2,4,5
 563 501 563 501 563 516 c 0,6,0
 563 532 563 532 542 532 c 2,1,-1
231 252 m 1,7,-1
 231 171 l 1,8,-1
 278 171 l 2,9,10
 330 171 330 171 330 212 c 0,11,12
 330 252 330 252 278 252 c 2,13,-1
 231 252 l 1,7,-1
1161 100 m 256,15,16
 1092 100 1092 100 1056 129 c 0,17,18
 1021 158 1021 158 1021 212 c 0,19,20
 1021 265 1021 265 1056 294 c 0,21,22
 1092 324 1092 324 1161 324 c 256,23,24
 1230 324 1230 324 1266 294 c 0,25,26
 1301 265 1301 265 1301 212 c 0,27,28
 1301 158 1301 158 1266 129 c 0,29,14
 1230 100 1230 100 1161 100 c 256,15,16
998 103 m 1,30,-1
 917 103 l 1,31,-1
 917 202 l 1,32,-1
 843 109 l 1,33,-1
 768 202 l 1,34,-1
 768 103 l 1,35,-1
 687 103 l 1,36,-1
 687 320 l 1,37,-1
 768 320 l 1,38,-1
 843 227 l 1,39,-1
 917 320 l 1,40,-1
 998 320 l 1,41,-1
 998 103 l 1,30,-1
667 600 m 1,42,-1
 897 600 l 1,43,-1
 897 538 l 1,44,-1
 748 538 l 1,45,-1
 748 519 l 1,46,-1
 894 519 l 1,47,-1
 894 463 l 1,48,-1
 748 463 l 1,49,-1
 748 445 l 1,50,-1
 897 445 l 1,51,-1
 897 383 l 1,52,-1
 667 383 l 1,53,-1
 667 600 l 1,42,-1
664 258 m 1,54,-1
 515 258 l 1,55,-1
 515 240 l 1,56,-1
 661 240 l 1,57,-1
 661 184 l 1,58,-1
 515 184 l 1,59,-1
 515 165 l 1,60,-1
 664 165 l 1,61,-1
 664 103 l 1,62,-1
 434 103 l 1,63,-1
 434 320 l 1,64,-1
 664 320 l 1,65,-1
 664 258 l 1,54,-1
150 103 m 1,66,-1
 150 320 l 1,67,-1
 278 320 l 2,68,69
 411 320 411 320 411 212 c 0,70,71
 411 103 411 103 278 103 c 2,72,-1
 150 103 l 1,66,-1
150 600 m 1,73,-1
 374 600 l 1,74,-1
 374 532 l 1,75,-1
 231 532 l 1,76,-1
 231 510 l 1,77,-1
 371 510 l 1,78,-1
 371 442 l 1,79,-1
 231 442 l 1,80,-1
 231 383 l 1,81,-1
 150 383 l 1,82,-1
 150 600 l 1,73,-1
395 600 m 1,83,-1
 539 600 l 2,84,85
 590 600 590 600 618 578 c 0,86,87
 644 556 644 556 644 516 c 0,88,89
 644 465 644 465 602 445 c 1,90,-1
 644 383 l 1,91,-1
 560 383 l 1,92,-1
 527 432 l 1,93,-1
 476 432 l 1,94,-1
 476 383 l 1,95,-1
 395 383 l 1,96,-1
 395 600 l 1,83,-1
920 600 m 1,97,-1
 1150 600 l 1,98,-1
 1150 538 l 1,99,-1
 1001 538 l 1,100,-1
 1001 519 l 1,101,-1
 1147 519 l 1,102,-1
 1147 463 l 1,103,-1
 1001 463 l 1,104,-1
 1001 445 l 1,105,-1
 1150 445 l 1,106,-1
 1150 383 l 1,107,-1
 920 383 l 1,108,-1
 920 600 l 1,97,-1
50 0 m 1,109,-1
 1400 0 l 1,110,-1
 1400 700 l 1,111,-1
 50 700 l 1,112,-1
 50 0 l 1,109,-1
1102 212 m 0,114,115
 1102 168 1102 168 1161 168 c 256,116,117
 1220 168 1220 168 1220 212 c 0,118,119
 1220 255 1220 255 1161 255 c 256,120,113
 1102 255 1102 255 1102 212 c 0,114,115
EndSplineSet
Validated: 9
EndChar

StartChar: acute
Encoding: 180 180 113
Width: 1450
GlyphClass: 2
Flags: W
LayerCount: 2
Fore
SplineSet
542 532 m 2,1,-1
 476 532 l 1,2,-1
 476 501 l 1,3,-1
 542 501 l 2,4,5
 563 501 563 501 563 516 c 0,6,0
 563 532 563 532 542 532 c 2,1,-1
231 252 m 1,7,-1
 231 171 l 1,8,-1
 278 171 l 2,9,10
 330 171 330 171 330 212 c 0,11,12
 330 252 330 252 278 252 c 2,13,-1
 231 252 l 1,7,-1
1161 100 m 256,15,16
 1092 100 1092 100 1056 129 c 0,17,18
 1021 158 1021 158 1021 212 c 0,19,20
 1021 265 1021 265 1056 294 c 0,21,22
 1092 324 1092 324 1161 324 c 256,23,24
 1230 324 1230 324 1266 294 c 0,25,26
 1301 265 1301 265 1301 212 c 0,27,28
 1301 158 1301 158 1266 129 c 0,29,14
 1230 100 1230 100 1161 100 c 256,15,16
998 103 m 1,30,-1
 917 103 l 1,31,-1
 917 202 l 1,32,-1
 843 109 l 1,33,-1
 768 202 l 1,34,-1
 768 103 l 1,35,-1
 687 103 l 1,36,-1
 687 320 l 1,37,-1
 768 320 l 1,38,-1
 843 227 l 1,39,-1
 917 320 l 1,40,-1
 998 320 l 1,41,-1
 998 103 l 1,30,-1
667 600 m 1,42,-1
 897 600 l 1,43,-1
 897 538 l 1,44,-1
 748 538 l 1,45,-1
 748 519 l 1,46,-1
 894 519 l 1,47,-1
 894 463 l 1,48,-1
 748 463 l 1,49,-1
 748 445 l 1,50,-1
 897 445 l 1,51,-1
 897 383 l 1,52,-1
 667 383 l 1,53,-1
 667 600 l 1,42,-1
664 258 m 1,54,-1
 515 258 l 1,55,-1
 515 240 l 1,56,-1
 661 240 l 1,57,-1
 661 184 l 1,58,-1
 515 184 l 1,59,-1
 515 165 l 1,60,-1
 664 165 l 1,61,-1
 664 103 l 1,62,-1
 434 103 l 1,63,-1
 434 320 l 1,64,-1
 664 320 l 1,65,-1
 664 258 l 1,54,-1
150 103 m 1,66,-1
 150 320 l 1,67,-1
 278 320 l 2,68,69
 411 320 411 320 411 212 c 0,70,71
 411 103 411 103 278 103 c 2,72,-1
 150 103 l 1,66,-1
150 600 m 1,73,-1
 374 600 l 1,74,-1
 374 532 l 1,75,-1
 231 532 l 1,76,-1
 231 510 l 1,77,-1
 371 510 l 1,78,-1
 371 442 l 1,79,-1
 231 442 l 1,80,-1
 231 383 l 1,81,-1
 150 383 l 1,82,-1
 150 600 l 1,73,-1
395 600 m 1,83,-1
 539 600 l 2,84,85
 590 600 590 600 618 578 c 0,86,87
 644 556 644 556 644 516 c 0,88,89
 644 465 644 465 602 445 c 1,90,-1
 644 383 l 1,91,-1
 560 383 l 1,92,-1
 527 432 l 1,93,-1
 476 432 l 1,94,-1
 476 383 l 1,95,-1
 395 383 l 1,96,-1
 395 600 l 1,83,-1
920 600 m 1,97,-1
 1150 600 l 1,98,-1
 1150 538 l 1,99,-1
 1001 538 l 1,100,-1
 1001 519 l 1,101,-1
 1147 519 l 1,102,-1
 1147 463 l 1,103,-1
 1001 463 l 1,104,-1
 1001 445 l 1,105,-1
 1150 445 l 1,106,-1
 1150 383 l 1,107,-1
 920 383 l 1,108,-1
 920 600 l 1,97,-1
50 0 m 1,109,-1
 1400 0 l 1,110,-1
 1400 700 l 1,111,-1
 50 700 l 1,112,-1
 50 0 l 1,109,-1
1102 212 m 0,114,115
 1102 168 1102 168 1161 168 c 256,116,117
 1220 168 1220 168 1220 212 c 0,118,119
 1220 255 1220 255 1161 255 c 256,120,113
 1102 255 1102 255 1102 212 c 0,114,115
EndSplineSet
Validated: 9
EndChar

StartChar: mu
Encoding: 181 181 114
Width: 1450
GlyphClass: 2
Flags: W
LayerCount: 2
Fore
SplineSet
542 532 m 2,1,-1
 476 532 l 1,2,-1
 476 501 l 1,3,-1
 542 501 l 2,4,5
 563 501 563 501 563 516 c 0,6,0
 563 532 563 532 542 532 c 2,1,-1
231 252 m 1,7,-1
 231 171 l 1,8,-1
 278 171 l 2,9,10
 330 171 330 171 330 212 c 0,11,12
 330 252 330 252 278 252 c 2,13,-1
 231 252 l 1,7,-1
1161 100 m 256,15,16
 1092 100 1092 100 1056 129 c 0,17,18
 1021 158 1021 158 1021 212 c 0,19,20
 1021 265 1021 265 1056 294 c 0,21,22
 1092 324 1092 324 1161 324 c 256,23,24
 1230 324 1230 324 1266 294 c 0,25,26
 1301 265 1301 265 1301 212 c 0,27,28
 1301 158 1301 158 1266 129 c 0,29,14
 1230 100 1230 100 1161 100 c 256,15,16
998 103 m 1,30,-1
 917 103 l 1,31,-1
 917 202 l 1,32,-1
 843 109 l 1,33,-1
 768 202 l 1,34,-1
 768 103 l 1,35,-1
 687 103 l 1,36,-1
 687 320 l 1,37,-1
 768 320 l 1,38,-1
 843 227 l 1,39,-1
 917 320 l 1,40,-1
 998 320 l 1,41,-1
 998 103 l 1,30,-1
667 600 m 1,42,-1
 897 600 l 1,43,-1
 897 538 l 1,44,-1
 748 538 l 1,45,-1
 748 519 l 1,46,-1
 894 519 l 1,47,-1
 894 463 l 1,48,-1
 748 463 l 1,49,-1
 748 445 l 1,50,-1
 897 445 l 1,51,-1
 897 383 l 1,52,-1
 667 383 l 1,53,-1
 667 600 l 1,42,-1
664 258 m 1,54,-1
 515 258 l 1,55,-1
 515 240 l 1,56,-1
 661 240 l 1,57,-1
 661 184 l 1,58,-1
 515 184 l 1,59,-1
 515 165 l 1,60,-1
 664 165 l 1,61,-1
 664 103 l 1,62,-1
 434 103 l 1,63,-1
 434 320 l 1,64,-1
 664 320 l 1,65,-1
 664 258 l 1,54,-1
150 103 m 1,66,-1
 150 320 l 1,67,-1
 278 320 l 2,68,69
 411 320 411 320 411 212 c 0,70,71
 411 103 411 103 278 103 c 2,72,-1
 150 103 l 1,66,-1
150 600 m 1,73,-1
 374 600 l 1,74,-1
 374 532 l 1,75,-1
 231 532 l 1,76,-1
 231 510 l 1,77,-1
 371 510 l 1,78,-1
 371 442 l 1,79,-1
 231 442 l 1,80,-1
 231 383 l 1,81,-1
 150 383 l 1,82,-1
 150 600 l 1,73,-1
395 600 m 1,83,-1
 539 600 l 2,84,85
 590 600 590 600 618 578 c 0,86,87
 644 556 644 556 644 516 c 0,88,89
 644 465 644 465 602 445 c 1,90,-1
 644 383 l 1,91,-1
 560 383 l 1,92,-1
 527 432 l 1,93,-1
 476 432 l 1,94,-1
 476 383 l 1,95,-1
 395 383 l 1,96,-1
 395 600 l 1,83,-1
920 600 m 1,97,-1
 1150 600 l 1,98,-1
 1150 538 l 1,99,-1
 1001 538 l 1,100,-1
 1001 519 l 1,101,-1
 1147 519 l 1,102,-1
 1147 463 l 1,103,-1
 1001 463 l 1,104,-1
 1001 445 l 1,105,-1
 1150 445 l 1,106,-1
 1150 383 l 1,107,-1
 920 383 l 1,108,-1
 920 600 l 1,97,-1
50 0 m 1,109,-1
 1400 0 l 1,110,-1
 1400 700 l 1,111,-1
 50 700 l 1,112,-1
 50 0 l 1,109,-1
1102 212 m 0,114,115
 1102 168 1102 168 1161 168 c 256,116,117
 1220 168 1220 168 1220 212 c 0,118,119
 1220 255 1220 255 1161 255 c 256,120,113
 1102 255 1102 255 1102 212 c 0,114,115
EndSplineSet
Validated: 9
EndChar

StartChar: paragraph
Encoding: 182 182 115
Width: 1450
GlyphClass: 2
Flags: W
LayerCount: 2
Fore
SplineSet
542 532 m 2,1,-1
 476 532 l 1,2,-1
 476 501 l 1,3,-1
 542 501 l 2,4,5
 563 501 563 501 563 516 c 0,6,0
 563 532 563 532 542 532 c 2,1,-1
231 252 m 1,7,-1
 231 171 l 1,8,-1
 278 171 l 2,9,10
 330 171 330 171 330 212 c 0,11,12
 330 252 330 252 278 252 c 2,13,-1
 231 252 l 1,7,-1
1161 100 m 256,15,16
 1092 100 1092 100 1056 129 c 0,17,18
 1021 158 1021 158 1021 212 c 0,19,20
 1021 265 1021 265 1056 294 c 0,21,22
 1092 324 1092 324 1161 324 c 256,23,24
 1230 324 1230 324 1266 294 c 0,25,26
 1301 265 1301 265 1301 212 c 0,27,28
 1301 158 1301 158 1266 129 c 0,29,14
 1230 100 1230 100 1161 100 c 256,15,16
998 103 m 1,30,-1
 917 103 l 1,31,-1
 917 202 l 1,32,-1
 843 109 l 1,33,-1
 768 202 l 1,34,-1
 768 103 l 1,35,-1
 687 103 l 1,36,-1
 687 320 l 1,37,-1
 768 320 l 1,38,-1
 843 227 l 1,39,-1
 917 320 l 1,40,-1
 998 320 l 1,41,-1
 998 103 l 1,30,-1
667 600 m 1,42,-1
 897 600 l 1,43,-1
 897 538 l 1,44,-1
 748 538 l 1,45,-1
 748 519 l 1,46,-1
 894 519 l 1,47,-1
 894 463 l 1,48,-1
 748 463 l 1,49,-1
 748 445 l 1,50,-1
 897 445 l 1,51,-1
 897 383 l 1,52,-1
 667 383 l 1,53,-1
 667 600 l 1,42,-1
664 258 m 1,54,-1
 515 258 l 1,55,-1
 515 240 l 1,56,-1
 661 240 l 1,57,-1
 661 184 l 1,58,-1
 515 184 l 1,59,-1
 515 165 l 1,60,-1
 664 165 l 1,61,-1
 664 103 l 1,62,-1
 434 103 l 1,63,-1
 434 320 l 1,64,-1
 664 320 l 1,65,-1
 664 258 l 1,54,-1
150 103 m 1,66,-1
 150 320 l 1,67,-1
 278 320 l 2,68,69
 411 320 411 320 411 212 c 0,70,71
 411 103 411 103 278 103 c 2,72,-1
 150 103 l 1,66,-1
150 600 m 1,73,-1
 374 600 l 1,74,-1
 374 532 l 1,75,-1
 231 532 l 1,76,-1
 231 510 l 1,77,-1
 371 510 l 1,78,-1
 371 442 l 1,79,-1
 231 442 l 1,80,-1
 231 383 l 1,81,-1
 150 383 l 1,82,-1
 150 600 l 1,73,-1
395 600 m 1,83,-1
 539 600 l 2,84,85
 590 600 590 600 618 578 c 0,86,87
 644 556 644 556 644 516 c 0,88,89
 644 465 644 465 602 445 c 1,90,-1
 644 383 l 1,91,-1
 560 383 l 1,92,-1
 527 432 l 1,93,-1
 476 432 l 1,94,-1
 476 383 l 1,95,-1
 395 383 l 1,96,-1
 395 600 l 1,83,-1
920 600 m 1,97,-1
 1150 600 l 1,98,-1
 1150 538 l 1,99,-1
 1001 538 l 1,100,-1
 1001 519 l 1,101,-1
 1147 519 l 1,102,-1
 1147 463 l 1,103,-1
 1001 463 l 1,104,-1
 1001 445 l 1,105,-1
 1150 445 l 1,106,-1
 1150 383 l 1,107,-1
 920 383 l 1,108,-1
 920 600 l 1,97,-1
50 0 m 1,109,-1
 1400 0 l 1,110,-1
 1400 700 l 1,111,-1
 50 700 l 1,112,-1
 50 0 l 1,109,-1
1102 212 m 0,114,115
 1102 168 1102 168 1161 168 c 256,116,117
 1220 168 1220 168 1220 212 c 0,118,119
 1220 255 1220 255 1161 255 c 256,120,113
 1102 255 1102 255 1102 212 c 0,114,115
EndSplineSet
Validated: 9
EndChar

StartChar: periodcentered
Encoding: 183 183 116
Width: 1450
GlyphClass: 2
Flags: W
LayerCount: 2
Fore
SplineSet
542 532 m 2,1,-1
 476 532 l 1,2,-1
 476 501 l 1,3,-1
 542 501 l 2,4,5
 563 501 563 501 563 516 c 0,6,0
 563 532 563 532 542 532 c 2,1,-1
231 252 m 1,7,-1
 231 171 l 1,8,-1
 278 171 l 2,9,10
 330 171 330 171 330 212 c 0,11,12
 330 252 330 252 278 252 c 2,13,-1
 231 252 l 1,7,-1
1161 100 m 256,15,16
 1092 100 1092 100 1056 129 c 0,17,18
 1021 158 1021 158 1021 212 c 0,19,20
 1021 265 1021 265 1056 294 c 0,21,22
 1092 324 1092 324 1161 324 c 256,23,24
 1230 324 1230 324 1266 294 c 0,25,26
 1301 265 1301 265 1301 212 c 0,27,28
 1301 158 1301 158 1266 129 c 0,29,14
 1230 100 1230 100 1161 100 c 256,15,16
998 103 m 1,30,-1
 917 103 l 1,31,-1
 917 202 l 1,32,-1
 843 109 l 1,33,-1
 768 202 l 1,34,-1
 768 103 l 1,35,-1
 687 103 l 1,36,-1
 687 320 l 1,37,-1
 768 320 l 1,38,-1
 843 227 l 1,39,-1
 917 320 l 1,40,-1
 998 320 l 1,41,-1
 998 103 l 1,30,-1
667 600 m 1,42,-1
 897 600 l 1,43,-1
 897 538 l 1,44,-1
 748 538 l 1,45,-1
 748 519 l 1,46,-1
 894 519 l 1,47,-1
 894 463 l 1,48,-1
 748 463 l 1,49,-1
 748 445 l 1,50,-1
 897 445 l 1,51,-1
 897 383 l 1,52,-1
 667 383 l 1,53,-1
 667 600 l 1,42,-1
664 258 m 1,54,-1
 515 258 l 1,55,-1
 515 240 l 1,56,-1
 661 240 l 1,57,-1
 661 184 l 1,58,-1
 515 184 l 1,59,-1
 515 165 l 1,60,-1
 664 165 l 1,61,-1
 664 103 l 1,62,-1
 434 103 l 1,63,-1
 434 320 l 1,64,-1
 664 320 l 1,65,-1
 664 258 l 1,54,-1
150 103 m 1,66,-1
 150 320 l 1,67,-1
 278 320 l 2,68,69
 411 320 411 320 411 212 c 0,70,71
 411 103 411 103 278 103 c 2,72,-1
 150 103 l 1,66,-1
150 600 m 1,73,-1
 374 600 l 1,74,-1
 374 532 l 1,75,-1
 231 532 l 1,76,-1
 231 510 l 1,77,-1
 371 510 l 1,78,-1
 371 442 l 1,79,-1
 231 442 l 1,80,-1
 231 383 l 1,81,-1
 150 383 l 1,82,-1
 150 600 l 1,73,-1
395 600 m 1,83,-1
 539 600 l 2,84,85
 590 600 590 600 618 578 c 0,86,87
 644 556 644 556 644 516 c 0,88,89
 644 465 644 465 602 445 c 1,90,-1
 644 383 l 1,91,-1
 560 383 l 1,92,-1
 527 432 l 1,93,-1
 476 432 l 1,94,-1
 476 383 l 1,95,-1
 395 383 l 1,96,-1
 395 600 l 1,83,-1
920 600 m 1,97,-1
 1150 600 l 1,98,-1
 1150 538 l 1,99,-1
 1001 538 l 1,100,-1
 1001 519 l 1,101,-1
 1147 519 l 1,102,-1
 1147 463 l 1,103,-1
 1001 463 l 1,104,-1
 1001 445 l 1,105,-1
 1150 445 l 1,106,-1
 1150 383 l 1,107,-1
 920 383 l 1,108,-1
 920 600 l 1,97,-1
50 0 m 1,109,-1
 1400 0 l 1,110,-1
 1400 700 l 1,111,-1
 50 700 l 1,112,-1
 50 0 l 1,109,-1
1102 212 m 0,114,115
 1102 168 1102 168 1161 168 c 256,116,117
 1220 168 1220 168 1220 212 c 0,118,119
 1220 255 1220 255 1161 255 c 256,120,113
 1102 255 1102 255 1102 212 c 0,114,115
EndSplineSet
Validated: 9
EndChar

StartChar: cedilla
Encoding: 184 184 117
Width: 1450
GlyphClass: 2
Flags: W
LayerCount: 2
Fore
SplineSet
542 532 m 2,1,-1
 476 532 l 1,2,-1
 476 501 l 1,3,-1
 542 501 l 2,4,5
 563 501 563 501 563 516 c 0,6,0
 563 532 563 532 542 532 c 2,1,-1
231 252 m 1,7,-1
 231 171 l 1,8,-1
 278 171 l 2,9,10
 330 171 330 171 330 212 c 0,11,12
 330 252 330 252 278 252 c 2,13,-1
 231 252 l 1,7,-1
1161 100 m 256,15,16
 1092 100 1092 100 1056 129 c 0,17,18
 1021 158 1021 158 1021 212 c 0,19,20
 1021 265 1021 265 1056 294 c 0,21,22
 1092 324 1092 324 1161 324 c 256,23,24
 1230 324 1230 324 1266 294 c 0,25,26
 1301 265 1301 265 1301 212 c 0,27,28
 1301 158 1301 158 1266 129 c 0,29,14
 1230 100 1230 100 1161 100 c 256,15,16
998 103 m 1,30,-1
 917 103 l 1,31,-1
 917 202 l 1,32,-1
 843 109 l 1,33,-1
 768 202 l 1,34,-1
 768 103 l 1,35,-1
 687 103 l 1,36,-1
 687 320 l 1,37,-1
 768 320 l 1,38,-1
 843 227 l 1,39,-1
 917 320 l 1,40,-1
 998 320 l 1,41,-1
 998 103 l 1,30,-1
667 600 m 1,42,-1
 897 600 l 1,43,-1
 897 538 l 1,44,-1
 748 538 l 1,45,-1
 748 519 l 1,46,-1
 894 519 l 1,47,-1
 894 463 l 1,48,-1
 748 463 l 1,49,-1
 748 445 l 1,50,-1
 897 445 l 1,51,-1
 897 383 l 1,52,-1
 667 383 l 1,53,-1
 667 600 l 1,42,-1
664 258 m 1,54,-1
 515 258 l 1,55,-1
 515 240 l 1,56,-1
 661 240 l 1,57,-1
 661 184 l 1,58,-1
 515 184 l 1,59,-1
 515 165 l 1,60,-1
 664 165 l 1,61,-1
 664 103 l 1,62,-1
 434 103 l 1,63,-1
 434 320 l 1,64,-1
 664 320 l 1,65,-1
 664 258 l 1,54,-1
150 103 m 1,66,-1
 150 320 l 1,67,-1
 278 320 l 2,68,69
 411 320 411 320 411 212 c 0,70,71
 411 103 411 103 278 103 c 2,72,-1
 150 103 l 1,66,-1
150 600 m 1,73,-1
 374 600 l 1,74,-1
 374 532 l 1,75,-1
 231 532 l 1,76,-1
 231 510 l 1,77,-1
 371 510 l 1,78,-1
 371 442 l 1,79,-1
 231 442 l 1,80,-1
 231 383 l 1,81,-1
 150 383 l 1,82,-1
 150 600 l 1,73,-1
395 600 m 1,83,-1
 539 600 l 2,84,85
 590 600 590 600 618 578 c 0,86,87
 644 556 644 556 644 516 c 0,88,89
 644 465 644 465 602 445 c 1,90,-1
 644 383 l 1,91,-1
 560 383 l 1,92,-1
 527 432 l 1,93,-1
 476 432 l 1,94,-1
 476 383 l 1,95,-1
 395 383 l 1,96,-1
 395 600 l 1,83,-1
920 600 m 1,97,-1
 1150 600 l 1,98,-1
 1150 538 l 1,99,-1
 1001 538 l 1,100,-1
 1001 519 l 1,101,-1
 1147 519 l 1,102,-1
 1147 463 l 1,103,-1
 1001 463 l 1,104,-1
 1001 445 l 1,105,-1
 1150 445 l 1,106,-1
 1150 383 l 1,107,-1
 920 383 l 1,108,-1
 920 600 l 1,97,-1
50 0 m 1,109,-1
 1400 0 l 1,110,-1
 1400 700 l 1,111,-1
 50 700 l 1,112,-1
 50 0 l 1,109,-1
1102 212 m 0,114,115
 1102 168 1102 168 1161 168 c 256,116,117
 1220 168 1220 168 1220 212 c 0,118,119
 1220 255 1220 255 1161 255 c 256,120,113
 1102 255 1102 255 1102 212 c 0,114,115
EndSplineSet
Validated: 9
EndChar

StartChar: guillemotright
Encoding: 187 187 118
Width: 1450
GlyphClass: 2
Flags: W
LayerCount: 2
Fore
SplineSet
542 532 m 2,1,-1
 476 532 l 1,2,-1
 476 501 l 1,3,-1
 542 501 l 2,4,5
 563 501 563 501 563 516 c 0,6,0
 563 532 563 532 542 532 c 2,1,-1
231 252 m 1,7,-1
 231 171 l 1,8,-1
 278 171 l 2,9,10
 330 171 330 171 330 212 c 0,11,12
 330 252 330 252 278 252 c 2,13,-1
 231 252 l 1,7,-1
1161 100 m 256,15,16
 1092 100 1092 100 1056 129 c 0,17,18
 1021 158 1021 158 1021 212 c 0,19,20
 1021 265 1021 265 1056 294 c 0,21,22
 1092 324 1092 324 1161 324 c 256,23,24
 1230 324 1230 324 1266 294 c 0,25,26
 1301 265 1301 265 1301 212 c 0,27,28
 1301 158 1301 158 1266 129 c 0,29,14
 1230 100 1230 100 1161 100 c 256,15,16
998 103 m 1,30,-1
 917 103 l 1,31,-1
 917 202 l 1,32,-1
 843 109 l 1,33,-1
 768 202 l 1,34,-1
 768 103 l 1,35,-1
 687 103 l 1,36,-1
 687 320 l 1,37,-1
 768 320 l 1,38,-1
 843 227 l 1,39,-1
 917 320 l 1,40,-1
 998 320 l 1,41,-1
 998 103 l 1,30,-1
667 600 m 1,42,-1
 897 600 l 1,43,-1
 897 538 l 1,44,-1
 748 538 l 1,45,-1
 748 519 l 1,46,-1
 894 519 l 1,47,-1
 894 463 l 1,48,-1
 748 463 l 1,49,-1
 748 445 l 1,50,-1
 897 445 l 1,51,-1
 897 383 l 1,52,-1
 667 383 l 1,53,-1
 667 600 l 1,42,-1
664 258 m 1,54,-1
 515 258 l 1,55,-1
 515 240 l 1,56,-1
 661 240 l 1,57,-1
 661 184 l 1,58,-1
 515 184 l 1,59,-1
 515 165 l 1,60,-1
 664 165 l 1,61,-1
 664 103 l 1,62,-1
 434 103 l 1,63,-1
 434 320 l 1,64,-1
 664 320 l 1,65,-1
 664 258 l 1,54,-1
150 103 m 1,66,-1
 150 320 l 1,67,-1
 278 320 l 2,68,69
 411 320 411 320 411 212 c 0,70,71
 411 103 411 103 278 103 c 2,72,-1
 150 103 l 1,66,-1
150 600 m 1,73,-1
 374 600 l 1,74,-1
 374 532 l 1,75,-1
 231 532 l 1,76,-1
 231 510 l 1,77,-1
 371 510 l 1,78,-1
 371 442 l 1,79,-1
 231 442 l 1,80,-1
 231 383 l 1,81,-1
 150 383 l 1,82,-1
 150 600 l 1,73,-1
395 600 m 1,83,-1
 539 600 l 2,84,85
 590 600 590 600 618 578 c 0,86,87
 644 556 644 556 644 516 c 0,88,89
 644 465 644 465 602 445 c 1,90,-1
 644 383 l 1,91,-1
 560 383 l 1,92,-1
 527 432 l 1,93,-1
 476 432 l 1,94,-1
 476 383 l 1,95,-1
 395 383 l 1,96,-1
 395 600 l 1,83,-1
920 600 m 1,97,-1
 1150 600 l 1,98,-1
 1150 538 l 1,99,-1
 1001 538 l 1,100,-1
 1001 519 l 1,101,-1
 1147 519 l 1,102,-1
 1147 463 l 1,103,-1
 1001 463 l 1,104,-1
 1001 445 l 1,105,-1
 1150 445 l 1,106,-1
 1150 383 l 1,107,-1
 920 383 l 1,108,-1
 920 600 l 1,97,-1
50 0 m 1,109,-1
 1400 0 l 1,110,-1
 1400 700 l 1,111,-1
 50 700 l 1,112,-1
 50 0 l 1,109,-1
1102 212 m 0,114,115
 1102 168 1102 168 1161 168 c 256,116,117
 1220 168 1220 168 1220 212 c 0,118,119
 1220 255 1220 255 1161 255 c 256,120,113
 1102 255 1102 255 1102 212 c 0,114,115
EndSplineSet
Validated: 9
EndChar

StartChar: onequarter
Encoding: 188 188 119
Width: 1450
GlyphClass: 2
Flags: W
LayerCount: 2
Fore
SplineSet
542 532 m 2,1,-1
 476 532 l 1,2,-1
 476 501 l 1,3,-1
 542 501 l 2,4,5
 563 501 563 501 563 516 c 0,6,0
 563 532 563 532 542 532 c 2,1,-1
231 252 m 1,7,-1
 231 171 l 1,8,-1
 278 171 l 2,9,10
 330 171 330 171 330 212 c 0,11,12
 330 252 330 252 278 252 c 2,13,-1
 231 252 l 1,7,-1
1161 100 m 256,15,16
 1092 100 1092 100 1056 129 c 0,17,18
 1021 158 1021 158 1021 212 c 0,19,20
 1021 265 1021 265 1056 294 c 0,21,22
 1092 324 1092 324 1161 324 c 256,23,24
 1230 324 1230 324 1266 294 c 0,25,26
 1301 265 1301 265 1301 212 c 0,27,28
 1301 158 1301 158 1266 129 c 0,29,14
 1230 100 1230 100 1161 100 c 256,15,16
998 103 m 1,30,-1
 917 103 l 1,31,-1
 917 202 l 1,32,-1
 843 109 l 1,33,-1
 768 202 l 1,34,-1
 768 103 l 1,35,-1
 687 103 l 1,36,-1
 687 320 l 1,37,-1
 768 320 l 1,38,-1
 843 227 l 1,39,-1
 917 320 l 1,40,-1
 998 320 l 1,41,-1
 998 103 l 1,30,-1
667 600 m 1,42,-1
 897 600 l 1,43,-1
 897 538 l 1,44,-1
 748 538 l 1,45,-1
 748 519 l 1,46,-1
 894 519 l 1,47,-1
 894 463 l 1,48,-1
 748 463 l 1,49,-1
 748 445 l 1,50,-1
 897 445 l 1,51,-1
 897 383 l 1,52,-1
 667 383 l 1,53,-1
 667 600 l 1,42,-1
664 258 m 1,54,-1
 515 258 l 1,55,-1
 515 240 l 1,56,-1
 661 240 l 1,57,-1
 661 184 l 1,58,-1
 515 184 l 1,59,-1
 515 165 l 1,60,-1
 664 165 l 1,61,-1
 664 103 l 1,62,-1
 434 103 l 1,63,-1
 434 320 l 1,64,-1
 664 320 l 1,65,-1
 664 258 l 1,54,-1
150 103 m 1,66,-1
 150 320 l 1,67,-1
 278 320 l 2,68,69
 411 320 411 320 411 212 c 0,70,71
 411 103 411 103 278 103 c 2,72,-1
 150 103 l 1,66,-1
150 600 m 1,73,-1
 374 600 l 1,74,-1
 374 532 l 1,75,-1
 231 532 l 1,76,-1
 231 510 l 1,77,-1
 371 510 l 1,78,-1
 371 442 l 1,79,-1
 231 442 l 1,80,-1
 231 383 l 1,81,-1
 150 383 l 1,82,-1
 150 600 l 1,73,-1
395 600 m 1,83,-1
 539 600 l 2,84,85
 590 600 590 600 618 578 c 0,86,87
 644 556 644 556 644 516 c 0,88,89
 644 465 644 465 602 445 c 1,90,-1
 644 383 l 1,91,-1
 560 383 l 1,92,-1
 527 432 l 1,93,-1
 476 432 l 1,94,-1
 476 383 l 1,95,-1
 395 383 l 1,96,-1
 395 600 l 1,83,-1
920 600 m 1,97,-1
 1150 600 l 1,98,-1
 1150 538 l 1,99,-1
 1001 538 l 1,100,-1
 1001 519 l 1,101,-1
 1147 519 l 1,102,-1
 1147 463 l 1,103,-1
 1001 463 l 1,104,-1
 1001 445 l 1,105,-1
 1150 445 l 1,106,-1
 1150 383 l 1,107,-1
 920 383 l 1,108,-1
 920 600 l 1,97,-1
50 0 m 1,109,-1
 1400 0 l 1,110,-1
 1400 700 l 1,111,-1
 50 700 l 1,112,-1
 50 0 l 1,109,-1
1102 212 m 0,114,115
 1102 168 1102 168 1161 168 c 256,116,117
 1220 168 1220 168 1220 212 c 0,118,119
 1220 255 1220 255 1161 255 c 256,120,113
 1102 255 1102 255 1102 212 c 0,114,115
EndSplineSet
Validated: 9
EndChar

StartChar: onehalf
Encoding: 189 189 120
Width: 1450
GlyphClass: 2
Flags: W
LayerCount: 2
Fore
SplineSet
542 532 m 2,1,-1
 476 532 l 1,2,-1
 476 501 l 1,3,-1
 542 501 l 2,4,5
 563 501 563 501 563 516 c 0,6,0
 563 532 563 532 542 532 c 2,1,-1
231 252 m 1,7,-1
 231 171 l 1,8,-1
 278 171 l 2,9,10
 330 171 330 171 330 212 c 0,11,12
 330 252 330 252 278 252 c 2,13,-1
 231 252 l 1,7,-1
1161 100 m 256,15,16
 1092 100 1092 100 1056 129 c 0,17,18
 1021 158 1021 158 1021 212 c 0,19,20
 1021 265 1021 265 1056 294 c 0,21,22
 1092 324 1092 324 1161 324 c 256,23,24
 1230 324 1230 324 1266 294 c 0,25,26
 1301 265 1301 265 1301 212 c 0,27,28
 1301 158 1301 158 1266 129 c 0,29,14
 1230 100 1230 100 1161 100 c 256,15,16
998 103 m 1,30,-1
 917 103 l 1,31,-1
 917 202 l 1,32,-1
 843 109 l 1,33,-1
 768 202 l 1,34,-1
 768 103 l 1,35,-1
 687 103 l 1,36,-1
 687 320 l 1,37,-1
 768 320 l 1,38,-1
 843 227 l 1,39,-1
 917 320 l 1,40,-1
 998 320 l 1,41,-1
 998 103 l 1,30,-1
667 600 m 1,42,-1
 897 600 l 1,43,-1
 897 538 l 1,44,-1
 748 538 l 1,45,-1
 748 519 l 1,46,-1
 894 519 l 1,47,-1
 894 463 l 1,48,-1
 748 463 l 1,49,-1
 748 445 l 1,50,-1
 897 445 l 1,51,-1
 897 383 l 1,52,-1
 667 383 l 1,53,-1
 667 600 l 1,42,-1
664 258 m 1,54,-1
 515 258 l 1,55,-1
 515 240 l 1,56,-1
 661 240 l 1,57,-1
 661 184 l 1,58,-1
 515 184 l 1,59,-1
 515 165 l 1,60,-1
 664 165 l 1,61,-1
 664 103 l 1,62,-1
 434 103 l 1,63,-1
 434 320 l 1,64,-1
 664 320 l 1,65,-1
 664 258 l 1,54,-1
150 103 m 1,66,-1
 150 320 l 1,67,-1
 278 320 l 2,68,69
 411 320 411 320 411 212 c 0,70,71
 411 103 411 103 278 103 c 2,72,-1
 150 103 l 1,66,-1
150 600 m 1,73,-1
 374 600 l 1,74,-1
 374 532 l 1,75,-1
 231 532 l 1,76,-1
 231 510 l 1,77,-1
 371 510 l 1,78,-1
 371 442 l 1,79,-1
 231 442 l 1,80,-1
 231 383 l 1,81,-1
 150 383 l 1,82,-1
 150 600 l 1,73,-1
395 600 m 1,83,-1
 539 600 l 2,84,85
 590 600 590 600 618 578 c 0,86,87
 644 556 644 556 644 516 c 0,88,89
 644 465 644 465 602 445 c 1,90,-1
 644 383 l 1,91,-1
 560 383 l 1,92,-1
 527 432 l 1,93,-1
 476 432 l 1,94,-1
 476 383 l 1,95,-1
 395 383 l 1,96,-1
 395 600 l 1,83,-1
920 600 m 1,97,-1
 1150 600 l 1,98,-1
 1150 538 l 1,99,-1
 1001 538 l 1,100,-1
 1001 519 l 1,101,-1
 1147 519 l 1,102,-1
 1147 463 l 1,103,-1
 1001 463 l 1,104,-1
 1001 445 l 1,105,-1
 1150 445 l 1,106,-1
 1150 383 l 1,107,-1
 920 383 l 1,108,-1
 920 600 l 1,97,-1
50 0 m 1,109,-1
 1400 0 l 1,110,-1
 1400 700 l 1,111,-1
 50 700 l 1,112,-1
 50 0 l 1,109,-1
1102 212 m 0,114,115
 1102 168 1102 168 1161 168 c 256,116,117
 1220 168 1220 168 1220 212 c 0,118,119
 1220 255 1220 255 1161 255 c 256,120,113
 1102 255 1102 255 1102 212 c 0,114,115
EndSplineSet
Validated: 9
EndChar

StartChar: threequarters
Encoding: 190 190 121
Width: 1450
GlyphClass: 2
Flags: W
LayerCount: 2
Fore
SplineSet
542 532 m 2,1,-1
 476 532 l 1,2,-1
 476 501 l 1,3,-1
 542 501 l 2,4,5
 563 501 563 501 563 516 c 0,6,0
 563 532 563 532 542 532 c 2,1,-1
231 252 m 1,7,-1
 231 171 l 1,8,-1
 278 171 l 2,9,10
 330 171 330 171 330 212 c 0,11,12
 330 252 330 252 278 252 c 2,13,-1
 231 252 l 1,7,-1
1161 100 m 256,15,16
 1092 100 1092 100 1056 129 c 0,17,18
 1021 158 1021 158 1021 212 c 0,19,20
 1021 265 1021 265 1056 294 c 0,21,22
 1092 324 1092 324 1161 324 c 256,23,24
 1230 324 1230 324 1266 294 c 0,25,26
 1301 265 1301 265 1301 212 c 0,27,28
 1301 158 1301 158 1266 129 c 0,29,14
 1230 100 1230 100 1161 100 c 256,15,16
998 103 m 1,30,-1
 917 103 l 1,31,-1
 917 202 l 1,32,-1
 843 109 l 1,33,-1
 768 202 l 1,34,-1
 768 103 l 1,35,-1
 687 103 l 1,36,-1
 687 320 l 1,37,-1
 768 320 l 1,38,-1
 843 227 l 1,39,-1
 917 320 l 1,40,-1
 998 320 l 1,41,-1
 998 103 l 1,30,-1
667 600 m 1,42,-1
 897 600 l 1,43,-1
 897 538 l 1,44,-1
 748 538 l 1,45,-1
 748 519 l 1,46,-1
 894 519 l 1,47,-1
 894 463 l 1,48,-1
 748 463 l 1,49,-1
 748 445 l 1,50,-1
 897 445 l 1,51,-1
 897 383 l 1,52,-1
 667 383 l 1,53,-1
 667 600 l 1,42,-1
664 258 m 1,54,-1
 515 258 l 1,55,-1
 515 240 l 1,56,-1
 661 240 l 1,57,-1
 661 184 l 1,58,-1
 515 184 l 1,59,-1
 515 165 l 1,60,-1
 664 165 l 1,61,-1
 664 103 l 1,62,-1
 434 103 l 1,63,-1
 434 320 l 1,64,-1
 664 320 l 1,65,-1
 664 258 l 1,54,-1
150 103 m 1,66,-1
 150 320 l 1,67,-1
 278 320 l 2,68,69
 411 320 411 320 411 212 c 0,70,71
 411 103 411 103 278 103 c 2,72,-1
 150 103 l 1,66,-1
150 600 m 1,73,-1
 374 600 l 1,74,-1
 374 532 l 1,75,-1
 231 532 l 1,76,-1
 231 510 l 1,77,-1
 371 510 l 1,78,-1
 371 442 l 1,79,-1
 231 442 l 1,80,-1
 231 383 l 1,81,-1
 150 383 l 1,82,-1
 150 600 l 1,73,-1
395 600 m 1,83,-1
 539 600 l 2,84,85
 590 600 590 600 618 578 c 0,86,87
 644 556 644 556 644 516 c 0,88,89
 644 465 644 465 602 445 c 1,90,-1
 644 383 l 1,91,-1
 560 383 l 1,92,-1
 527 432 l 1,93,-1
 476 432 l 1,94,-1
 476 383 l 1,95,-1
 395 383 l 1,96,-1
 395 600 l 1,83,-1
920 600 m 1,97,-1
 1150 600 l 1,98,-1
 1150 538 l 1,99,-1
 1001 538 l 1,100,-1
 1001 519 l 1,101,-1
 1147 519 l 1,102,-1
 1147 463 l 1,103,-1
 1001 463 l 1,104,-1
 1001 445 l 1,105,-1
 1150 445 l 1,106,-1
 1150 383 l 1,107,-1
 920 383 l 1,108,-1
 920 600 l 1,97,-1
50 0 m 1,109,-1
 1400 0 l 1,110,-1
 1400 700 l 1,111,-1
 50 700 l 1,112,-1
 50 0 l 1,109,-1
1102 212 m 0,114,115
 1102 168 1102 168 1161 168 c 256,116,117
 1220 168 1220 168 1220 212 c 0,118,119
 1220 255 1220 255 1161 255 c 256,120,113
 1102 255 1102 255 1102 212 c 0,114,115
EndSplineSet
Validated: 9
EndChar

StartChar: questiondown
Encoding: 191 191 122
Width: 1450
GlyphClass: 2
Flags: W
LayerCount: 2
Fore
SplineSet
542 532 m 2,1,-1
 476 532 l 1,2,-1
 476 501 l 1,3,-1
 542 501 l 2,4,5
 563 501 563 501 563 516 c 0,6,0
 563 532 563 532 542 532 c 2,1,-1
231 252 m 1,7,-1
 231 171 l 1,8,-1
 278 171 l 2,9,10
 330 171 330 171 330 212 c 0,11,12
 330 252 330 252 278 252 c 2,13,-1
 231 252 l 1,7,-1
1161 100 m 256,15,16
 1092 100 1092 100 1056 129 c 0,17,18
 1021 158 1021 158 1021 212 c 0,19,20
 1021 265 1021 265 1056 294 c 0,21,22
 1092 324 1092 324 1161 324 c 256,23,24
 1230 324 1230 324 1266 294 c 0,25,26
 1301 265 1301 265 1301 212 c 0,27,28
 1301 158 1301 158 1266 129 c 0,29,14
 1230 100 1230 100 1161 100 c 256,15,16
998 103 m 1,30,-1
 917 103 l 1,31,-1
 917 202 l 1,32,-1
 843 109 l 1,33,-1
 768 202 l 1,34,-1
 768 103 l 1,35,-1
 687 103 l 1,36,-1
 687 320 l 1,37,-1
 768 320 l 1,38,-1
 843 227 l 1,39,-1
 917 320 l 1,40,-1
 998 320 l 1,41,-1
 998 103 l 1,30,-1
667 600 m 1,42,-1
 897 600 l 1,43,-1
 897 538 l 1,44,-1
 748 538 l 1,45,-1
 748 519 l 1,46,-1
 894 519 l 1,47,-1
 894 463 l 1,48,-1
 748 463 l 1,49,-1
 748 445 l 1,50,-1
 897 445 l 1,51,-1
 897 383 l 1,52,-1
 667 383 l 1,53,-1
 667 600 l 1,42,-1
664 258 m 1,54,-1
 515 258 l 1,55,-1
 515 240 l 1,56,-1
 661 240 l 1,57,-1
 661 184 l 1,58,-1
 515 184 l 1,59,-1
 515 165 l 1,60,-1
 664 165 l 1,61,-1
 664 103 l 1,62,-1
 434 103 l 1,63,-1
 434 320 l 1,64,-1
 664 320 l 1,65,-1
 664 258 l 1,54,-1
150 103 m 1,66,-1
 150 320 l 1,67,-1
 278 320 l 2,68,69
 411 320 411 320 411 212 c 0,70,71
 411 103 411 103 278 103 c 2,72,-1
 150 103 l 1,66,-1
150 600 m 1,73,-1
 374 600 l 1,74,-1
 374 532 l 1,75,-1
 231 532 l 1,76,-1
 231 510 l 1,77,-1
 371 510 l 1,78,-1
 371 442 l 1,79,-1
 231 442 l 1,80,-1
 231 383 l 1,81,-1
 150 383 l 1,82,-1
 150 600 l 1,73,-1
395 600 m 1,83,-1
 539 600 l 2,84,85
 590 600 590 600 618 578 c 0,86,87
 644 556 644 556 644 516 c 0,88,89
 644 465 644 465 602 445 c 1,90,-1
 644 383 l 1,91,-1
 560 383 l 1,92,-1
 527 432 l 1,93,-1
 476 432 l 1,94,-1
 476 383 l 1,95,-1
 395 383 l 1,96,-1
 395 600 l 1,83,-1
920 600 m 1,97,-1
 1150 600 l 1,98,-1
 1150 538 l 1,99,-1
 1001 538 l 1,100,-1
 1001 519 l 1,101,-1
 1147 519 l 1,102,-1
 1147 463 l 1,103,-1
 1001 463 l 1,104,-1
 1001 445 l 1,105,-1
 1150 445 l 1,106,-1
 1150 383 l 1,107,-1
 920 383 l 1,108,-1
 920 600 l 1,97,-1
50 0 m 1,109,-1
 1400 0 l 1,110,-1
 1400 700 l 1,111,-1
 50 700 l 1,112,-1
 50 0 l 1,109,-1
1102 212 m 0,114,115
 1102 168 1102 168 1161 168 c 256,116,117
 1220 168 1220 168 1220 212 c 0,118,119
 1220 255 1220 255 1161 255 c 256,120,113
 1102 255 1102 255 1102 212 c 0,114,115
EndSplineSet
Validated: 9
EndChar

StartChar: Agrave
Encoding: 192 192 123
Width: 1450
GlyphClass: 2
Flags: W
AnchorPoint: "Anchor-3" 330 700 basechar 0
AnchorPoint: "Anchor-2" 557 0 basechar 0
LayerCount: 2
Fore
SplineSet
542 532 m 2,1,-1
 476 532 l 1,2,-1
 476 501 l 1,3,-1
 542 501 l 2,4,5
 563 501 563 501 563 516 c 0,6,0
 563 532 563 532 542 532 c 2,1,-1
231 252 m 1,7,-1
 231 171 l 1,8,-1
 278 171 l 2,9,10
 330 171 330 171 330 212 c 0,11,12
 330 252 330 252 278 252 c 2,13,-1
 231 252 l 1,7,-1
1161 100 m 256,15,16
 1092 100 1092 100 1056 129 c 0,17,18
 1021 158 1021 158 1021 212 c 0,19,20
 1021 265 1021 265 1056 294 c 0,21,22
 1092 324 1092 324 1161 324 c 256,23,24
 1230 324 1230 324 1266 294 c 0,25,26
 1301 265 1301 265 1301 212 c 0,27,28
 1301 158 1301 158 1266 129 c 0,29,14
 1230 100 1230 100 1161 100 c 256,15,16
998 103 m 1,30,-1
 917 103 l 1,31,-1
 917 202 l 1,32,-1
 843 109 l 1,33,-1
 768 202 l 1,34,-1
 768 103 l 1,35,-1
 687 103 l 1,36,-1
 687 320 l 1,37,-1
 768 320 l 1,38,-1
 843 227 l 1,39,-1
 917 320 l 1,40,-1
 998 320 l 1,41,-1
 998 103 l 1,30,-1
667 600 m 1,42,-1
 897 600 l 1,43,-1
 897 538 l 1,44,-1
 748 538 l 1,45,-1
 748 519 l 1,46,-1
 894 519 l 1,47,-1
 894 463 l 1,48,-1
 748 463 l 1,49,-1
 748 445 l 1,50,-1
 897 445 l 1,51,-1
 897 383 l 1,52,-1
 667 383 l 1,53,-1
 667 600 l 1,42,-1
664 258 m 1,54,-1
 515 258 l 1,55,-1
 515 240 l 1,56,-1
 661 240 l 1,57,-1
 661 184 l 1,58,-1
 515 184 l 1,59,-1
 515 165 l 1,60,-1
 664 165 l 1,61,-1
 664 103 l 1,62,-1
 434 103 l 1,63,-1
 434 320 l 1,64,-1
 664 320 l 1,65,-1
 664 258 l 1,54,-1
150 103 m 1,66,-1
 150 320 l 1,67,-1
 278 320 l 2,68,69
 411 320 411 320 411 212 c 0,70,71
 411 103 411 103 278 103 c 2,72,-1
 150 103 l 1,66,-1
150 600 m 1,73,-1
 374 600 l 1,74,-1
 374 532 l 1,75,-1
 231 532 l 1,76,-1
 231 510 l 1,77,-1
 371 510 l 1,78,-1
 371 442 l 1,79,-1
 231 442 l 1,80,-1
 231 383 l 1,81,-1
 150 383 l 1,82,-1
 150 600 l 1,73,-1
395 600 m 1,83,-1
 539 600 l 2,84,85
 590 600 590 600 618 578 c 0,86,87
 644 556 644 556 644 516 c 0,88,89
 644 465 644 465 602 445 c 1,90,-1
 644 383 l 1,91,-1
 560 383 l 1,92,-1
 527 432 l 1,93,-1
 476 432 l 1,94,-1
 476 383 l 1,95,-1
 395 383 l 1,96,-1
 395 600 l 1,83,-1
920 600 m 1,97,-1
 1150 600 l 1,98,-1
 1150 538 l 1,99,-1
 1001 538 l 1,100,-1
 1001 519 l 1,101,-1
 1147 519 l 1,102,-1
 1147 463 l 1,103,-1
 1001 463 l 1,104,-1
 1001 445 l 1,105,-1
 1150 445 l 1,106,-1
 1150 383 l 1,107,-1
 920 383 l 1,108,-1
 920 600 l 1,97,-1
50 0 m 1,109,-1
 1400 0 l 1,110,-1
 1400 700 l 1,111,-1
 50 700 l 1,112,-1
 50 0 l 1,109,-1
1102 212 m 0,114,115
 1102 168 1102 168 1161 168 c 256,116,117
 1220 168 1220 168 1220 212 c 0,118,119
 1220 255 1220 255 1161 255 c 256,120,113
 1102 255 1102 255 1102 212 c 0,114,115
EndSplineSet
Validated: 9
Position2: "'cpsp' Capital Spacing lookup 0 subtable" dx=5 dy=0 dh=10 dv=0
EndChar

StartChar: Aacute
Encoding: 193 193 124
Width: 1450
GlyphClass: 2
Flags: W
AnchorPoint: "Anchor-3" 330 700 basechar 0
AnchorPoint: "Anchor-2" 557 0 basechar 0
LayerCount: 2
Fore
SplineSet
542 532 m 2,1,-1
 476 532 l 1,2,-1
 476 501 l 1,3,-1
 542 501 l 2,4,5
 563 501 563 501 563 516 c 0,6,0
 563 532 563 532 542 532 c 2,1,-1
231 252 m 1,7,-1
 231 171 l 1,8,-1
 278 171 l 2,9,10
 330 171 330 171 330 212 c 0,11,12
 330 252 330 252 278 252 c 2,13,-1
 231 252 l 1,7,-1
1161 100 m 256,15,16
 1092 100 1092 100 1056 129 c 0,17,18
 1021 158 1021 158 1021 212 c 0,19,20
 1021 265 1021 265 1056 294 c 0,21,22
 1092 324 1092 324 1161 324 c 256,23,24
 1230 324 1230 324 1266 294 c 0,25,26
 1301 265 1301 265 1301 212 c 0,27,28
 1301 158 1301 158 1266 129 c 0,29,14
 1230 100 1230 100 1161 100 c 256,15,16
998 103 m 1,30,-1
 917 103 l 1,31,-1
 917 202 l 1,32,-1
 843 109 l 1,33,-1
 768 202 l 1,34,-1
 768 103 l 1,35,-1
 687 103 l 1,36,-1
 687 320 l 1,37,-1
 768 320 l 1,38,-1
 843 227 l 1,39,-1
 917 320 l 1,40,-1
 998 320 l 1,41,-1
 998 103 l 1,30,-1
667 600 m 1,42,-1
 897 600 l 1,43,-1
 897 538 l 1,44,-1
 748 538 l 1,45,-1
 748 519 l 1,46,-1
 894 519 l 1,47,-1
 894 463 l 1,48,-1
 748 463 l 1,49,-1
 748 445 l 1,50,-1
 897 445 l 1,51,-1
 897 383 l 1,52,-1
 667 383 l 1,53,-1
 667 600 l 1,42,-1
664 258 m 1,54,-1
 515 258 l 1,55,-1
 515 240 l 1,56,-1
 661 240 l 1,57,-1
 661 184 l 1,58,-1
 515 184 l 1,59,-1
 515 165 l 1,60,-1
 664 165 l 1,61,-1
 664 103 l 1,62,-1
 434 103 l 1,63,-1
 434 320 l 1,64,-1
 664 320 l 1,65,-1
 664 258 l 1,54,-1
150 103 m 1,66,-1
 150 320 l 1,67,-1
 278 320 l 2,68,69
 411 320 411 320 411 212 c 0,70,71
 411 103 411 103 278 103 c 2,72,-1
 150 103 l 1,66,-1
150 600 m 1,73,-1
 374 600 l 1,74,-1
 374 532 l 1,75,-1
 231 532 l 1,76,-1
 231 510 l 1,77,-1
 371 510 l 1,78,-1
 371 442 l 1,79,-1
 231 442 l 1,80,-1
 231 383 l 1,81,-1
 150 383 l 1,82,-1
 150 600 l 1,73,-1
395 600 m 1,83,-1
 539 600 l 2,84,85
 590 600 590 600 618 578 c 0,86,87
 644 556 644 556 644 516 c 0,88,89
 644 465 644 465 602 445 c 1,90,-1
 644 383 l 1,91,-1
 560 383 l 1,92,-1
 527 432 l 1,93,-1
 476 432 l 1,94,-1
 476 383 l 1,95,-1
 395 383 l 1,96,-1
 395 600 l 1,83,-1
920 600 m 1,97,-1
 1150 600 l 1,98,-1
 1150 538 l 1,99,-1
 1001 538 l 1,100,-1
 1001 519 l 1,101,-1
 1147 519 l 1,102,-1
 1147 463 l 1,103,-1
 1001 463 l 1,104,-1
 1001 445 l 1,105,-1
 1150 445 l 1,106,-1
 1150 383 l 1,107,-1
 920 383 l 1,108,-1
 920 600 l 1,97,-1
50 0 m 1,109,-1
 1400 0 l 1,110,-1
 1400 700 l 1,111,-1
 50 700 l 1,112,-1
 50 0 l 1,109,-1
1102 212 m 0,114,115
 1102 168 1102 168 1161 168 c 256,116,117
 1220 168 1220 168 1220 212 c 0,118,119
 1220 255 1220 255 1161 255 c 256,120,113
 1102 255 1102 255 1102 212 c 0,114,115
EndSplineSet
Validated: 9
Position2: "'cpsp' Capital Spacing lookup 0 subtable" dx=5 dy=0 dh=10 dv=0
EndChar

StartChar: Acircumflex
Encoding: 194 194 125
Width: 1450
GlyphClass: 2
Flags: W
AnchorPoint: "Anchor-3" 330 700 basechar 0
AnchorPoint: "Anchor-2" 557 0 basechar 0
LayerCount: 2
Fore
SplineSet
542 532 m 2,1,-1
 476 532 l 1,2,-1
 476 501 l 1,3,-1
 542 501 l 2,4,5
 563 501 563 501 563 516 c 0,6,0
 563 532 563 532 542 532 c 2,1,-1
231 252 m 1,7,-1
 231 171 l 1,8,-1
 278 171 l 2,9,10
 330 171 330 171 330 212 c 0,11,12
 330 252 330 252 278 252 c 2,13,-1
 231 252 l 1,7,-1
1161 100 m 256,15,16
 1092 100 1092 100 1056 129 c 0,17,18
 1021 158 1021 158 1021 212 c 0,19,20
 1021 265 1021 265 1056 294 c 0,21,22
 1092 324 1092 324 1161 324 c 256,23,24
 1230 324 1230 324 1266 294 c 0,25,26
 1301 265 1301 265 1301 212 c 0,27,28
 1301 158 1301 158 1266 129 c 0,29,14
 1230 100 1230 100 1161 100 c 256,15,16
998 103 m 1,30,-1
 917 103 l 1,31,-1
 917 202 l 1,32,-1
 843 109 l 1,33,-1
 768 202 l 1,34,-1
 768 103 l 1,35,-1
 687 103 l 1,36,-1
 687 320 l 1,37,-1
 768 320 l 1,38,-1
 843 227 l 1,39,-1
 917 320 l 1,40,-1
 998 320 l 1,41,-1
 998 103 l 1,30,-1
667 600 m 1,42,-1
 897 600 l 1,43,-1
 897 538 l 1,44,-1
 748 538 l 1,45,-1
 748 519 l 1,46,-1
 894 519 l 1,47,-1
 894 463 l 1,48,-1
 748 463 l 1,49,-1
 748 445 l 1,50,-1
 897 445 l 1,51,-1
 897 383 l 1,52,-1
 667 383 l 1,53,-1
 667 600 l 1,42,-1
664 258 m 1,54,-1
 515 258 l 1,55,-1
 515 240 l 1,56,-1
 661 240 l 1,57,-1
 661 184 l 1,58,-1
 515 184 l 1,59,-1
 515 165 l 1,60,-1
 664 165 l 1,61,-1
 664 103 l 1,62,-1
 434 103 l 1,63,-1
 434 320 l 1,64,-1
 664 320 l 1,65,-1
 664 258 l 1,54,-1
150 103 m 1,66,-1
 150 320 l 1,67,-1
 278 320 l 2,68,69
 411 320 411 320 411 212 c 0,70,71
 411 103 411 103 278 103 c 2,72,-1
 150 103 l 1,66,-1
150 600 m 1,73,-1
 374 600 l 1,74,-1
 374 532 l 1,75,-1
 231 532 l 1,76,-1
 231 510 l 1,77,-1
 371 510 l 1,78,-1
 371 442 l 1,79,-1
 231 442 l 1,80,-1
 231 383 l 1,81,-1
 150 383 l 1,82,-1
 150 600 l 1,73,-1
395 600 m 1,83,-1
 539 600 l 2,84,85
 590 600 590 600 618 578 c 0,86,87
 644 556 644 556 644 516 c 0,88,89
 644 465 644 465 602 445 c 1,90,-1
 644 383 l 1,91,-1
 560 383 l 1,92,-1
 527 432 l 1,93,-1
 476 432 l 1,94,-1
 476 383 l 1,95,-1
 395 383 l 1,96,-1
 395 600 l 1,83,-1
920 600 m 1,97,-1
 1150 600 l 1,98,-1
 1150 538 l 1,99,-1
 1001 538 l 1,100,-1
 1001 519 l 1,101,-1
 1147 519 l 1,102,-1
 1147 463 l 1,103,-1
 1001 463 l 1,104,-1
 1001 445 l 1,105,-1
 1150 445 l 1,106,-1
 1150 383 l 1,107,-1
 920 383 l 1,108,-1
 920 600 l 1,97,-1
50 0 m 1,109,-1
 1400 0 l 1,110,-1
 1400 700 l 1,111,-1
 50 700 l 1,112,-1
 50 0 l 1,109,-1
1102 212 m 0,114,115
 1102 168 1102 168 1161 168 c 256,116,117
 1220 168 1220 168 1220 212 c 0,118,119
 1220 255 1220 255 1161 255 c 256,120,113
 1102 255 1102 255 1102 212 c 0,114,115
EndSplineSet
Validated: 9
Position2: "'cpsp' Capital Spacing lookup 0 subtable" dx=5 dy=0 dh=10 dv=0
EndChar

